<?xml version="1.0" encoding="UTF-8"?>
<svg id="Capa_2" xmlns="http://www.w3.org/2000/svg" viewBox="0 0 530.19 528.08">
  <defs>
    <style>
      .cls-1 {
        fill: #ea008a;
      }

      .cls-2 {
        fill: #ffcd3c;
      }

      .cls-3 {
        fill: #51a492;
      }

      .cls-4 {
        fill: #00adeb;
      }

      .cls-5 {
        fill: #f8ac50;
      }

      .cls-6 {
        fill: #776eb1;
      }

      .cls-7 {
        fill: #5bc6ce;
      }

      .cls-8 {
        fill: #eb0e2d;
      }

      .cls-9 {
        fill: #a5d04a;
      }
    </style>
  </defs>
  <g id="Capa_1-2" data-name="Capa_1">
    <g>
      <path class="cls-4" d="M17.29,190.99l2.04-2.11c5.11-5.11,13.33-5.11,18.39-.06l4.98,4.91c5.08,5.08,5.08,13.3.02,18.36L.49,254.32l-.49-.49v-49.88l2.16,2.16,15.12-15.12Z"/>
      <path class="cls-1" d="M452.33,275.23l-89.58-89.58-44.89,44.89.03.03-25.86,25.86,43.08,43.08c5.16,5.16,13.55,5.16,18.73-.02l5.01-5.08c5.16-5.16,5.16-13.55-.06-18.76l-2.15-2.08-15.43-15.43,21.53-21.56,38.65,38.65-19.42,19.42.03.03-35.08,35.08c-1.35,1.35-3.56,1.35-4.91,0l-133.42-133.53-26.29,24.75,162.16,162.16,63.46-63.46-.03-.04,44.43-44.43ZM354.49,359.58c-2.88,2.88-7.56,2.88-10.44,0-2.88-2.88-2.88-7.56,0-10.44,2.88-2.88,7.56-2.88,10.44,0,2.88,2.88,2.88,7.56,0,10.44ZM379.59,334.47c-2.88,2.88-7.56,2.88-10.44,0-2.88-2.88-2.88-7.56,0-10.44,2.88-2.88,7.56-2.88,10.44,0,2.88,2.88,2.88,7.56,0,10.44ZM404.69,309.37c-2.88,2.88-7.56,2.88-10.44,0-2.88-2.88-2.88-7.56,0-10.44,2.88-2.88,7.56-2.88,10.44,0,2.88,2.88,2.88,7.56,0,10.44ZM429.8,273.83c2.88,2.88,2.88,7.56,0,10.44-2.88,2.88-7.56,2.88-10.44,0-2.88-2.88-2.88-7.56,0-10.44,2.88-2.88,7.56-2.88,10.44,0Z"/>
      <path class="cls-7" d="M386.3,444.36l-243.54-243.54-19.42,19.42,222.49,222.25c1.03,1.03,1.03,2.7,0,3.72l-26.59,26.59-.03-.02-14.72,14.72-29.29-29.29,16.34-16.32,11.69,11.69,1.58,1.63c3.95,3.95,10.31,3.95,14.22.04l3.85-3.8c3.93-3.93,3.93-10.29.02-14.19l-32.66-32.66-19.6,19.6-.03-.02-34.02,34.02,67.9,67.9,33.67-33.67.03.02,48.1-48.1ZM309.79,510.41c-2.22,2.22-5.82,2.22-8.03,0-2.22-2.22-2.22-5.82,0-8.03,2.22-2.22,5.82-2.22,8.03,0,2.22,2.22,2.22,5.82,0,8.03ZM329.11,491.09c-2.22,2.22-5.82,2.22-8.03,0-2.22-2.22-2.22-5.82,0-8.03,2.22-2.22,5.82-2.22,8.03,0,2.22,2.22,2.22,5.82,0,8.03ZM348.43,471.77c-2.22,2.22-5.82,2.22-8.03,0-2.22-2.22-2.22-5.82,0-8.03,2.22-2.22,5.82-2.22,8.03,0,2.22,2.22,2.22,5.82,0,8.03ZM367.75,444.41c2.22,2.22,2.22,5.82,0,8.03-2.22,2.22-5.82,2.22-8.03,0-2.22-2.22-2.22-5.82,0-8.03,2.22-2.22,5.82-2.22,8.03,0Z"/>
      <path class="cls-4" d="M124.71,202.92l-62.21-62.21-.03.03-43.55-43.55L0,116.11v49.93l18.92-18.92,19.04,19.04.03-.03,34.39,34.39c1.33,1.33,1.33,3.49,0,4.82L0,277.61v50.02l124.71-124.71ZM27.3,130.21c-2.91,2.91-7.63,2.91-10.54,0-2.91-2.91-2.91-7.63,0-10.54s7.63-2.91,10.54,0c2.91,2.91,2.91,7.63,0,10.54ZM52.64,155.55c-2.91,2.91-7.63,2.91-10.54,0-2.91-2.91-2.91-7.63,0-10.54,2.91-2.91,7.63-2.91,10.54,0,2.91,2.91,2.91,7.63,0,10.54ZM77.98,180.9c-2.91,2.91-7.63,2.91-10.54,0-2.91-2.91-2.91-7.63,0-10.54,2.91-2.91,7.63-2.91,10.54,0,2.91,2.91,2.91,7.63,0,10.54ZM103.33,195.7c2.91,2.91,2.91,7.63,0,10.54-2.91,2.91-7.63,2.91-10.54,0-2.91-2.91-2.91-7.63,0-10.54,2.91-2.91,7.63-2.91,10.54,0Z"/>
      <path class="cls-2" d="M493.21,79.83l.03-.03-52.83-52.83-191.66,191.66,21.33,21.33,168.28-168.54c1.13-1.13,2.96-1.13,4.09,0l29.2,29.2-.03.03,16.17,16.17-32.17,32.17-17.92-17.95,12.84-12.84,1.79-1.73c4.34-4.34,4.34-11.32.05-15.61l-4.17-4.23c-4.31-4.31-11.3-4.31-15.59-.02l-35.87,35.87,21.52,21.52-.03.03,37.37,37.37,74.57-74.57-36.98-36.98ZM501.96,111.33c2.53-2.53,6.64-2.53,9.17,0,2.53,2.53,2.53,6.64,0,9.17-2.53,2.53-6.64,2.53-9.17,0-2.53-2.53-2.53-6.64,0-9.17ZM444.98,54.36c-2.53,2.53-6.64,2.53-9.17,0-2.53-2.53-2.53-6.64,0-9.17,2.53-2.53,6.64-2.53,9.17,0,2.53,2.53,2.53,6.64,0,9.17ZM467.03,76.41c-2.53,2.53-6.64,2.53-9.17,0-2.53-2.53-2.53-6.64,0-9.17,2.53-2.53,6.64-2.53,9.17,0,2.53,2.53,2.53,6.64,0,9.17ZM489.08,98.45c-2.53,2.53-6.64,2.53-9.17,0s-2.53-6.64,0-9.17c2.53-2.53,6.64-2.53,9.17,0,2.53,2.53,2.53,6.64,0,9.17Z"/>
      <path class="cls-8" d="M367.56,79.84l-46.97-46.97-.03.02L287.68,0l-66.31,66.31,33.23,33.23.03-.02,19.14,19.14,31.89-31.89c3.82-3.82,3.82-10.03-.02-13.86l-3.76-3.71c-3.82-3.82-10.03-3.82-13.88.04l-1.54,1.59-11.42,11.42-15.96-15.93,28.61-28.61,14.38,14.38.03-.02,25.96,25.96c1,1,1,2.63,0,3.64l-108.35,108.26,18.32,19.46,129.54-129.54ZM291.11,21.04c-2.27,2.27-5.96,2.27-8.23,0-2.27-2.27-2.27-5.96,0-8.23,2.27-2.27,5.96-2.27,8.23,0,2.27,2.27,2.27,5.96,0,8.23ZM310.9,40.83c-2.27,2.27-5.96,2.27-8.23,0-2.27-2.27-2.27-5.96,0-8.23,2.27-2.27,5.96-2.27,8.23,0,2.27,2.27,2.27,5.96,0,8.23ZM330.7,60.62c-2.27,2.27-5.96,2.27-8.23,0-2.27-2.27-2.27-5.96,0-8.23,2.27-2.27,5.96-2.27,8.23,0s2.27,5.96,0,8.23ZM350.49,72.18c2.27,2.27,2.27,5.96,0,8.23-2.27,2.27-5.96,2.27-8.23,0-2.27-2.27-2.27-5.96,0-8.23,2.27-2.27,5.96-2.27,8.23,0Z"/>
      <path class="cls-5" d="M179.9,65.64l-38.59-38.59-.02.02L114.27.05l-54.48,54.48,27.3,27.3.02-.02,15.72,15.72,26.2-26.2c3.14-3.14,3.14-8.24-.02-11.39l-3.09-3.05c-3.14-3.14-8.24-3.14-11.41.03l-1.27,1.31-9.38,9.38-13.11-13.09,23.5-23.5,11.81,11.81.02-.02,21.33,21.33c.82.82.82,2.16,0,2.99l-70.11,70.04,15.05,15.99,87.52-87.52ZM121.32,19.71c-1.83,1.83-4.8,1.83-6.63,0-1.83-1.83-1.83-4.8,0-6.63,1.83-1.83,4.8-1.83,6.63,0,1.83,1.83,1.83,4.8,0,6.63ZM137.26,35.66c-1.83,1.83-4.8,1.83-6.63,0-1.83-1.83-1.83-4.8,0-6.63s4.8-1.83,6.63,0,1.83,4.8,0,6.63ZM153.2,51.6c-1.83,1.83-4.8,1.83-6.63,0-1.83-1.83-1.83-4.8,0-6.63,1.83-1.83,4.8-1.83,6.63,0,1.83,1.83,1.83,4.8,0,6.63ZM169.14,60.91c1.83,1.83,1.83,4.8,0,6.63-1.83,1.83-4.8,1.83-6.63,0-1.83-1.83-1.83-4.8,0-6.63,1.83-1.83,4.8-1.83,6.63,0Z"/>
      <path class="cls-3" d="M201.85,134.41l.02-.02-37.15-37.15-64.47,64.47,15,15,48.03-48.22c.79-.79,2.08-.79,2.88,0l20.54,20.54-.02.02,11.37,11.37-22.63,22.63-12.6-12.62,9.03-9.03,1.26-1.22c3.05-3.05,3.05-7.96.03-10.98l-2.93-2.98c-3.03-3.03-7.95-3.03-10.96-.01l-25.23,25.23,15.14,15.14-.02.02,26.28,26.28,52.45-52.45-26.01-26.01ZM208.66,155.91c1.74-1.74,4.55-1.74,6.29,0,1.74,1.74,1.74,4.55,0,6.29-1.74,1.74-4.55,1.74-6.29,0-1.74-1.74-1.74-4.55,0-6.29ZM169.58,116.82c-1.74,1.74-4.55,1.74-6.29,0-1.74-1.74-1.74-4.55,0-6.29,1.74-1.74,4.55-1.74,6.29,0,1.74,1.74,1.74,4.55,0,6.29ZM184.7,131.95c-1.74,1.74-4.55,1.74-6.29,0-1.74-1.74-1.74-4.55,0-6.29s4.55-1.74,6.29,0c1.74,1.74,1.74,4.55,0,6.29ZM199.83,147.07c-1.74,1.74-4.55,1.74-6.29,0-1.74-1.74-1.74-4.55,0-6.29,1.74-1.74,4.55-1.74,6.29,0,1.74,1.74,1.74,4.55,0,6.29Z"/>
      <path class="cls-6" d="M80.76,337.08l20.79,20.79,34.64-34.64c4.15-4.15,4.15-10.89-.02-15.06l-4.09-4.03c-4.15-4.15-10.89-4.15-15.08.05l-1.67,1.73-12.41,12.41-17.33-17.31,31.08-31.08,15.62,15.62.03-.03,28.21,28.21c1.09,1.09,1.09,2.86,0,3.95L1.07,476.96v41.13l202.38-202.38-51.03-51.03-.03.03-35.72-35.72-72.03,72.03,36.09,36.09.03-.03ZM176.55,309.03c2.39-2.39,6.25-2.39,8.64,0,2.39,2.39,2.39,6.25,0,8.64-2.39,2.39-6.25,2.39-8.64,0-2.39-2.39-2.39-6.25,0-8.64ZM155.77,288.26c2.39-2.39,6.25-2.39,8.64,0,2.39,2.39,2.39,6.25,0,8.64s-6.25,2.39-8.64,0-2.39-6.25,0-8.64ZM135,267.48c2.39-2.39,6.25-2.39,8.64,0,2.39,2.39,2.39,6.25,0,8.64-2.39,2.39-6.25,2.39-8.64,0-2.39-2.39-2.39-6.25,0-8.64ZM114.23,246.71c2.39-2.39,6.25-2.39,8.64,0,2.39,2.39,2.39,6.25,0,8.64-2.39,2.39-6.25,2.39-8.64,0-2.38-2.39-2.38-6.25,0-8.64Z"/>
      <path class="cls-4" d="M68.21,344.46v-.02s-33.9-33.92-33.9-33.92L1.07,343.77v27.27l33.92-33.97c.63-.63,1.73-.55,2.45.17l18.75,18.75-.02.02,10.38,10.38-17.9,17.9-11.51-11.52,7.15-7.15,1-.96c2.41-2.41,2.11-6.6-.64-9.35l-2.68-2.71c-2.77-2.77-6.95-3.07-9.34-.68l-19.95,19.95,13.82,13.82v.02s23.98,23.99,23.98,23.99l41.49-41.49-23.74-23.74ZM39.71,327.49c-1.57,1.57-4.11,1.57-5.68,0-1.57-1.57-1.57-4.11,0-5.68,1.57-1.57,4.11-1.57,5.68,0,1.57,1.57,1.57,4.11,0,5.68ZM53.37,341.16c-1.57,1.57-4.11,1.57-5.68,0s-1.57-4.11,0-5.68c1.57-1.57,4.11-1.57,5.68,0,1.57,1.57,1.57,4.11,0,5.68ZM67.03,354.82c-1.57,1.57-4.11,1.57-5.68,0-1.57-1.57-1.57-4.11,0-5.68,1.57-1.57,4.11-1.57,5.68,0,1.57,1.57,1.57,4.11,0,5.68ZM75.01,368.48c-1.57-1.57-1.57-4.11,0-5.68,1.57-1.57,4.11-1.57,5.68,0,1.57,1.57,1.57,4.11,0,5.68-1.57,1.57-4.11,1.57-5.68,0Z"/>
      <path class="cls-9" d="M223.14,396.17l.02-.02-41.66-41.66L7.91,528.08h33.59l138.39-138.54c.89-.89,2.34-.89,3.23,0l23.03,23.03-.02.02,12.75,12.75-25.37,25.37-14.13-14.15,10.13-10.13,1.41-1.37c3.42-3.42,3.42-8.93.04-12.31l-3.29-3.34c-3.4-3.4-8.91-3.4-12.29-.02l-28.28,28.28,16.97,16.97-.02.02,29.47,29.47,58.81-58.81-29.17-29.17ZM186.95,376.45c-1.95,1.95-5.1,1.95-7.05,0-1.95-1.95-1.95-5.1,0-7.05,1.95-1.95,5.1-1.95,7.05,0,1.95,1.95,1.95,5.1,0,7.05ZM203.91,393.41c-1.95,1.95-5.1,1.95-7.05,0-1.95-1.95-1.95-5.1,0-7.05,1.95-1.95,5.1-1.95,7.05,0,1.95,1.95,1.95,5.1,0,7.05ZM220.87,410.37c-1.95,1.95-5.1,1.95-7.05,0-1.95-1.95-1.95-5.1,0-7.05,1.95-1.95,5.1-1.95,7.05,0,1.95,1.95,1.95,5.1,0,7.05ZM230.78,427.33c-1.95-1.95-1.95-5.1,0-7.05,1.95-1.95,5.1-1.95,7.05,0,1.95,1.95,1.95,5.1,0,7.05-1.95,1.95-5.1,1.95-7.05,0Z"/>
    </g>
  </g>
</svg>