<?xml version="1.0" encoding="UTF-8"?>
<svg id="Capa_2" xmlns="http://www.w3.org/2000/svg" viewBox="0 0 204.78 205.11">
  <defs>
    <style>
      .cls-110a {
        fill: #ee9f48;
      }
    </style>
  </defs>
  <g id="Capa_1-2" data-name="Capa_1">
    <g>
      <g>
        <path class="cls-110a" d="M121.03,40.53c1.03-1.03,2.7-1.03,3.73,0l26.63,26.63-.02.03,14.75,14.75-27.48,27.48c-1.03,1.03-2.7,1.03-3.73,0l-12.61-12.63c-1.03-1.03-1.03-2.7,0-3.73l9.85-9.85,1.63-1.58c3.96-3.96,3.96-10.33.04-14.24l-3.8-3.86c-3.93-3.93-10.3-3.93-14.22-.02l-32.71,32.71h0s19.63,19.63,19.63,19.63l-.02.03,34.08,34.08h0l68.01-68.01h0s-33.73-33.73-33.73-33.73l.02-.03L122.9,0,3.35,119.55l-2.62,2.62,2.62,2.62,17.22,17.22L121.03,40.53Z"/>
        <circle class="cls-110a" cx="190.25" cy="30.19" r="13.82"/>
        <circle class="cls-110a" cx="87.21" cy="127.58" r="13.82"/>
        <circle class="cls-110a" cx="190.25" cy="129.05" r="13.82"/>
      </g>
      <rect class="cls-110a" x="0" y="180.12" width="204.68" height="25" rx="12.5" ry="12.5"/>
    </g>
  </g>
</svg>