<?xml version="1.0" encoding="UTF-8"?>
<svg id="Capa_2act" xmlns="http://www.w3.org/2000/svg" viewBox="0 0 207.94 203.43">
  <defs>
    <style>
      .cls-1act {
        fill: #ee9f48;
      }
    </style>
  </defs>
  <g id="Capa_1-2" data-name="Capa_1">
    <g>
      <rect class="cls-1act" x=".74" y="178.43" width="204.17" height="25" rx="12.5" ry="12.5"/>
      <g>
        <rect class="cls-1act" x="0" y="29.84" width="94.14" height="13.76" rx="6.47" ry="6.47"/>
        <path class="cls-1act" d="M20.68,0h58.56C87.46,0,94.14,6.68,94.14,14.9v2.37c0,3.46-2.81,6.26-6.26,6.26H1.43C.64,23.53,0,22.88,0,22.09v-1.41C0,9.27,9.27,0,20.68,0Z"/>
        <g>
          <path class="cls-1act" d="M64.04,104.84h-2.95c-.51,0-.94.42-1.06.99-1.11,5.44-6.47,9.91-12.54,9.91s-12.3-3.29-13.39-9.91c-.1-.58-.55-.99-1.06-.99h-3.2c-.52,0-.97.42-1.06,1.01-1.04,6.69-9.35,10.88-15.45,9.2h0c-.93,0-1.42,1.26-.82,2.07l28.1,31.45c3.43,4.58,9.58,4.58,13.01,0l27.77-32c.62-.83.05-2.08-.89-2.01-.24.02-.51-.09-.74.03-5.03,2.44-13.48-2.29-14.67-8.76-.1-.57-.55-.97-1.05-.97Z"/>
          <path class="cls-1act" d="M90.61,104.84h0s0,0,0,.01h.01Z"/>
        </g>
        <g>
          <path class="cls-1act" d="M34.58,95.98c0,7.89,5.55,14.32,12.38,14.32s12.38-6.42,12.38-14.32v-46.38h-24.76v46.38Z"/>
          <path class="cls-1act" d="M3.43,50.46v45.69c0,7.89,5.55,14.32,12.38,14.32s12.38-6.42,12.38-14.32v-45.69c0-.29-.02-.57-.04-.86H3.47c-.01.29-.04.57-.04.86Z"/>
          <path class="cls-1act" d="M65.73,95.67c0,7.89,5.55,14.31,12.38,14.31s12.38-6.42,12.38-14.31v-46.07h-24.76v46.07Z"/>
        </g>
      </g>
      <path class="cls-1act" d="M155.73,86.15c.64-.64,1.68-.64,2.33,0l16.6,16.6-.02.02,9.19,9.19-18.29,18.29-10.19-10.2,7.3-7.3,1.02-.99c2.47-2.47,2.47-6.44.03-8.88l-2.37-2.41c-2.45-2.45-6.42-2.45-8.86-.01l-20.39,20.39s0,0,0,0l12.24,12.24-.02.02,21.25,21.25s0,0,0,0l42.4-42.4s0,0,0,0l-21.03-21.03.02-.02-30.04-30.04-79.16,79.16,12.13,12.13,65.87-66.02Z"/>
    </g>
  </g>
</svg>