<?xml version="1.0" encoding="UTF-8"?>
<svg id="Capa_2" xmlns="http://www.w3.org/2000/svg" viewBox="0 0 204.17 203.86">
  <defs>
    <style>
      .cls-1AE {
        fill: #771d0e;
      }
    </style>
  </defs>
  <g id="Capa_1-2" data-name="Capa_1">
    <g>
      <rect class="cls-1AE" x="0" y="178.87" width="204.17" height="25" rx="12.5" ry="12.5"/>
      <g>
        <path class="cls-1AE" d="M156.8,50.44l-16.42,16.42c-9.89,9.89-25.93,9.89-35.83,0l-7.16-7.16L41.62,3.92C37.38-.32,30.7-1.32,25.64,1.9c-6.63,4.21-7.34,13.11-2.13,18.33l56.68,56.68-.04.04.08.08c6.41,6.41,6.41,16.81,0,23.22h0c-3.09,3.09-7.11,4.67-11.16,4.76-.37,0-.6.41-.39.72,4.37,6.37,3.75,15.17-1.91,20.82l-.04.04c-3.94,3.94-9.4,5.43-14.5,4.51-.33-.06-.6.22-.54.54.92,5.11-.57,10.57-4.51,14.5l-.04.04c-4.85,4.85-11.99,6.01-17.95,3.49-.47-.2-.86.4-.5.76h0c16.88,16.88,44.51,16.88,61.39,0l32.68-32.68,67.27-67.27s.02-.06,0-.08c-9.19-9.14-24.05-9.13-33.22.04Z"/>
        <path class="cls-1AE" d="M52.95,56.78c-4.45-4.42-11.65-4.41-16.09.03l-.04.04c-4.44,4.44-4.45,11.63-.03,16.09.32.39.65.78,1.02,1.15l21.66,21.66c.32.32.64.61.98.89.06.05.11.08.17.13,4.45,4.42,11.65,4.41,16.09-.03l.04-.04c4.44-4.44,4.45-11.63.03-16.09-.04-.06-.08-.11-.13-.17-.28-.34-.58-.66-.89-.98l-21.66-21.66c-.37-.37-.75-.7-1.15-1.02Z"/>
        <path class="cls-1AE" d="M39.09,82.84c-4.48-3.66-11.09-3.4-15.27.77l-.03.03s0,0,0,0c-.01.01-.02.03-.04.04-4.14,4.18-4.39,10.76-.74,15.23.48.7,1.03,1.36,1.65,1.99l15.76,15.76,5.53,5.53c.62.62,1.28,1.16,1.97,1.64,0,0,0,0,0,0,.02.01.03.02.05.04,4.48,3.64,11.07,3.37,15.24-.79h0s.03-.03.03-.03h0c4.18-4.18,4.43-10.79.77-15.27-.48-.7-1.03-1.36-1.65-1.99l-5.53-5.53-15.76-15.76c-.62-.62-1.29-1.17-1.98-1.65Z"/>
        <path class="cls-1AE" d="M17.48,116.52c-4.62,4.62-4.42,12.35.46,17.23l2.7,2.7,5.89,5.89c4.88,4.88,12.61,5.08,17.23.46l.03-.03c4.62-4.62,4.42-12.35-.46-17.23l-5.89-5.89-2.7-2.7c-4.88-4.88-12.61-5.08-17.26-.43Z"/>
      </g>
    </g>
  </g>
</svg>