<?xml version="1.0" encoding="UTF-8"?>
<svg id="Capa_2" xmlns="http://www.w3.org/2000/svg" viewBox="0 0 204.12 205.18">
  <defs>
    <style>
      .cls-111r {
        fill: #771d0e;
      }
    </style>
  </defs>
  <g id="Capa_1-2" data-name="Capa_1">
    <g>
      <rect class="cls-11r" x="0" y="180.18" width="204.12" height="25" rx="12.5" ry="12.5"/>
      <path class="cls-11r" d="M193.77,31.38V0s0,0,0,0h-63.27v31.7h.02v18.26h30.43c3.64,0,6.6-2.96,6.6-6.62l-.03-3.56c0-3.64-2.96-6.6-6.64-6.6l-1.5.02h-10.9v-15.21s27.29,0,27.29,0v13.72h.02v24.77c0,.96-.78,1.73-1.74,1.73l-133.73-.07v18.05h153.45V31.38h-.02Z"/>
      <path class="cls-11r" d="M11.77,134.61v31.38s0,0,0,0h63.27s0-31.7,0-31.7h-.02v-18.26s-30.43,0-30.43,0c-3.64,0-6.6,2.96-6.6,6.62l.03,3.56c0,3.64,2.96,6.6,6.64,6.6l1.5-.02h10.9v15.21s-27.29,0-27.29,0v-13.72s-.02,0-.02,0v-24.77c0-.96.78-1.73,1.74-1.73l133.73.07v-18.05s-153.45,0-153.45,0v44.82s.02,0,.02,0Z"/>
    </g>
  </g>
</svg>