<?xml version="1.0" encoding="UTF-8"?>
<svg id="Capa_2" xmlns="http://www.w3.org/2000/svg" viewBox="0 0 100 73.07">
  <defs>
    <style>
      .cls-113bp {
        fill: #ee9f48;
      }
    </style>
  </defs>
  <g id="Capa_1-2" data-name="Capa_1">
    <g>
      <path class="cls-113bp" d="M78.03,0h-29.13c-10.71,0-19.62,7.66-21.57,17.8-2.3-.95-4.81-1.48-7.44-1.48C8.92,16.32,0,25.39,0,36.53s8.92,20.22,19.89,20.22c2.63,0,5.14-.53,7.44-1.48,1.95,10.14,10.86,17.8,21.57,17.8h29.13c12.13,0,21.97-9.84,21.97-21.97v-29.13c0-12.13-9.83-21.97-21.97-21.97ZM19.89,43.48c-3.77,0-6.83-3.11-6.83-6.94s3.06-6.94,6.83-6.94,6.83,3.11,6.83,6.94-3.06,6.94-6.83,6.94ZM87.06,51.1c0,4.98-4.05,9.03-9.03,9.03h-29.13c-4.98,0-9.03-4.05-9.03-9.03v-29.13c0-4.98,4.05-9.03,9.03-9.03h29.13c4.98,0,9.03,4.05,9.03,9.03v29.13Z"/>
      <path class="cls-113bp" d="M75.65,23.16l-17.56,17.56-5.89-5.89c-1.75-1.75-4.59-1.75-6.33,0-1.75,1.75-1.75,4.58,0,6.33l12.22,12.22,23.9-23.9c1.75-1.75,1.75-4.58,0-6.33-1.75-1.75-4.59-1.75-6.33,0Z"/>
    </g>
  </g>
</svg>