<?xml version="1.0" encoding="UTF-8"?>
<svg id="Capa_2" xmlns="http://www.w3.org/2000/svg" viewBox="0 0 100.48 73.42">
  <defs>
    <style>
      .cls-113bt {
        fill: #ee9f48;
      }
    </style>
  </defs>
  <g id="Capa_1-2" data-name="Capa_1">
    <g>
      <path class="cls-113bt" d="M80.49,16.39c-2.64,0-5.16.54-7.48,1.49C71.06,7.7,62.1,0,51.34,0h-29.27C9.88,0,0,9.88,0,22.07v29.27c0,12.19,9.88,22.07,22.07,22.07h29.27c10.76,0,19.71-7.7,21.67-17.88,2.31.95,4.83,1.49,7.48,1.49,11.02,0,19.99-9.11,19.99-20.31s-8.97-20.31-19.99-20.31ZM60.42,51.34c0,5-4.07,9.07-9.07,9.07h-29.27c-5,0-9.07-4.07-9.07-9.07v-29.27c0-5,4.07-9.07,9.07-9.07h29.27c5,0,9.07,4.07,9.07,9.07v29.27ZM80.49,43.68c-3.79,0-6.86-3.13-6.86-6.98s3.08-6.98,6.86-6.98,6.86,3.13,6.86,6.98-3.08,6.98-6.86,6.98Z"/>
      <path class="cls-113bt" d="M42.24,36.98l7.84-10.31c2.16-2.85.13-6.94-3.44-6.94-1.36,0-2.65.64-3.47,1.74l-6.38,8.56-6.11-8.41c-.86-1.19-2.24-1.89-3.7-1.89h0c-3.77,0-5.92,4.3-3.66,7.32l7.63,10.19-8.16,10.68c-2.22,2.9-.15,7.09,3.51,7.09,1.4,0,2.72-.66,3.55-1.79l6.68-9.03,6.36,8.9c.86,1.21,2.26,1.92,3.74,1.92h0c3.8,0,5.96-4.34,3.67-7.37l-8.06-10.66Z"/>
    </g>
  </g>
</svg>