<?xml version="1.0" encoding="UTF-8"?>
<svg id="Capa_2" xmlns="http://www.w3.org/2000/svg" viewBox="0 0 197.08 100">
  <defs>
    <style>
      .cls-1 {
        fill: #f8ac50;
      }

      .cls-2 {
        fill: #771d0e;
      }
    </style>
  </defs>
  <g id="Capa_1-2" data-name="Capa_1">
    <g>
      <path class="cls-2" d="M29.37,0s.03,23.98,0,23.95l-23.98.02v-12.02.13s.01-6.63.01-6.63h13.21v8.25s0,0,0,0h-6.1c-.95-.01-1.71.76-1.71,1.7v1.47c-.01.95.76,1.71,1.7,1.71h11.5v-6.63.13s.01-12.02.01-12.02H0v12.02-.13s0,17.41,0,17.41h29.37s.03,29.9.02,29.89H5.39v-12.02.13s.01-6.63.01-6.63h13.21v8.25s0,0,0,0h-6.1c-.95-.01-1.71.76-1.71,1.7v1.47c-.01.95.76,1.71,1.7,1.71h11.5v-6.63.13s.01-12.02.01-12.02H0v12.02-.13s0,17.41,0,17.41h29.37s.02,26.96.02,29.89H5.39v-12.02.13s.01-6.63.01-6.63h13.21v8.25s0,0,0,0h-6.1c-.95-.01-1.71.76-1.71,1.7v1.47c-.01.95.76,1.71,1.7,1.71h11.5v-6.63.13s.01-12.02.01-12.02H0v12.02-.13s0,17.41,0,17.41l197.08.09V0H29.37Z"/>
      <g>
        <path class="cls-1" d="M68.69,45.88c-1.11-.34-1.98-.78-2.63-1.34l.99-2.22c.63.5,1.4.91,2.32,1.22.92.32,1.84.47,2.76.47,1.14,0,2-.18,2.56-.55.56-.37.85-.85.85-1.45,0-.44-.16-.8-.47-1.09-.32-.29-.71-.51-1.2-.67s-1.14-.34-1.98-.55c-1.17-.28-2.12-.56-2.85-.84s-1.35-.71-1.87-1.31c-.52-.59-.78-1.4-.78-2.41,0-.85.23-1.62.69-2.32s1.16-1.25,2.09-1.66c.93-.41,2.07-.62,3.42-.62.94,0,1.86.12,2.77.35.91.23,1.69.57,2.35,1.01l-.9,2.22c-.67-.4-1.38-.7-2.11-.9-.73-.21-1.44-.31-2.13-.31-1.13,0-1.97.19-2.52.57-.55.38-.82.89-.82,1.52,0,.44.16.8.47,1.08.32.28.71.5,1.2.66.48.16,1.14.34,1.98.55,1.14.26,2.08.54,2.82.83s1.36.72,1.88,1.31c.52.59.78,1.38.78,2.38,0,.85-.23,1.62-.69,2.31s-1.16,1.24-2.1,1.65c-.94.41-2.08.62-3.43.62-1.19,0-2.34-.17-3.44-.51Z"/>
        <path class="cls-1" d="M83.88,45.55c-.95-.51-1.7-1.23-2.23-2.14s-.8-1.95-.8-3.11.27-2.19.8-3.1,1.28-1.62,2.23-2.13c.95-.51,2.02-.77,3.21-.77s2.28.26,3.23.77c.95.51,1.7,1.23,2.23,2.13s.8,1.94.8,3.1-.27,2.2-.8,3.11-1.28,1.63-2.23,2.14c-.95.51-2.03.77-3.23.77s-2.26-.26-3.21-.77ZM89.6,42.95c.66-.67.99-1.56.99-2.66s-.33-1.99-.99-2.66c-.66-.67-1.5-1.01-2.51-1.01s-1.84.34-2.5,1.01c-.65.67-.98,1.56-.98,2.66s.33,1.99.98,2.66,1.49,1.01,2.5,1.01,1.85-.34,2.51-1.01Z"/>
        <path class="cls-1" d="M106.46,35.03c.9.5,1.61,1.2,2.12,2.11.51.91.77,1.96.77,3.15s-.26,2.24-.77,3.16-1.22,1.62-2.12,2.12c-.9.5-1.92.75-3.07.75-.81,0-1.54-.14-2.21-.42-.67-.28-1.23-.7-1.68-1.25v1.52h-2.62v-16.32h2.75v6.01c.47-.51,1.02-.9,1.66-1.17.64-.26,1.34-.4,2.1-.4,1.14,0,2.17.25,3.07.75ZM105.58,42.95c.65-.67.98-1.56.98-2.66s-.33-1.99-.98-2.66c-.65-.67-1.49-1.01-2.5-1.01-.66,0-1.25.15-1.78.45-.53.3-.95.73-1.25,1.29-.31.56-.46,1.2-.46,1.94s.15,1.38.46,1.94c.31.56.73.99,1.25,1.29.53.3,1.12.45,1.78.45,1.01,0,1.84-.34,2.5-1.01Z"/>
        <path class="cls-1" d="M119.65,34.28v2.62c-.23-.04-.45-.07-.64-.07-1.07,0-1.91.31-2.51.94-.6.62-.9,1.52-.9,2.69v5.7h-2.75v-11.75h2.62v1.72c.79-1.23,2.19-1.85,4.18-1.85Z"/>
        <path class="cls-1" d="M133.75,41.17h-9.22c.16.87.58,1.55,1.26,2.06.68.51,1.53.76,2.54.76,1.29,0,2.35-.43,3.19-1.28l1.47,1.69c-.53.63-1.2,1.11-2,1.43-.81.32-1.72.48-2.73.48-1.29,0-2.43-.26-3.41-.77-.98-.51-1.74-1.23-2.28-2.14s-.8-1.95-.8-3.11.26-2.17.78-3.09,1.24-1.63,2.17-2.15c.92-.51,1.96-.77,3.12-.77s2.17.25,3.07.76c.9.51,1.61,1.22,2.11,2.13.51.92.76,1.98.76,3.18,0,.19-.01.46-.04.81ZM125.62,37.26c-.61.52-.98,1.21-1.11,2.08h6.67c-.12-.85-.48-1.54-1.08-2.07-.6-.53-1.35-.79-2.24-.79s-1.62.26-2.23.78Z"/>
        <path class="cls-1" d="M155.27,41.17h-9.22c.16.87.58,1.55,1.26,2.06.68.51,1.53.76,2.54.76,1.29,0,2.35-.43,3.19-1.28l1.47,1.69c-.53.63-1.2,1.11-2,1.43-.81.32-1.72.48-2.73.48-1.29,0-2.43-.26-3.41-.77-.98-.51-1.74-1.23-2.28-2.14s-.8-1.95-.8-3.11.26-2.17.78-3.09,1.24-1.63,2.17-2.15c.92-.51,1.96-.77,3.12-.77s2.17.25,3.07.76c.9.51,1.61,1.22,2.11,2.13.51.92.76,1.98.76,3.18,0,.19-.01.46-.04.81ZM147.14,37.26c-.61.52-.98,1.21-1.11,2.08h6.67c-.12-.85-.48-1.54-1.08-2.07-.6-.53-1.35-.79-2.24-.79s-1.62.26-2.23.78Z"/>
        <path class="cls-1" d="M158.83,29.84h2.75v16.32h-2.75v-16.32Z"/>
        <path class="cls-1" d="M84.24,59.57c.87.86,1.3,2.14,1.3,3.86v6.73h-2.75v-6.38c0-1.03-.23-1.8-.68-2.32-.45-.52-1.11-.78-1.96-.78-.92,0-1.66.3-2.22.91-.56.61-.84,1.48-.84,2.61v5.96h-2.75v-6.38c0-1.03-.23-1.8-.68-2.32-.46-.52-1.11-.78-1.96-.78-.94,0-1.68.3-2.23.9s-.83,1.47-.83,2.62v5.96h-2.75v-11.75h2.62v1.5c.44-.53.99-.93,1.65-1.21s1.39-.42,2.2-.42c.88,0,1.66.17,2.34.5.68.33,1.22.82,1.62,1.46.48-.62,1.11-1.1,1.87-1.44.76-.34,1.61-.52,2.53-.52,1.48,0,2.65.43,3.52,1.29Z"/>
        <path class="cls-1" d="M98.4,59.53c.92.83,1.38,2.08,1.38,3.75v6.89h-2.6v-1.43c-.34.51-.82.91-1.44,1.18-.62.27-1.38.41-2.25.41s-1.65-.15-2.31-.45-1.17-.72-1.53-1.25-.54-1.14-.54-1.82c0-1.06.39-1.9,1.18-2.54.79-.64,2.02-.96,3.71-.96h3.04v-.18c0-.82-.25-1.45-.74-1.89-.49-.44-1.22-.66-2.19-.66-.66,0-1.31.1-1.95.31-.64.21-1.18.49-1.62.86l-1.08-2c.62-.47,1.36-.83,2.22-1.08s1.78-.37,2.75-.37c1.73,0,3.05.41,3.97,1.24ZM95.89,67.84c.54-.31.91-.77,1.13-1.35v-1.36h-2.84c-1.58,0-2.38.52-2.38,1.56,0,.5.2.89.59,1.19.4.29.95.44,1.65.44s1.3-.16,1.84-.47Z"/>
        <path class="cls-1" d="M111.24,69.52c-.32.26-.71.46-1.18.59-.46.13-.95.2-1.46.2-1.29,0-2.29-.34-2.99-1.01-.7-.67-1.06-1.66-1.06-2.95v-5.65h-1.94v-2.2h1.94v-2.68h2.75v2.68h3.15v2.2h-3.15v5.59c0,.57.14,1.01.42,1.31.28.3.68.45,1.21.45.62,0,1.13-.16,1.54-.48l.77,1.96Z"/>
        <path class="cls-1" d="M124.99,65.17h-9.22c.16.87.58,1.55,1.26,2.06.68.51,1.53.76,2.54.76,1.29,0,2.35-.43,3.19-1.28l1.47,1.69c-.53.63-1.2,1.11-2,1.43-.81.32-1.72.48-2.73.48-1.29,0-2.43-.26-3.41-.77-.98-.51-1.74-1.23-2.28-2.14s-.8-1.95-.8-3.11.26-2.17.78-3.09,1.24-1.63,2.17-2.15c.92-.51,1.96-.77,3.12-.77s2.17.25,3.07.76c.9.51,1.61,1.22,2.11,2.13.51.92.76,1.98.76,3.18,0,.19-.01.46-.04.81ZM116.86,61.26c-.61.52-.98,1.21-1.11,2.08h6.67c-.12-.85-.48-1.54-1.08-2.07-.6-.53-1.35-.79-2.24-.79s-1.62.26-2.23.78Z"/>
        <path class="cls-1" d="M135.35,58.28v2.62c-.23-.04-.45-.07-.64-.07-1.07,0-1.91.31-2.51.94-.6.62-.9,1.52-.9,2.69v5.7h-2.75v-11.75h2.62v1.72c.79-1.23,2.19-1.85,4.18-1.85Z"/>
        <path class="cls-1" d="M138.69,56c-.34-.32-.51-.71-.51-1.18s.17-.86.51-1.18c.34-.32.76-.47,1.25-.47s.92.15,1.25.45c.34.3.51.68.51,1.13,0,.48-.17.89-.5,1.22s-.75.5-1.26.5-.92-.16-1.25-.47ZM138.56,58.41h2.75v11.75h-2.75v-11.75Z"/>
        <path class="cls-1" d="M154.26,59.53c.92.83,1.38,2.08,1.38,3.75v6.89h-2.6v-1.43c-.34.51-.82.91-1.44,1.18-.62.27-1.38.41-2.25.41s-1.65-.15-2.31-.45-1.17-.72-1.53-1.25-.54-1.14-.54-1.82c0-1.06.39-1.9,1.18-2.54.79-.64,2.02-.96,3.71-.96h3.04v-.18c0-.82-.25-1.45-.74-1.89-.49-.44-1.22-.66-2.19-.66-.66,0-1.31.1-1.95.31-.64.21-1.18.49-1.62.86l-1.08-2c.62-.47,1.36-.83,2.22-1.08s1.78-.37,2.75-.37c1.73,0,3.05.41,3.97,1.24ZM151.75,67.84c.54-.31.91-.77,1.13-1.35v-1.36h-2.84c-1.58,0-2.38.52-2.38,1.56,0,.5.2.89.59,1.19.4.29.95.44,1.65.44s1.3-.16,1.84-.47Z"/>
        <path class="cls-1" d="M160.03,53.84h2.75v16.32h-2.75v-16.32Z"/>
      </g>
    </g>
  </g>
</svg>