<?xml version="1.0" encoding="UTF-8"?>
<svg id="Capa_2" xmlns="http://www.w3.org/2000/svg" viewBox="0 0 197.08 100">
  <defs>
    <style>
      .cls-1 {
        fill: #f8ac50;
      }

      .cls-2 {
        fill: #771d0e;
      }
    </style>
  </defs>
  <g id="Capa_1-2" data-name="Capa_1">
    <g>
      <path class="cls-2" d="M29.37,0s.03,23.98,0,23.95l-23.98.02v-12.02.13s.01-6.63.01-6.63h13.21v8.25s0,0,0,0h-6.1c-.95-.01-1.71.76-1.71,1.7v1.47c-.01.95.76,1.71,1.7,1.71h11.5v-6.63.13s.01-12.02.01-12.02H0v12.02-.13s0,17.41,0,17.41h29.37s.03,29.9.02,29.89H5.39v-12.02.13s.01-6.63.01-6.63h13.21v8.25s0,0,0,0h-6.1c-.95-.01-1.71.76-1.71,1.7v1.47c-.01.95.76,1.71,1.7,1.71h11.5v-6.63.13s.01-12.02.01-12.02H0v12.02-.13s0,17.41,0,17.41h29.37s.02,26.96.02,29.89H5.39v-12.02.13s.01-6.63.01-6.63h13.21v8.25s0,0,0,0h-6.1c-.95-.01-1.71.76-1.71,1.7v1.47c-.01.95.76,1.71,1.7,1.71h11.5v-6.63.13s.01-12.02.01-12.02H0v12.02-.13s0,17.41,0,17.41l197.08.09V0H29.37Z"/>
      <g>
        <path class="cls-1" d="M60.57,46.16l-.02-10.21-5.06,8.45h-1.28l-5.06-8.32v10.08h-2.73v-15.4h2.35l6.12,10.21,6.01-10.21h2.35l.02,15.4h-2.71Z"/>
        <path class="cls-1" d="M70.12,45.55c-.95-.51-1.7-1.23-2.23-2.14s-.8-1.95-.8-3.11.27-2.19.8-3.1,1.28-1.62,2.23-2.13c.95-.51,2.02-.77,3.21-.77s2.28.26,3.23.77c.95.51,1.7,1.23,2.23,2.13s.8,1.94.8,3.1-.27,2.2-.8,3.11-1.28,1.63-2.23,2.14c-.95.51-2.03.77-3.23.77s-2.26-.26-3.21-.77ZM75.84,42.95c.66-.67.99-1.56.99-2.66s-.33-1.99-.99-2.66c-.66-.67-1.5-1.01-2.51-1.01s-1.84.34-2.5,1.01c-.65.67-.98,1.56-.98,2.66s.33,1.99.98,2.66,1.49,1.01,2.5,1.01,1.85-.34,2.51-1.01ZM74.43,29.79h3.23l-3.83,3.01h-2.38l2.97-3.01Z"/>
        <path class="cls-1" d="M94.63,29.84v16.32h-2.64v-1.52c-.46.56-1.02.98-1.68,1.25-.67.28-1.41.42-2.21.42-1.13,0-2.15-.25-3.05-.75-.9-.5-1.61-1.21-2.12-2.12-.51-.92-.77-1.97-.77-3.16s.26-2.24.77-3.15c.51-.91,1.22-1.61,2.12-2.11.9-.5,1.92-.75,3.05-.75.78,0,1.49.13,2.13.4.65.26,1.2.66,1.65,1.19v-6.03h2.75ZM90.2,43.51c.53-.3.95-.73,1.25-1.29.31-.56.46-1.2.46-1.94s-.15-1.38-.46-1.94c-.31-.56-.73-.99-1.25-1.29-.53-.3-1.12-.45-1.78-.45s-1.25.15-1.78.45c-.53.3-.95.73-1.25,1.29-.31.56-.46,1.2-.46,1.94s.15,1.38.46,1.94c.31.56.73.99,1.25,1.29.53.3,1.12.45,1.78.45s1.25-.15,1.78-.45Z"/>
        <path class="cls-1" d="M110.49,34.41v11.75h-2.62v-1.5c-.44.53-.99.94-1.65,1.22-.66.29-1.37.43-2.13.43-1.57,0-2.81-.44-3.71-1.31-.9-.87-1.35-2.17-1.35-3.88v-6.71h2.75v6.34c0,1.06.24,1.84.71,2.37s1.16.78,2.04.78c.98,0,1.76-.3,2.34-.91.58-.61.87-1.49.87-2.63v-5.94h2.75Z"/>
        <path class="cls-1" d="M114.98,29.84h2.75v16.32h-2.75v-16.32Z"/>
        <path class="cls-1" d="M124.28,45.55c-.95-.51-1.7-1.23-2.23-2.14s-.8-1.95-.8-3.11.27-2.19.8-3.1,1.28-1.62,2.23-2.13c.95-.51,2.02-.77,3.21-.77s2.28.26,3.23.77c.95.51,1.7,1.23,2.23,2.13s.8,1.94.8,3.1-.27,2.2-.8,3.11-1.28,1.63-2.23,2.14c-.95.51-2.03.77-3.23.77s-2.26-.26-3.21-.77ZM130,42.95c.66-.67.99-1.56.99-2.66s-.33-1.99-.99-2.66c-.66-.67-1.5-1.01-2.51-1.01s-1.84.34-2.5,1.01c-.65.67-.98,1.56-.98,2.66s.33,1.99.98,2.66,1.49,1.01,2.5,1.01,1.85-.34,2.51-1.01Z"/>
        <path class="cls-1" d="M138.12,45.94c-.91-.25-1.63-.56-2.18-.95l1.06-2.09c.53.35,1.16.63,1.9.85.74.21,1.47.32,2.19.32,1.64,0,2.46-.43,2.46-1.3,0-.41-.21-.7-.63-.86-.42-.16-1.09-.32-2.01-.46-.97-.15-1.76-.32-2.36-.51-.61-.19-1.14-.52-1.58-1-.45-.48-.67-1.14-.67-1.99,0-1.11.46-2.01,1.4-2.67s2.19-1,3.77-1c.81,0,1.61.09,2.42.27.81.18,1.47.43,1.98.74l-1.06,2.09c-1-.59-2.12-.88-3.37-.88-.81,0-1.42.12-1.84.36s-.63.56-.63.96c0,.44.22.75.67.93.45.18,1.14.36,2.08.52.94.15,1.71.32,2.31.51s1.12.51,1.55.97c.43.46.65,1.1.65,1.94,0,1.1-.48,1.98-1.43,2.64-.95.66-2.25.99-3.89.99-.95,0-1.88-.12-2.79-.37Z"/>
        <path class="cls-1" d="M167.95,29.84v16.32h-2.64v-1.52c-.46.56-1.02.98-1.68,1.25-.67.28-1.41.42-2.21.42-1.13,0-2.15-.25-3.05-.75-.9-.5-1.61-1.21-2.12-2.12-.51-.92-.77-1.97-.77-3.16s.26-2.24.77-3.15c.51-.91,1.22-1.61,2.12-2.11.9-.5,1.92-.75,3.05-.75.78,0,1.49.13,2.13.4.65.26,1.2.66,1.65,1.19v-6.03h2.75ZM163.53,43.51c.53-.3.95-.73,1.25-1.29.31-.56.46-1.2.46-1.94s-.15-1.38-.46-1.94c-.31-.56-.73-.99-1.25-1.29-.53-.3-1.12-.45-1.78-.45s-1.25.15-1.78.45c-.53.3-.95.73-1.25,1.29-.31.56-.46,1.2-.46,1.94s.15,1.38.46,1.94c.31.56.73.99,1.25,1.29.53.3,1.12.45,1.78.45s1.25-.15,1.78-.45Z"/>
        <path class="cls-1" d="M183.44,41.17h-9.22c.16.87.58,1.55,1.26,2.06.68.51,1.53.76,2.54.76,1.29,0,2.35-.43,3.19-1.28l1.47,1.69c-.53.63-1.2,1.11-2,1.43-.81.32-1.72.48-2.73.48-1.29,0-2.43-.26-3.41-.77-.98-.51-1.74-1.23-2.28-2.14s-.8-1.95-.8-3.11.26-2.17.78-3.09,1.24-1.63,2.17-2.15c.92-.51,1.96-.77,3.12-.77s2.17.25,3.07.76c.9.51,1.61,1.22,2.11,2.13.51.92.76,1.98.76,3.18,0,.19-.01.46-.04.81ZM175.31,37.26c-.61.52-.98,1.21-1.11,2.08h6.67c-.12-.85-.48-1.54-1.08-2.07-.6-.53-1.35-.79-2.24-.79s-1.62.26-2.23.78Z"/>
        <path class="cls-1" d="M53.68,59.53c.92.83,1.38,2.08,1.38,3.75v6.89h-2.6v-1.43c-.34.51-.82.91-1.44,1.18-.62.27-1.38.41-2.25.41s-1.65-.15-2.31-.45-1.17-.72-1.53-1.25-.54-1.14-.54-1.82c0-1.06.39-1.9,1.18-2.54.79-.64,2.02-.96,3.71-.96h3.04v-.18c0-.82-.25-1.45-.74-1.89-.49-.44-1.22-.66-2.19-.66-.66,0-1.31.1-1.95.31-.64.21-1.18.49-1.62.86l-1.08-2c.62-.47,1.36-.83,2.22-1.08s1.78-.37,2.75-.37c1.73,0,3.05.41,3.97,1.24ZM51.18,67.84c.54-.31.91-.77,1.13-1.35v-1.36h-2.84c-1.58,0-2.38.52-2.38,1.56,0,.5.2.89.59,1.19.4.29.95.44,1.65.44s1.3-.16,1.84-.47Z"/>
        <path class="cls-1" d="M69.04,59.03c.9.5,1.61,1.2,2.12,2.11.51.91.77,1.96.77,3.15s-.26,2.24-.77,3.16-1.22,1.62-2.12,2.12c-.9.5-1.92.75-3.07.75-1.58,0-2.84-.53-3.76-1.58v5.7h-2.75v-16.02h2.62v1.54c.45-.56,1.02-.98,1.68-1.25.67-.28,1.4-.42,2.21-.42,1.14,0,2.17.25,3.07.75ZM68.16,66.95c.65-.67.98-1.56.98-2.66s-.33-1.99-.98-2.66c-.65-.67-1.49-1.01-2.5-1.01-.66,0-1.25.15-1.78.45-.53.3-.95.73-1.25,1.29-.31.56-.46,1.2-.46,1.94s.15,1.38.46,1.94c.31.56.73.99,1.25,1.29.53.3,1.12.45,1.78.45,1.01,0,1.84-.34,2.5-1.01Z"/>
        <path class="cls-1" d="M82.23,58.28v2.62c-.23-.04-.45-.07-.64-.07-1.07,0-1.91.31-2.51.94-.6.62-.9,1.52-.9,2.69v5.7h-2.75v-11.75h2.62v1.72c.79-1.23,2.19-1.85,4.18-1.85Z"/>
        <path class="cls-1" d="M96.33,65.17h-9.22c.16.87.58,1.55,1.26,2.06.68.51,1.53.76,2.54.76,1.29,0,2.35-.43,3.19-1.28l1.47,1.69c-.53.63-1.2,1.11-2,1.43-.81.32-1.72.48-2.73.48-1.29,0-2.43-.26-3.41-.77-.98-.51-1.74-1.23-2.28-2.14s-.8-1.95-.8-3.11.26-2.17.78-3.09,1.24-1.63,2.17-2.15c.92-.51,1.96-.77,3.12-.77s2.17.25,3.07.76c.9.51,1.61,1.22,2.11,2.13.51.92.76,1.98.76,3.18,0,.19-.01.46-.04.81ZM88.2,61.26c-.61.52-.98,1.21-1.11,2.08h6.67c-.12-.85-.48-1.54-1.08-2.07-.6-.53-1.35-.79-2.24-.79s-1.62.26-2.23.78Z"/>
        <path class="cls-1" d="M110.13,59.58c.89.87,1.34,2.15,1.34,3.85v6.73h-2.75v-6.38c0-1.03-.24-1.8-.73-2.32-.48-.52-1.17-.78-2.07-.78-1.01,0-1.81.3-2.4.91-.59.61-.88,1.49-.88,2.63v5.94h-2.75v-11.75h2.62v1.52c.45-.54,1.03-.95,1.72-1.23s1.47-.42,2.33-.42c1.48,0,2.67.43,3.56,1.3Z"/>
        <path class="cls-1" d="M127.46,53.84v16.32h-2.64v-1.52c-.46.56-1.02.98-1.68,1.25-.67.28-1.41.42-2.21.42-1.13,0-2.15-.25-3.05-.75-.9-.5-1.61-1.21-2.12-2.12-.51-.92-.77-1.97-.77-3.16s.26-2.24.77-3.15c.51-.91,1.22-1.61,2.12-2.11.9-.5,1.92-.75,3.05-.75.78,0,1.49.13,2.13.4.65.26,1.2.66,1.65,1.19v-6.03h2.75ZM123.04,67.51c.53-.3.95-.73,1.25-1.29.31-.56.46-1.2.46-1.94s-.15-1.38-.46-1.94c-.31-.56-.73-.99-1.25-1.29-.53-.3-1.12-.45-1.78-.45s-1.25.15-1.78.45c-.53.3-.95.73-1.25,1.29-.31.56-.46,1.2-.46,1.94s.15,1.38.46,1.94c.31.56.73.99,1.25,1.29.53.3,1.12.45,1.78.45s1.25-.15,1.78-.45Z"/>
        <path class="cls-1" d="M132.08,56c-.34-.32-.51-.71-.51-1.18s.17-.86.51-1.18c.34-.32.76-.47,1.25-.47s.92.15,1.25.45c.34.3.51.68.51,1.13,0,.48-.17.89-.5,1.22s-.75.5-1.26.5-.92-.16-1.25-.47ZM131.95,58.41h2.75v11.75h-2.75v-11.75Z"/>
        <path class="cls-1" d="M148.36,67.96v2.2h-10.14v-1.74l6.45-7.81h-6.31v-2.2h9.83v1.74l-6.47,7.81h6.64Z"/>
        <path class="cls-1" d="M160.23,59.53c.92.83,1.38,2.08,1.38,3.75v6.89h-2.6v-1.43c-.34.51-.82.91-1.44,1.18-.62.27-1.38.41-2.25.41s-1.65-.15-2.31-.45-1.17-.72-1.53-1.25-.54-1.14-.54-1.82c0-1.06.39-1.9,1.18-2.54.79-.64,2.02-.96,3.71-.96h3.04v-.18c0-.82-.25-1.45-.74-1.89-.49-.44-1.22-.66-2.19-.66-.66,0-1.31.1-1.95.31-.64.21-1.18.49-1.62.86l-1.08-2c.62-.47,1.36-.83,2.22-1.08s1.78-.37,2.75-.37c1.73,0,3.05.41,3.97,1.24ZM157.72,67.84c.54-.31.91-.77,1.13-1.35v-1.36h-2.84c-1.58,0-2.38.52-2.38,1.56,0,.5.2.89.59,1.19.4.29.95.44,1.65.44s1.3-.16,1.84-.47Z"/>
        <path class="cls-1" d="M162.15,73.9l.79-2.05c.41.31.95.46,1.61.46.51,0,.91-.16,1.18-.47.27-.32.41-.78.41-1.4v-12.03h2.75v11.97c0,1.31-.36,2.33-1.08,3.08-.72.75-1.72,1.12-3.01,1.12-1.16,0-2.04-.23-2.64-.68ZM166.25,56c-.34-.32-.51-.71-.51-1.18s.17-.86.51-1.18c.34-.32.75-.47,1.25-.47s.92.15,1.25.45c.34.3.51.68.51,1.13,0,.48-.17.89-.49,1.22-.33.33-.75.5-1.27.5s-.92-.16-1.25-.47Z"/>
        <path class="cls-1" d="M184.37,65.17h-9.22c.16.87.58,1.55,1.26,2.06.68.51,1.53.76,2.54.76,1.29,0,2.35-.43,3.19-1.28l1.47,1.69c-.53.63-1.2,1.11-2,1.43-.81.32-1.72.48-2.73.48-1.29,0-2.43-.26-3.41-.77-.98-.51-1.74-1.23-2.28-2.14s-.8-1.95-.8-3.11.26-2.17.78-3.09,1.24-1.63,2.17-2.15c.92-.51,1.96-.77,3.12-.77s2.17.25,3.07.76c.9.51,1.61,1.22,2.11,2.13.51.92.76,1.98.76,3.18,0,.19-.01.46-.04.81ZM176.25,61.26c-.61.52-.98,1.21-1.11,2.08h6.67c-.12-.85-.48-1.54-1.08-2.07-.6-.53-1.35-.79-2.24-.79s-1.62.26-2.23.78Z"/>
      </g>
    </g>
  </g>
</svg>