<?xml version="1.0" encoding="UTF-8"?>
<svg id="Capa_2" xmlns="http://www.w3.org/2000/svg" viewBox="0 0 68.73 58.37">
  <defs>
    <style>
      .cls-1 {
        fill: #fff;
      }
    </style>
  </defs>
  <g id="Capa_1-2" data-name="Capa_1">
    <g>
      <path class="cls-1" d="M.07,36.41c0,4,3.24,7.25,7.25,7.25h9.42v-18.67h-7.26v11.43h-2.15v-11.43H.07v11.43Z"/>
      <path class="cls-1" d="M35.39,24.96c0-4-3.24-7.25-7.25-7.25h-9.42v18.67h7.26v-11.43h2.15v11.43h7.26v-11.43Z"/>
      <path class="cls-1" d="M18.72,0v15.05c4.61,0,8.34-3.37,8.34-7.52S23.33,0,18.72,0"/>
      <rect class="cls-1" x="9.45" width="7.3" height="22.94"/>
      <path class="cls-1" d="M19.87,38.49v3.15c0,.57.04,1.27,1.12,1.27.18,0,.72,0,1-.45.11-.16.16-.36.16-.88v-3.09h1.08v3.23c0,1.54-1.22,2.03-2.27,2.03-.52,0-1.46-.11-1.95-.89-.25-.39-.26-.79-.26-1.27v-3.09h1.11Z"/>
      <polygon class="cls-1" points="24.48 38.47 26.08 38.47 28.02 42.55 28.02 38.47 29.05 38.47 29.05 43.65 27.53 43.65 25.52 39.35 25.52 43.65 24.48 43.65 24.48 38.47"/>
      <rect class="cls-1" x="30.1" y="38.46" width="1.11" height="5.19"/>
      <polygon class="cls-1" points="33.11 38.49 34.46 42.55 35.82 38.49 36.92 38.49 35.01 43.65 33.8 43.65 31.9 38.49 33.11 38.49"/>
      <polygon class="cls-1" points="37.65 38.47 41.12 38.47 41.12 39.32 38.76 39.32 38.76 40.55 40.97 40.55 40.97 41.39 38.76 41.39 38.76 42.79 41.2 42.79 41.2 43.65 37.65 43.65 37.65 38.47"/>
      <path class="cls-1" d="M42.07,38.47h1.98c.57,0,1.15,0,1.57.35.32.28.45.66.45,1,0,.97-.83,1.2-1.08,1.27.78.07.84.52.93,1.19.08.61.12.86.16,1,.06.23.1.29.16.37h-1.22c-.05-.29-.21-1.6-.28-1.8-.1-.29-.37-.29-.56-.29h-.97v2.09h-1.13v-5.18ZM43.17,40.74h.9c.13,0,.39,0,.57-.14.08-.06.29-.24.29-.6s-.17-.52-.27-.58c-.17-.12-.38-.12-.73-.12h-.74v1.45Z"/>
      <path class="cls-1" d="M47.87,42c0,.24-.01.98.94.98.6,0,.98-.29.98-.72,0-.46-.32-.54-.98-.69-1.23-.31-1.9-.67-1.9-1.57s.61-1.6,2.05-1.6c.54,0,1.17.12,1.56.61.29.37.29.79.29.96h-1.07c-.01-.18-.07-.79-.84-.79-.52,0-.85.28-.85.7,0,.48.38.57,1.12.75.89.21,1.78.46,1.78,1.47,0,.93-.77,1.68-2.21,1.68-1.98,0-2-1.27-2.01-1.78h1.13Z"/>
      <rect class="cls-1" x="51.84" y="38.46" width="1.11" height="5.19"/>
      <path class="cls-1" d="M54.01,38.49h1.71c.29,0,1.16.01,1.78.47.65.48.88,1.3.88,2.03,0,1.59-.85,2.42-1.83,2.6-.19.04-.41.06-.93.06h-1.61v-5.16ZM55.14,42.8c.12,0,.31.01.44.01.47,0,.88-.04,1.2-.36.44-.44.47-1.21.47-1.46,0-.73-.25-1.4-.95-1.6-.23-.06-.52-.1-1.16-.07v3.47Z"/>
      <path class="cls-1" d="M61.8,38.47l1.8,5.18h-1.12l-.37-1.12h-2.05l-.39,1.12h-1.06l1.87-5.18h1.32ZM61.83,41.7l-.72-2.21-.77,2.21h1.48Z"/>
      <path class="cls-1" d="M64.35,38.49h1.71c.29,0,1.16.01,1.78.47.65.48.88,1.3.88,2.03,0,1.59-.85,2.42-1.83,2.6-.19.04-.41.06-.93.06h-1.61v-5.16ZM65.48,42.8c.12,0,.31.01.44.01.47,0,.88-.04,1.2-.36.44-.44.47-1.21.47-1.46,0-.73-.25-1.4-.95-1.6-.23-.06-.52-.1-1.16-.07v3.47Z"/>
      <path class="cls-1" d="M0,45.86h1.6c.74,0,1.37.05,1.8.57.27.33.32.7.32.97,0,.6-.25,1.11-.66,1.37-.38.24-.9.24-1.17.24h-.75v2.01H0v-5.16ZM1.1,48.19h.44c.36,0,1.02,0,1.02-.79,0-.7-.59-.7-.91-.7h-.56v1.49Z"/>
      <polygon class="cls-1" points="4.58 45.84 8.05 45.84 8.05 46.69 5.69 46.69 5.69 47.92 7.9 47.92 7.9 48.77 5.69 48.77 5.69 50.16 8.13 50.16 8.13 51.02 4.58 51.02 4.58 45.84"/>
      <path class="cls-1" d="M9.04,45.86h1.71c.29,0,1.16.01,1.78.47.65.48.88,1.3.88,2.03,0,1.59-.85,2.42-1.83,2.6-.19.04-.41.06-.93.06h-1.61v-5.16ZM10.16,50.17c.12,0,.31.01.44.01.47,0,.88-.04,1.2-.36.44-.44.47-1.21.47-1.46,0-.73-.25-1.4-.95-1.6-.23-.06-.52-.1-1.16-.07v3.47Z"/>
      <path class="cls-1" d="M16.82,45.84l1.8,5.18h-1.12l-.37-1.12h-2.05l-.39,1.12h-1.06l1.87-5.18h1.32ZM16.85,49.07l-.72-2.21-.77,2.21h1.48Z"/>
      <path class="cls-1" d="M22.74,47.43c0-.14-.01-.32-.14-.52-.21-.34-.62-.4-.87-.4-1.26,0-1.51,1.17-1.51,1.97,0,.35.05.98.43,1.39.26.29.6.44,1.22.44.54,0,.72-.06.84-.1v-1.09h-1v-.86h2.11v2.59c-.32.11-.85.29-1.89.29-1.18,0-1.79-.29-2.2-.69-.58-.57-.69-1.39-.69-1.93,0-1.83,1.15-2.81,2.71-2.81.67,0,1.35.19,1.76.65.34.39.36.8.37,1.08h-1.15Z"/>
      <path class="cls-1" d="M27.27,45.74c.55,0,1.31.13,1.82.7.55.63.66,1.44.66,1.95,0,.75-.23,1.55-.65,2.03-.57.64-1.41.74-1.84.74-.68,0-1.36-.21-1.83-.71-.57-.6-.64-1.46-.64-1.93,0-1.38.62-2.77,2.48-2.77M26.34,49.92c.16.21.42.42.94.42.45,0,.76-.16.97-.48.17-.26.35-.66.35-1.48,0-.25-.02-.61-.13-.92-.21-.64-.65-.92-1.18-.92-.42,0-.74.17-.95.44-.29.36-.38.92-.38,1.5,0,.49.08,1.05.39,1.45M27.37,45.49h-.57l.59-1.04h.96l-.98,1.04Z"/>
      <path class="cls-1" d="M34.17,47.43c0-.14-.01-.32-.14-.52-.21-.34-.62-.4-.87-.4-1.26,0-1.51,1.17-1.51,1.97,0,.35.05.98.43,1.39.26.29.6.44,1.22.44.54,0,.72-.06.84-.1v-1.09h-1v-.86h2.11v2.59c-.32.11-.85.29-1.89.29-1.18,0-1.79-.29-2.2-.69-.58-.57-.69-1.39-.69-1.93,0-1.83,1.15-2.81,2.71-2.81.67,0,1.35.19,1.76.65.34.39.36.8.37,1.08h-1.15Z"/>
      <rect class="cls-1" x="36.35" y="45.83" width="1.11" height="5.19"/>
      <path class="cls-1" d="M41.46,47.53c-.02-.18-.09-.91-.84-.91-.82,0-1.17.86-1.17,1.93,0,.31,0,1.78,1.08,1.78.47,0,.91-.29.93-.98h1.17c-.02.31-.05.79-.47,1.22-.46.47-1.04.58-1.51.58-1.78,0-2.36-1.32-2.36-2.6,0-1.64.92-2.73,2.37-2.73,1.13,0,1.93.69,1.93,1.72h-1.13Z"/>
      <path class="cls-1" d="M46.2,45.84l1.8,5.18h-1.12l-.37-1.12h-2.05l-.39,1.12h-1.06l1.87-5.18h1.32ZM46.22,49.07l-.72-2.21-.77,2.21h1.48Z"/>
      <polygon class="cls-1" points="18.76 53.06 20.37 53.06 22.31 57.14 22.31 53.06 23.34 53.06 23.34 58.24 21.81 58.24 19.81 53.95 19.81 58.24 18.76 58.24 18.76 53.06"/>
      <path class="cls-1" d="M27.18,53.06l1.8,5.18h-1.12l-.37-1.12h-2.05l-.39,1.12h-1.06l1.87-5.18h1.32ZM27.21,56.29l-.72-2.21-.77,2.21h1.48Z"/>
      <path class="cls-1" d="M32.54,54.75c-.02-.18-.09-.91-.84-.91-.82,0-1.17.86-1.17,1.93,0,.31,0,1.78,1.08,1.78.47,0,.91-.29.93-.98h1.17c-.02.31-.05.79-.47,1.22-.46.47-1.04.58-1.51.58-1.78,0-2.36-1.32-2.36-2.6,0-1.64.92-2.73,2.37-2.73,1.13,0,1.93.69,1.93,1.72h-1.13Z"/>
      <rect class="cls-1" x="34.48" y="53.05" width="1.11" height="5.19"/>
      <path class="cls-1" d="M38.97,52.96c.55,0,1.31.13,1.82.7.55.63.66,1.44.66,1.95,0,.75-.23,1.55-.65,2.03-.57.64-1.41.74-1.84.74-.68,0-1.36-.22-1.83-.71-.57-.6-.64-1.46-.64-1.93,0-1.38.62-2.77,2.48-2.77M38.04,57.14c.16.21.42.42.94.42.45,0,.76-.16.97-.48.17-.26.35-.66.35-1.48,0-.25-.02-.61-.13-.92-.21-.64-.65-.92-1.18-.92-.42,0-.75.17-.95.44-.29.36-.38.92-.38,1.5,0,.49.08,1.05.39,1.45"/>
      <polygon class="cls-1" points="42.42 53.06 44.02 53.06 45.96 57.14 45.96 53.06 47 53.06 47 58.24 45.47 58.24 43.46 53.95 43.46 58.24 42.42 58.24 42.42 53.06"/>
      <path class="cls-1" d="M50.84,53.06l1.8,5.18h-1.12l-.37-1.12h-2.05l-.39,1.12h-1.06l1.87-5.18h1.32ZM50.87,56.29l-.72-2.21-.77,2.21h1.48Z"/>
      <polygon class="cls-1" points="53.43 53.07 54.56 53.07 54.56 57.36 56.78 57.36 56.78 58.24 53.43 58.24 53.43 53.07"/>
    </g>
  </g>
</svg>