<?xml version="1.0" encoding="UTF-8"?>
<svg id="Capa_2" xmlns="http://www.w3.org/2000/svg" viewBox="0 0 199.77 102.25">
  <defs>
    <style>
      .cls-1 {
        fill: #61c1ca;
      }

      .cls-2 {
        fill: #fff;
      }
    </style>
  </defs>
  <g id="Capa_1-2" data-name="Capa_1">
    <g>
      <g>
        <rect class="cls-1" y="25.27" width="199.77" height="51.68" rx="13.07" ry="13.07"/>
        <path class="cls-1" d="M99.89,37.74c-10.4,0-18.87-8.46-18.87-18.87S89.48,0,99.89,0s18.87,8.46,18.87,18.87-8.46,18.87-18.87,18.87ZM99.89,12.39c-3.57,0-6.48,2.91-6.48,6.48s2.91,6.48,6.48,6.48,6.48-2.91,6.48-6.48-2.91-6.48-6.48-6.48Z"/>
        <path class="cls-1" d="M99.89,102.25c-10.4,0-18.87-8.46-18.87-18.87s8.46-18.87,18.87-18.87,18.87,8.46,18.87,18.87-8.46,18.87-18.87,18.87ZM99.89,76.9c-3.57,0-6.48,2.91-6.48,6.48s2.91,6.48,6.48,6.48,6.48-2.91,6.48-6.48-2.91-6.48-6.48-6.48Z"/>
      </g>
      <g>
        <path class="cls-2" d="M41.76,58.19c-1.21-.65-2.16-1.55-2.86-2.71s-1.04-2.46-1.04-3.92.35-2.76,1.04-3.92,1.64-2.06,2.86-2.71c1.21-.65,2.57-.98,4.08-.98,1.27,0,2.43.22,3.46.67,1.03.45,1.89,1.09,2.59,1.93l-2.18,2.02c-.99-1.15-2.23-1.72-3.7-1.72-.91,0-1.72.2-2.44.6-.71.4-1.27.96-1.67,1.67-.4.71-.6,1.53-.6,2.44s.2,1.72.6,2.44c.4.71.96,1.27,1.67,1.67.71.4,1.53.6,2.44.6,1.47,0,2.7-.58,3.7-1.74l2.18,2.02c-.7.85-1.57,1.5-2.6,1.95s-2.19.67-3.46.67c-1.5,0-2.85-.33-4.06-.98Z"/>
        <path class="cls-2" d="M65.05,48.71c.86.84,1.29,2.09,1.29,3.74v6.47h-3.28v-5.96c0-.9-.2-1.56-.59-2.01-.39-.44-.96-.66-1.7-.66-.83,0-1.48.26-1.97.77-.49.51-.74,1.27-.74,2.28v5.59h-3.28v-15.58h3.28v5.46c.43-.43.96-.77,1.58-1,.62-.23,1.29-.35,2.02-.35,1.4,0,2.53.42,3.39,1.26Z"/>
        <path class="cls-2" d="M78.73,48.7c.94.83,1.41,2.09,1.41,3.77v6.45h-3.07v-1.41c-.62,1.05-1.76,1.58-3.44,1.58-.87,0-1.62-.15-2.26-.44-.64-.29-1.12-.7-1.46-1.22-.34-.52-.5-1.11-.5-1.76,0-1.05.4-1.88,1.19-2.48.79-.6,2.01-.9,3.66-.9h2.6c0-.71-.22-1.26-.65-1.65-.43-.38-1.08-.58-1.95-.58-.6,0-1.19.09-1.77.28-.58.19-1.07.44-1.48.77l-1.18-2.29c.62-.43,1.35-.77,2.21-1.01.86-.24,1.75-.36,2.66-.36,1.75,0,3.09.42,4.03,1.25ZM75.94,56.49c.43-.26.74-.64.92-1.14v-1.15h-2.25c-1.34,0-2.02.44-2.02,1.32,0,.42.17.75.49,1,.33.25.78.37,1.35.37s1.06-.13,1.49-.39Z"/>
        <path class="cls-2" d="M94.2,48.71c.86.84,1.29,2.09,1.29,3.74v6.47h-3.28v-5.96c0-.9-.2-1.56-.59-2.01-.39-.44-.96-.66-1.7-.66-.83,0-1.48.26-1.97.77-.49.51-.74,1.27-.74,2.28v5.59h-3.28v-11.3h3.13v1.32c.43-.48.97-.84,1.62-1.1s1.35-.39,2.12-.39c1.4,0,2.53.42,3.39,1.26Z"/>
        <path class="cls-2" d="M110.42,54.19h-8.55c.15.7.52,1.25,1.09,1.66.57.41,1.29.61,2.14.61.59,0,1.11-.09,1.56-.26.46-.17.88-.45,1.27-.83l1.74,1.89c-1.06,1.22-2.62,1.83-4.66,1.83-1.27,0-2.4-.25-3.38-.75-.98-.5-1.74-1.19-2.27-2.07-.53-.88-.8-1.88-.8-3s.26-2.1.79-2.99c.52-.89,1.25-1.58,2.16-2.08.92-.5,1.94-.75,3.08-.75s2.11.24,3,.71c.9.48,1.6,1.16,2.11,2.05.51.89.77,1.92.77,3.1,0,.04-.02.34-.06.88ZM102.75,50.56c-.5.42-.81.99-.92,1.72h5.57c-.11-.71-.42-1.28-.92-1.71-.5-.43-1.12-.64-1.85-.64s-1.36.21-1.87.63Z"/>
        <path class="cls-2" d="M124.89,47.62v11.3h-3.11v-1.34c-.43.49-.95.86-1.55,1.12-.6.26-1.25.39-1.95.39-1.48,0-2.66-.43-3.53-1.28-.87-.85-1.3-2.12-1.3-3.8v-6.38h3.28v5.9c0,1.82.76,2.73,2.29,2.73.78,0,1.41-.25,1.89-.77.48-.51.71-1.27.71-2.28v-5.59h3.28Z"/>
        <path class="cls-2" d="M137.36,48.7c.94.83,1.41,2.09,1.41,3.77v6.45h-3.07v-1.41c-.62,1.05-1.76,1.58-3.44,1.58-.87,0-1.62-.15-2.26-.44-.64-.29-1.12-.7-1.46-1.22-.34-.52-.5-1.11-.5-1.76,0-1.05.4-1.88,1.19-2.48.79-.6,2.01-.9,3.66-.9h2.6c0-.71-.22-1.26-.65-1.65-.43-.38-1.08-.58-1.95-.58-.6,0-1.19.09-1.77.28-.58.19-1.07.44-1.48.77l-1.18-2.29c.62-.43,1.35-.77,2.21-1.01.86-.24,1.75-.36,2.66-.36,1.75,0,3.09.42,4.03,1.25ZM134.57,56.49c.43-.26.74-.64.92-1.14v-1.15h-2.25c-1.34,0-2.02.44-2.02,1.32,0,.42.17.75.49,1,.33.25.78.37,1.35.37s1.06-.13,1.49-.39Z"/>
        <path class="cls-2" d="M152.83,48.71c.86.84,1.29,2.09,1.29,3.74v6.47h-3.28v-5.96c0-.9-.2-1.56-.59-2.01-.39-.44-.96-.66-1.7-.66-.83,0-1.48.26-1.97.77-.49.51-.74,1.27-.74,2.28v5.59h-3.28v-11.3h3.13v1.32c.43-.48.97-.84,1.62-1.1s1.35-.39,2.12-.39c1.4,0,2.53.42,3.39,1.26Z"/>
        <path class="cls-2" d="M158.09,45.52c-.38-.35-.57-.78-.57-1.3s.19-.95.57-1.3.87-.53,1.47-.53,1.09.17,1.47.5c.38.34.57.76.57,1.26,0,.55-.19,1-.57,1.35-.38.36-.87.54-1.47.54s-1.09-.17-1.47-.53ZM157.92,47.62h3.28v11.3h-3.28v-11.3Z"/>
      </g>
    </g>
  </g>
</svg>