<?xml version="1.0" encoding="UTF-8"?>
<svg id="Capa_2" xmlns="http://www.w3.org/2000/svg" viewBox="0 0 199.77 102.25">
  <defs>
    <style>
      .cls-1 {
        fill: #fff;
      }

      .cls-2 {
        fill: #a5c94f;
      }
    </style>
  </defs>
  <g id="Capa_1-2" data-name="Capa_1">
    <g>
      <g>
        <rect class="cls-2" y="25.27" width="199.77" height="51.68" rx="13.07" ry="13.07"/>
        <path class="cls-2" d="M99.89,37.74c-10.4,0-18.87-8.46-18.87-18.87S89.48,0,99.89,0s18.87,8.46,18.87,18.87-8.46,18.87-18.87,18.87ZM99.89,12.39c-3.57,0-6.48,2.91-6.48,6.48s2.91,6.48,6.48,6.48,6.48-2.91,6.48-6.48-2.91-6.48-6.48-6.48Z"/>
        <path class="cls-2" d="M99.89,102.25c-10.4,0-18.87-8.46-18.87-18.87s8.46-18.87,18.87-18.87,18.87,8.46,18.87,18.87-8.46,18.87-18.87,18.87ZM99.89,76.9c-3.57,0-6.48,2.91-6.48,6.48s2.91,6.48,6.48,6.48,6.48-2.91,6.48-6.48-2.91-6.48-6.48-6.48Z"/>
      </g>
      <g>
        <path class="cls-1" d="M66.03,58.92l-3.55-5.1-3.49,5.1h-3.91l5.44-7.48-5.17-7.22h3.86l3.38,4.77,3.32-4.77h3.67l-5.12,7.1,5.48,7.6h-3.93Z"/>
        <path class="cls-1" d="M80.58,48.7c.94.83,1.41,2.09,1.41,3.77v6.45h-3.07v-1.41c-.62,1.05-1.76,1.58-3.44,1.58-.87,0-1.62-.15-2.26-.44-.64-.29-1.12-.7-1.46-1.22-.34-.52-.5-1.11-.5-1.76,0-1.05.4-1.88,1.19-2.48.79-.6,2.01-.9,3.66-.9h2.6c0-.71-.22-1.26-.65-1.65-.43-.38-1.08-.58-1.95-.58-.6,0-1.19.09-1.77.28-.58.19-1.07.44-1.48.77l-1.18-2.29c.62-.43,1.35-.77,2.21-1.01.86-.24,1.75-.36,2.66-.36,1.75,0,3.09.42,4.03,1.25ZM77.78,56.49c.43-.26.74-.64.92-1.14v-1.15h-2.25c-1.34,0-2.02.44-2.02,1.32,0,.42.17.75.49,1,.33.25.78.37,1.35.37s1.06-.13,1.49-.39Z"/>
        <path class="cls-1" d="M96.04,48.71c.86.84,1.29,2.09,1.29,3.74v6.47h-3.28v-5.96c0-.9-.2-1.56-.59-2.01-.39-.44-.96-.66-1.7-.66-.83,0-1.48.26-1.97.77-.49.51-.74,1.27-.74,2.28v5.59h-3.28v-11.3h3.13v1.32c.43-.48.97-.84,1.62-1.1s1.35-.39,2.12-.39c1.4,0,2.53.42,3.39,1.26Z"/>
        <path class="cls-1" d="M108.42,58.37c-.32.24-.72.42-1.19.54-.47.12-.96.18-1.48.18-1.34,0-2.38-.34-3.12-1.03-.74-.69-1.1-1.69-1.1-3.02v-4.64h-1.74v-2.52h1.74v-2.75h3.28v2.75h2.81v2.52h-2.81v4.6c0,.48.12.84.37,1.1.24.26.59.39,1.04.39.52,0,.96-.14,1.32-.42l.88,2.31Z"/>
        <path class="cls-1" d="M112.93,58.34c-.95-.5-1.68-1.19-2.22-2.07-.53-.88-.8-1.88-.8-3s.27-2.12.8-3c.53-.88,1.27-1.57,2.22-2.07.95-.5,2.01-.75,3.2-.75s2.25.25,3.19.75c.94.5,1.67,1.19,2.21,2.07.53.88.8,1.88.8,3s-.27,2.12-.8,3c-.53.88-1.27,1.57-2.21,2.07-.94.5-2,.75-3.19.75s-2.26-.25-3.2-.75ZM118.2,55.55c.54-.57.81-1.33.81-2.28s-.27-1.71-.81-2.28c-.54-.57-1.23-.85-2.07-.85s-1.53.28-2.08.85c-.55.57-.82,1.33-.82,2.28s.27,1.71.82,2.28c.55.57,1.24.85,2.08.85s1.53-.28,2.07-.85Z"/>
        <path class="cls-1" d="M125.35,43.34h3.28v15.58h-3.28v-15.58Z"/>
        <path class="cls-1" d="M134.69,58.34c-.95-.5-1.68-1.19-2.22-2.07-.53-.88-.8-1.88-.8-3s.27-2.12.8-3c.53-.88,1.27-1.57,2.22-2.07.95-.5,2.01-.75,3.2-.75s2.25.25,3.19.75c.94.5,1.67,1.19,2.21,2.07.53.88.8,1.88.8,3s-.27,2.12-.8,3c-.53.88-1.27,1.57-2.21,2.07-.94.5-2,.75-3.19.75s-2.26-.25-3.2-.75ZM139.96,55.55c.54-.57.81-1.33.81-2.28s-.27-1.71-.81-2.28c-.54-.57-1.23-.85-2.07-.85s-1.53.28-2.08.85c-.55.57-.82,1.33-.82,2.28s.27,1.71.82,2.28c.55.57,1.24.85,2.08.85s1.53-.28,2.07-.85Z"/>
      </g>
    </g>
  </g>
</svg>