<?xml version="1.0" encoding="UTF-8"?>
<svg id="Capa_2" xmlns="http://www.w3.org/2000/svg" viewBox="0 0 197.2 100">
  <defs>
    <style>
      .cls-1 {
        fill: #f8ac50;
      }

      .cls-2 {
        fill: #771d0e;
      }
    </style>
  </defs>
  <g id="Capa_1-2" data-name="Capa_1">
    <g>
      <g>
        <rect class="cls-1" x="30.34" width="166.87" height="100" rx="2.98" ry="2.98"/>
        <g>
          <path class="cls-1" d="M33.46,40.79H7.25v-10.69h0v-5.53h11.01v6.14h-5c-1.48-.01-2.68,1.18-2.68,2.65v1.44c-.01,1.48,1.18,2.67,2.65,2.67h12.27v-7.36h0v-12.78s0,0,0,0H.01s0,0,0,0v12.65h0v18.07h34.99v-7.75l-1.31.46c-.09.03-.16.04-.23.04Z"/>
          <path class="cls-1" d="M33.46,59.21H7.25v10.69h0v5.53h11.01v-6.14h-5c-1.48.01-2.68-1.18-2.68-2.65v-1.44c-.01-1.48,1.18-2.67,2.65-2.67h12.27v7.36h0v12.79H0s0,0,0,0v-12.65h0v-18.07h34.99v7.75l-1.31-.46c-.09-.03-.16-.04-.23-.04Z"/>
        </g>
      </g>
      <g>
        <path class="cls-2" d="M80.2,56.69v3.7h-17.14v-2.94l10.75-12.96h-10.53v-3.7h16.49v2.94l-10.72,12.96h11.14Z"/>
        <path class="cls-2" d="M86.63,59.62c-1.26-.66-2.25-1.58-2.95-2.76-.71-1.18-1.06-2.51-1.06-4s.35-2.83,1.06-4c.71-1.18,1.69-2.09,2.95-2.76,1.26-.66,2.68-.99,4.27-.99s3.01.33,4.26.99c1.25.66,2.23,1.58,2.94,2.76.71,1.18,1.06,2.51,1.06,4s-.36,2.83-1.06,4c-.71,1.18-1.69,2.1-2.94,2.76-1.25.66-2.67.99-4.26.99s-3.01-.33-4.27-.99ZM93.66,55.89c.72-.76,1.08-1.77,1.08-3.04s-.36-2.28-1.08-3.04c-.72-.76-1.64-1.13-2.76-1.13s-2.04.38-2.77,1.13c-.73.76-1.09,1.77-1.09,3.04s.36,2.28,1.09,3.04c.73.76,1.65,1.13,2.77,1.13s2.04-.38,2.76-1.13Z"/>
        <path class="cls-2" d="M116.87,46.78c1.15,1.12,1.72,2.78,1.72,4.98v8.62h-4.37v-7.95c0-1.19-.26-2.09-.78-2.67s-1.28-.88-2.27-.88c-1.1,0-1.98.34-2.63,1.02-.65.68-.98,1.69-.98,3.04v7.45h-4.37v-15.06h4.17v1.76c.58-.63,1.3-1.12,2.16-1.47.86-.35,1.8-.52,2.83-.52,1.87,0,3.37.56,4.52,1.68Z"/>
        <path class="cls-2" d="M135.11,46.77c1.25,1.11,1.88,2.79,1.88,5.03v8.6h-4.09v-1.88c-.82,1.4-2.35,2.1-4.59,2.1-1.16,0-2.16-.2-3.01-.59-.85-.39-1.5-.93-1.95-1.62-.45-.69-.67-1.47-.67-2.35,0-1.4.53-2.5,1.58-3.3s2.68-1.2,4.89-1.2h3.47c0-.95-.29-1.68-.87-2.2-.58-.51-1.45-.77-2.6-.77-.8,0-1.59.13-2.37.38-.77.25-1.43.59-1.97,1.02l-1.57-3.05c.82-.58,1.81-1.03,2.95-1.34,1.15-.32,2.33-.48,3.54-.48,2.33,0,4.12.56,5.38,1.67ZM131.39,57.15c.58-.34.99-.85,1.23-1.53v-1.54h-3c-1.79,0-2.69.59-2.69,1.76,0,.56.22,1,.66,1.33.44.33,1.04.49,1.81.49s1.41-.17,1.99-.52Z"/>
        <path class="cls-2" d="M164.82,56.69v3.7h-14.81v-2.94l7.56-7.14c.8-.76,1.34-1.42,1.62-1.97.28-.55.42-1.1.42-1.64,0-.78-.27-1.39-.8-1.81-.53-.42-1.31-.63-2.34-.63-.86,0-1.63.16-2.32.49-.69.33-1.27.82-1.74,1.47l-3.3-2.13c.76-1.14,1.82-2.03,3.16-2.67,1.34-.64,2.88-.97,4.62-.97,1.46,0,2.73.24,3.82.71,1.09.48,1.94,1.15,2.55,2.02s.91,1.89.91,3.07c0,1.06-.22,2.06-.67,3s-1.32,2-2.6,3.19l-4.51,4.26h8.43Z"/>
      </g>
    </g>
  </g>
</svg>