<?xml version="1.0" encoding="UTF-8"?>
<svg id="Capa_2" xmlns="http://www.w3.org/2000/svg" viewBox="0 0 122.32 122.32">
  <defs>
    <style>
      .cls-1bzn {
        fill: #630a11;
      }

      .cls-2bzn {
        fill: #fcad4e;
      }
    </style>
  </defs>
  <g id="Capa_1-2" data-name="Capa_1">
    <rect class="cls-1bzn" width="122.32" height="122.32" rx="22.09" ry="22.09"/>
    <path class="cls-2bzn" d="M92.23,54.02v-31.63h-56.11l-20.89,13.27v61.56h57.69s16.17-10.24,16.17-10.24c.72.68,1.47,1.37,2.25,2.1l1.32,1.23,20.24-21.19-20.67-15.1ZM85.44,26.4l-14.48,9.27H22.64l14.55-9.27h48.26ZM72.92,64.38v-25.29l15.53-9.95v25.29l-15.53,9.95ZM72.92,71.51c2.31,2.41,6.33,6.27,13.2,12.7l-13.2,8.36v-21.05ZM90.63,57.72l16.37,11.96-14.49,15.17c-7.17-6.7-14.7-13.88-17.71-17l15.83-10.13ZM69.15,39.67v53.56H19.01v-53.56h50.14Z"/>
  </g>
</svg>