<?xml version="1.0" encoding="UTF-8"?>
<svg id="Capa_1" xmlns="http://www.w3.org/2000/svg" viewBox="0 0 206.1 150.87">
  <defs>
    <style>
      .cls-1apoyo {
        fill: #771e10;
      }
    </style>
  </defs>
  <rect class="cls-1apoyo" x="0" y="125.87" width="206.1" height="25" rx="12.5" ry="12.5"/>
  <g>
    <path class="cls-1apoyo" d="M77.94,61.86l66.76-35.52c-3.48-1.33-7.47-1.85-11.54-1.5-4.4.38-8.9,1.76-12.98,4.18l-50.15,29.91c.17.09.34.18.52.26,2.52,1.19,5.02,2.05,7.4,2.67Z"/>
    <path class="cls-1apoyo" d="M92.73,63.17s.01,0,.02,0c2.89-.25,4.43-.75,4.74-.9l.09-.05.09-.04,27.12-12.54h0s44.67-20.66,44.67-20.66c3.02-1.53,6.24-2.47,9.6-2.79-4.05-2.14-8.96-3.08-13.97-2.65-3.62.31-7.29,1.33-10.75,3.1-.12.06-.25.12-.38.19l-4.27,2.27h0s-64,34.06-64,34.06c3.08.25,5.56.14,7.04.02Z"/>
    <path class="cls-1apoyo" d="M192.71,33.85c-1.29-.75-6.38-2.5-7.58-2.7-1.15-.19-4.76-.27-5.4-.21-2.77.24-5.54,1-8.17,2.35l-71.87,33.24c-21.97,5.36-37.32-6.73-38.61-7.86-5.05-4.41-6.27-13.78-1.5-18.01,0,0,9.49-6.96,12.33-9.37,9.7-8.25,13.26-21.3,6.29-31.29,0,0-56.95,33.14-68.62,49.1-4.26,5.83-3.8,19.41,6.54,28.06,10.44,8.74,26.79,14.7,39.83,19.87,17.97,7.13,31.91,1.61,56.27-8.81,22.97-9.83,89.05-45.38,89.05-45.38-2.01-3.91-5.02-6.95-8.55-9Z"/>
  </g>
</svg>