<?xml version="1.0" encoding="UTF-8"?>
<svg id="Capa_2" xmlns="http://www.w3.org/2000/svg" viewBox="0 0 394.06 394.05">
  <defs>
    <style>
      .cls-117 {
        fill: #ed008a;
      }
    </style>
  </defs>
  <g id="Capa_1-2" data-name="Capa_1">
    <g>
      <path class="cls-117" d="M394.06,197.03c0-21.67-15.92-39.68-36.68-42.96,7.11-5.74,12.22-13.55,14.63-22.54,3.01-11.23,1.46-22.95-4.35-33.01-7.75-13.42-22.19-21.75-37.69-21.75-5.33,0-10.61.99-15.57,2.89,7.55-19.62-.09-42.42-18.86-53.26-6.61-3.81-14.12-5.83-21.73-5.83-13.21,0-25.65,6.05-33.82,16.13C236.72,15.93,218.7,0,197.03,0s-39.69,15.93-42.96,36.7c-8.18-10.09-20.62-16.13-33.82-16.13-7.6,0-15.12,2.02-21.73,5.83-18.76,10.83-26.4,33.62-18.86,53.26-4.96-1.91-10.24-2.89-15.57-2.89-15.5,0-29.94,8.33-37.69,21.75-5.8,10.05-7.34,21.77-4.34,33,2.41,9,7.51,16.81,14.62,22.55C15.92,157.34,0,175.36,0,197.03s15.93,39.69,36.69,42.96c-16.34,13.22-21.12,36.79-10.29,55.55,7.75,13.42,22.19,21.75,37.69,21.75,5.24,0,10.43-.96,15.3-2.79.05.05.11.11.16.16-7.37,19.56.28,42.21,18.96,52.99,6.6,3.82,14.12,5.83,21.73,5.83,13,0,25.25-5.86,33.43-15.66.16.04.33.09.49.13,3.53,20.47,21.4,36.09,42.86,36.09s39.34-15.62,42.86-36.09c.16-.04.33-.09.49-.13,8.18,9.8,20.43,15.66,33.43,15.66,7.6,0,15.12-2.02,21.73-5.83,18.68-10.79,26.33-33.43,18.96-52.99.05-.06.11-.11.16-.16,4.88,1.84,10.07,2.79,15.3,2.79,15.5,0,29.94-8.33,37.68-21.75,5.81-10.06,7.36-21.79,4.35-33.01-2.41-9-7.51-16.81-14.63-22.55,20.76-3.28,36.68-21.3,36.68-42.96ZM350.56,226.57c-.67,0-1.41-.02-2.23-.07-.04,0-.08,0-.12,0-1.28,0-2.42.93-2.7,2.29-1.05,5.07-2.37,10.14-3.93,15.06-.43,1.34.13,2.76,1.33,3.36.68.35,1.3.68,1.85,1,6.84,3.95,11.73,10.32,13.77,17.94,2.04,7.62,1,15.58-2.95,22.42-5.26,9.11-15.07,14.77-25.6,14.77-5.16,0-10.27-1.37-14.75-3.96-.47-.27-.97-.58-1.5-.92-.46-.3-.98-.44-1.49-.44-.78,0-1.55.34-2.13.98-1.74,1.94-3.53,3.85-5.38,5.71-.61.62-1.25,1.19-1.87,1.8-1.24,1.21-2.48,2.44-3.76,3.6-1.07.97-1.29,2.56-.52,3.78.3.48.57.92.81,1.33,8.14,14.1,3.29,32.21-10.81,40.35-4.49,2.59-9.59,3.96-14.75,3.96-10.53,0-20.35-5.66-25.61-14.78-.21-.37-.44-.77-.67-1.21-.51-.98-1.47-1.54-2.51-1.54-.3,0-.61.05-.92.15-2.5.82-5.04,1.57-7.6,2.26-.81.22-1.63.39-2.44.59-1.72.43-3.45.88-5.18,1.25-1.42.31-2.41,1.57-2.36,3.03.01.45.02.87.02,1.27,0,16.29-13.25,29.54-29.54,29.54s-29.54-13.25-29.54-29.54c0-.39,0-.82.02-1.26.05-1.45-.94-2.72-2.36-3.03-1.65-.35-3.3-.79-4.95-1.2-.89-.22-1.79-.41-2.67-.65-2.55-.69-5.08-1.44-7.58-2.26-.31-.1-.62-.15-.92-.15-1.04,0-1.99.56-2.51,1.54-.24.45-.46.85-.67,1.22-5.26,9.11-15.07,14.77-25.6,14.77-5.16,0-10.27-1.37-14.75-3.96-14.11-8.14-18.96-26.25-10.82-40.36.23-.4.5-.84.8-1.31.78-1.22.55-2.82-.52-3.8-1.25-1.14-2.46-2.34-3.67-3.52-.64-.63-1.31-1.22-1.94-1.86-1.84-1.86-3.65-3.77-5.39-5.72-.58-.65-1.35-.98-2.12-.98-.52,0-1.03.15-1.5.45-.54.35-1.04.65-1.5.92-4.47,2.58-9.57,3.95-14.74,3.95-1.17,0-2.33-.1-3.48-.23-.3-.04-.59-.08-.88-.12-1.07-.16-2.12-.36-3.15-.64-.08-.02-.16-.03-.24-.05-1.1-.3-2.17-.68-3.22-1.1-.27-.11-.54-.22-.8-.34-.93-.4-1.84-.85-2.72-1.34-.12-.07-.25-.13-.37-.19-.97-.57-1.9-1.2-2.81-1.87-.23-.17-.45-.35-.68-.53-.77-.61-1.51-1.25-2.22-1.93-.13-.13-.27-.24-.4-.37-.8-.8-1.54-1.65-2.25-2.55-.17-.22-.34-.45-.51-.68-.58-.78-1.13-1.59-1.63-2.43-.08-.14-.18-.26-.26-.39-.04-.07-.07-.13-.1-.2-.32-.57-.62-1.17-.91-1.77-.13-.27-.28-.54-.41-.82-.23-.52-.42-1.06-.62-1.6-.36-.96-.67-1.92-.93-2.9-.07-.28-.16-.54-.23-.82-.1-.44-.17-.89-.25-1.34-.09-.47-.2-.93-.26-1.42-.01-.08-.01-.15-.02-.22,0-.03,0-.07,0-.1-.12-.92-.18-1.84-.21-2.76,0-.02,0-.04,0-.05-.02-.93,0-1.86.06-2.78,0-.02,0-.05,0-.07.07-.91.17-1.81.32-2.7,0-.04.01-.09.02-.13.15-.88.34-1.75.57-2.61.17-.66.39-1.32.61-1.97.02-.07.04-.14.07-.22,2.25-6.47,6.71-12.2,13.09-15.89.46-.26.97-.53,1.5-.81.07-.03.13-.08.2-.11.05-.03.1-.05.15-.08,1.21-.61,1.76-2.02,1.34-3.37-1.56-4.92-2.89-9.99-3.93-15.06-.28-1.36-1.47-2.29-2.7-2.29-.04,0-.08,0-.12,0-.81.05-1.56.07-2.22.07-16.29,0-29.54-13.25-29.54-29.54s13.25-29.54,29.54-29.54c.78,0,1.67.03,2.66.1.05,0,.09,0,.14,0,1.21,0,2.32-.91,2.62-2.25,1.11-5.04,2.5-10.06,4.11-14.94.43-1.29-.07-2.66-1.15-3.19-.97-.47-1.84-.93-2.58-1.36-14.11-8.15-18.96-26.25-10.82-40.36,5.26-9.11,15.07-14.78,25.61-14.78,5.16,0,10.26,1.37,14.75,3.96.8.46,1.69,1.03,2.68,1.7.45.31.96.46,1.46.46.69,0,1.36-.29,1.88-.85,1.74-1.92,3.55-3.8,5.4-5.64.58-.58,1.2-1.12,1.79-1.69,1.28-1.23,2.55-2.46,3.86-3.64,1.02-.91,1.2-2.44.43-3.57-.2-.3-.38-.58-.57-.86-.11-.16-.23-.34-.33-.5-.28-.44-.54-.87-.77-1.26-8.15-14.12-3.29-32.22,10.81-40.37,4.49-2.59,9.59-3.96,14.75-3.96,10.53,0,20.34,5.66,25.6,14.78.48.82.99,1.81,1.53,2.93.46.97,1.38,1.52,2.39,1.52.29,0,.58-.05.88-.14,2.41-.78,4.86-1.49,7.32-2.15.77-.21,1.55-.37,2.33-.56,1.68-.42,3.36-.85,5.04-1.21,1.42-.3,2.39-1.61,2.28-3.06-.03-.39-.04-.74-.06-1.1,0-.18-.02-.37-.03-.55-.02-.53-.03-1.04-.03-1.5,0-16.29,13.25-29.54,29.54-29.54s29.54,13.25,29.54,29.54c0,.46-.01.96-.03,1.5,0,.17-.02.36-.03.54-.02.36-.03.71-.06,1.1-.11,1.45.86,2.76,2.29,3.07,1.72.37,3.44.81,5.16,1.24.73.18,1.47.33,2.2.53,2.46.66,4.91,1.37,7.32,2.15.3.09.59.14.88.14,1.01,0,1.92-.56,2.38-1.52.54-1.13,1.06-2.12,1.54-2.95,5.25-9.1,15.06-14.76,25.6-14.76,5.16,0,10.26,1.37,14.75,3.96,14.11,8.15,18.96,26.25,10.81,40.36-.23.4-.49.82-.77,1.27-.1.16-.22.33-.32.49-.19.28-.36.56-.57.86-.77,1.13-.59,2.66.43,3.57,1.28,1.15,2.52,2.35,3.76,3.54.63.6,1.27,1.17,1.89,1.78,1.85,1.84,3.65,3.72,5.4,5.63.52.57,1.19.86,1.88.86.5,0,1-.15,1.45-.46.99-.68,1.89-1.25,2.69-1.71,4.49-2.59,9.59-3.96,14.75-3.96,10.53,0,20.34,5.66,25.6,14.78,3.95,6.83,5,14.79,2.95,22.42-2.04,7.62-6.93,13.99-13.76,17.94-.74.43-1.61.88-2.58,1.36-1.09.53-1.58,1.9-1.15,3.19,1.63,4.91,3.01,9.94,4.11,14.94.29,1.32,1.37,2.25,2.58,2.25.06,0,.12,0,.18,0,.98-.07,1.88-.1,2.66-.1,16.29,0,29.54,13.25,29.54,29.54s-13.25,29.54-29.54,29.54Z"/>
      <path class="cls-117" d="M350.56,175.09c-6.93,0-24.14,3.22-37.61,8.23-1.45-11.38-4.57-22.24-9.1-32.33,14.27-2.34,31.05-8.24,37.11-11.74,10.49-6.06,14.08-19.47,8.03-29.96-6.06-10.49-19.47-14.08-29.96-8.03-6.13,3.54-19.86,15.33-29.02,26.63-6.92-8.96-15.12-16.85-24.35-23.43,11.45-9.16,23.54-23.22,27.13-29.43,6.06-10.49,2.46-23.9-8.03-29.96-10.49-6.06-23.9-2.46-29.96,8.03-3.63,6.29-9.85,24.12-12,38.71-10.35-4.27-21.46-7.06-33.08-8.13,5.59-13.76,9.24-32.81,9.24-40.19,0-12.11-9.82-21.93-21.93-21.93s-21.93,9.82-21.93,21.93c0,7.46,3.73,26.84,9.42,40.63-11.64,1.48-22.74,4.69-33.02,9.38-1.89-14.87-8.46-33.88-12.23-40.41-6.06-10.49-19.47-14.08-29.96-8.03-10.49,6.06-14.08,19.47-8.03,29.96,3.8,6.58,17.11,21.92,29.1,30.97-9.26,6.93-17.41,15.23-24.21,24.59-9.02-12.05-24.51-25.5-31.13-29.32-10.49-6.06-23.9-2.46-29.96,8.03-6.06,10.49-2.46,23.9,8.03,29.96,6.62,3.82,26.03,10.51,40.98,12.3-4.6,10.39-7.71,21.59-9.05,33.33-13.84-5.9-33.91-9.79-41.54-9.79-12.11,0-21.93,9.82-21.93,21.93s9.82,21.93,21.93,21.93c7.58,0,27.5-3.85,41.33-9.7,1.14,11.72,4.04,22.92,8.43,33.34-14.83,1.93-33.66,8.44-40.15,12.2-10.49,6.06-14.08,19.47-8.03,29.96,6.06,10.49,19.47,14.08,29.96,8.03,6.44-3.72,21.31-16.58,30.41-28.39,6.63,9.34,14.62,17.64,23.68,24.62-11.66,9.14-24.2,23.66-27.86,30-6.06,10.49-2.46,23.9,8.03,29.96,10.49,6.06,23.9,2.46,29.96-8.03,3.62-6.27,9.82-24.02,11.98-38.59,10.14,4.66,21.07,7.87,32.54,9.4-5.27,13.63-8.68,31.66-8.68,38.79,0,12.11,9.82,21.93,21.93,21.93s21.93-9.82,21.93-21.93c0-7.05-3.33-24.74-8.5-38.31,11.46-1.13,22.41-3.94,32.63-8.19,2.37,14.22,8.23,30.86,11.71,36.89,6.06,10.49,19.47,14.08,29.96,8.03,10.49-6.06,14.08-19.47,8.03-29.96-3.46-5.99-14.81-19.24-25.87-28.4,9.05-6.64,17.1-14.56,23.86-23.52,9.15,11,22.29,22.24,28.25,25.68,10.49,6.06,23.9,2.46,29.96-8.03,6.06-10.49,2.46-23.9-8.03-29.96-5.94-3.43-22.21-9.18-36.29-11.61,4.34-10.12,7.25-21,8.52-32.37,13.44,4.97,30.49,8.15,37.38,8.15,12.11,0,21.93-9.82,21.93-21.93s-9.82-21.93-21.93-21.93ZM197.03,263.24c-36.03,0-65.25-29.21-65.25-65.25s29.21-65.25,65.25-65.25,65.25,29.21,65.25,65.25-29.21,65.25-65.25,65.25Z"/>
    </g>
  </g>
</svg>