<?xml version="1.0" encoding="UTF-8"?>
<svg id="Capa_2" xmlns="http://www.w3.org/2000/svg" viewBox="0 0 256 256">
  <defs>
    <style>
      .cls-1 {
        fill: #fff;
      }

      .cls-2 {
        fill: #56c6cf;
      }
    </style>
  </defs>
  <g id="Capa_1-2" data-name="Capa_1">
    <rect class="cls-2" width="256" height="256" rx="40.32" ry="40.32"/>
    <path class="cls-1" d="M84.87,197.17c-1.01,0-2.02-.38-2.8-1.15-1.58-1.55-1.6-4.08-.05-5.66,8.82-8.98,20.61-13.93,33.19-13.93s24.37,4.95,33.19,13.92c1.55,1.58,1.53,4.11-.05,5.66-1.58,1.55-4.11,1.53-5.66-.05-7.31-7.44-17.07-11.53-27.49-11.53s-20.18,4.1-27.49,11.53c-.78.8-1.82,1.2-2.85,1.2Z"/>
    <g>
      <circle class="cls-1" cx="68.3" cy="95.3" r="18.27"/>
      <circle class="cls-1" cx="187.7" cy="95.3" r="18.27"/>
    </g>
    <path class="cls-1" d="M212.72,102.43c-1.02,0-2.05-.39-2.83-1.17l-28.6-28.6c-1.56-1.56-1.56-4.09,0-5.66,1.56-1.56,4.1-1.56,5.66,0l28.6,28.6c1.56,1.56,1.56,4.09,0,5.66-.78.78-1.8,1.17-2.83,1.17Z"/>
    <path class="cls-1" d="M43.79,102.43c-1.02,0-2.05-.39-2.83-1.17-1.56-1.56-1.56-4.09,0-5.66l28.6-28.6c1.56-1.56,4.1-1.56,5.66,0,1.56,1.56,1.56,4.09,0,5.66l-28.6,28.6c-.78.78-1.8,1.17-2.83,1.17Z"/>
    <path class="cls-1" d="M207.95,11.93s-14.02,34.51,4.67,31.77c18.69-2.75-4.67-31.77-4.67-31.77Z"/>
    <path class="cls-1" d="M226.45,27.91s-1.13,37.23,15.43,28.15c16.56-9.08-15.43-28.15-15.43-28.15Z"/>
    <path class="cls-1" d="M234.93,138.62l-92.41,45.28c-1.74.85-2.54,2.82-2,4.61l3.26,6.53c1.12,1.35,3.05,1.82,4.7,1.02l92.41-45.28c3.36-1.65,4.75-5.7,3.1-9.06-1.65-3.36-5.7-4.75-9.06-3.1ZM157.21,189l-4.57,2.24-2.92-5.97c-.62-1.26-.1-2.78,1.16-3.4h0c1.26-.62,2.78-.1,3.4,1.16l2.92,5.97ZM168.37,183.53l-4.57,2.24-2.92-5.97c-.62-1.26-.1-2.78,1.16-3.4s2.78-.1,3.4,1.16l2.92,5.97ZM179.39,178.13l-4.57,2.24-2.92-5.97c-.62-1.26-.1-2.78,1.16-3.4h0c1.26-.62,2.78-.1,3.4,1.16l2.92,5.97ZM190.54,172.66l-4.57,2.24-2.92-5.97c-.62-1.26-.1-2.78,1.16-3.4s2.78-.1,3.4,1.16l2.92,5.97ZM201.7,167.2l-4.57,2.24-2.92-5.97c-.62-1.26-.1-2.78,1.16-3.4h0c1.26-.62,2.78-.1,3.4,1.16l2.92,5.97ZM212.85,161.73l-4.56,2.24-2.92-5.97c-.62-1.26-.1-2.78,1.16-3.4s2.78-.1,3.4,1.16l2.92,5.97ZM224.01,156.27l-4.57,2.24-2.92-5.97c-.62-1.26-.1-2.78,1.16-3.4h0c1.26-.62,2.78-.1,3.4,1.16l2.92,5.97ZM235.16,150.8l-4.57,2.24-2.92-5.97c-.62-1.26-.1-2.78,1.16-3.4h0c1.26-.62,2.78-.1,3.4,1.16l2.92,5.97Z"/>
  </g>
</svg>