<?xml version="1.0" encoding="UTF-8"?>
<svg id="Capa_2" xmlns="http://www.w3.org/2000/svg" viewBox="0 0 256 256">
  <defs>
    <style>
      .cls-1 {
        fill: #fff;
      }

      .cls-2 {
        fill: #56c6cf;
      }
    </style>
  </defs>
  <g id="Capa_1-2" data-name="Capa_1">
    <rect class="cls-2" width="256" height="256" rx="40.32" ry="40.32"/>
    <g>
      <g>
        <circle class="cls-1" cx="68.3" cy="91.97" r="18.27"/>
        <circle class="cls-1" cx="187.7" cy="91.97" r="18.27"/>
      </g>
      <path class="cls-1" d="M160.84,103.1c-1.02,0-2.05-.39-2.83-1.17-1.56-1.56-1.56-4.09,0-5.66l41.24-41.23c1.56-1.56,4.09-1.56,5.66,0,1.56,1.56,1.56,4.09,0,5.66l-41.24,41.23c-.78.78-1.8,1.17-2.83,1.17Z"/>
      <path class="cls-1" d="M95.66,103.1c-1.02,0-2.05-.39-2.83-1.17l-41.24-41.23c-1.56-1.56-1.56-4.09,0-5.66,1.56-1.56,4.09-1.56,5.66,0l41.24,41.23c1.56,1.56,1.56,4.09,0,5.66-.78.78-1.8,1.17-2.83,1.17Z"/>
    </g>
    <path class="cls-1" d="M161.31,193.63l-65.73-32.87-12.66,18.41c-1.25,1.82-3.74,2.28-5.56,1.03-1.82-1.25-2.28-3.74-1.03-5.56l16.6-24.15,67.28,33.64,29.11-24.26,20.49,26.57c1.35,1.75,1.03,4.26-.72,5.61-1.75,1.35-4.26,1.02-5.61-.72l-15.42-19.99-26.75,22.29Z"/>
  </g>
</svg>