<?xml version="1.0" encoding="UTF-8"?>
<svg id="Capa_2" xmlns="http://www.w3.org/2000/svg" viewBox="0 0 256 256">
  <defs>
    <style>
      .cls-1 {
        fill: #fff;
      }

      .cls-2 {
        fill: #56c6cf;
      }
    </style>
  </defs>
  <g id="Capa_1-2" data-name="Capa_1">
    <rect class="cls-2" width="256" height="256" rx="40.32" ry="40.32"/>
    <g>
      <path class="cls-1" d="M88.06,94.3c-1.04,0-2.07-.4-2.85-1.2-4.71-4.8-11.01-7.44-17.73-7.44s-13.02,2.64-17.73,7.44c-1.55,1.58-4.08,1.6-5.66.05-1.58-1.55-1.6-4.08-.05-5.66,6.23-6.34,14.55-9.83,23.44-9.83s17.21,3.49,23.44,9.83c1.55,1.58,1.53,4.11-.05,5.66-.78.77-1.79,1.15-2.8,1.15Z"/>
      <path class="cls-1" d="M209.11,94.3c-1.04,0-2.07-.4-2.85-1.2-4.71-4.8-11.01-7.44-17.73-7.44s-13.02,2.64-17.73,7.44c-1.55,1.58-4.08,1.6-5.66.05-1.58-1.55-1.6-4.08-.05-5.66,6.23-6.34,14.55-9.83,23.44-9.83s17.21,3.49,23.44,9.83c1.55,1.58,1.53,4.11-.05,5.66-.78.77-1.79,1.15-2.8,1.15Z"/>
    </g>
    <path class="cls-1" d="M56.96,138.83c7.45,39.84,35.9,69.51,69.87,69.51s62.43-29.66,69.87-69.51c-20.04,6.26-44.05,9.92-69.87,9.92s-49.84-3.65-69.87-9.92Z"/>
  </g>
</svg>