<svg width="100%" height="100%" viewBox="-91 0 280 250" xmlns="http://www.w3.org/2000/svg">
    <!-- Primera generacion -->
    <!--Relacion entre generaciones-->
    <!--Notas: Espacio de imagenes alto:32 ancho:20-->
    <path d="M-10.5 45 H20.5" stroke="white" stroke-width="1" stroke-dasharray="2"/>
    <line x1="4.5" y1="45.5" x2="4.5" y2="74.5" stroke="white" stroke-width="1" />
    <!--Espacio para imagen 1-->
    <!--Verticales-->
    <line x1="-11" y1="29" x2="-11" y2="61" stroke="white" stroke-width="1" />
    <line x1="-31" y1="29" x2="-31" y2="61" stroke="white" stroke-width="1" />
    <!--horizontales-->
    <line x1="-31" y1="29.5" x2="-11" y2="29.5" stroke="white" stroke-width="1" />
    <line x1="-31.5" y1="61" x2="-10.5" y2="61" stroke="white" stroke-width="1" />
    <!--*********************************************************************************************-->
    <!--Espacio para imagen 2-->
    <!--Verticales-->
    <line x1="20" y1="29" x2="20" y2="61" stroke="white" stroke-width="1" />
    <line x1="40" y1="29" x2="40" y2="61" stroke="white" stroke-width="1" />
    <!--horizontales-->
    <line x1="20" y1="29.5" x2="40" y2="29.5" stroke="white" stroke-width="1" />
    <line x1="19.5" y1="61" x2="40.5" y2="61" stroke="white" stroke-width="1" />

    <!-- Segunda generacion -->
    <!--Espacio para imagen 1-->
    <!--Verticales-->
    <line x1="14.5" y1="74" x2="14.5" y2="107" stroke="white" stroke-width="1" />
    <line x1="-4.5" y1="74" x2="-4.5" y2="107" stroke="white" stroke-width="1" />
    <!--horizontales-->
    <line x1="-4.5" y1="74.5" x2="14.5" y2="74.5" stroke="white" stroke-width="1" />
    <line x1="-4.5" y1="106.5" x2="14.5" y2="106.5" stroke="white" stroke-width="1" />
    <!--*********************************************************************************************-->
    <!--Relacion entre generaciones-->
    <path d="M15 93 H45" stroke="white" stroke-width="1" stroke-dasharray="2"/>
    <line x1="30" y1="93.5" x2="30" y2="124" stroke="white" stroke-width="1" />
    <!--*********************************************************************************************-->
    <!--Espacio para imagen 2-->
    <!--Verticales-->
    <line x1="45" y1="74" x2="45" y2="107" stroke="white" stroke-width="1" />
    <line x1="65" y1="74" x2="65" y2="107" stroke="white" stroke-width="1" />
    <!--horizontales-->
    <line x1="45" y1="74.5" x2="65" y2="74.5" stroke="white" stroke-width="1" />
    <line x1="45" y1="106.5" x2="65" y2="106.5" stroke="white" stroke-width="1" />


    <!-- Relacion -->
    <line x1="-80" y1="124.5" x2="140" y2="124.5" stroke="white" stroke-width="1" />
    <line x1="30" y1="124.5" x2="30" y2="135" stroke="white" stroke-width="1" />
    <line x1="-79.5" y1="125" x2="-79.5" y2="135" stroke="white" stroke-width="1" />
    <line x1="139.5" y1="124" x2="139.5" y2="135" stroke="white" stroke-width="1" />

    <!-- Tercera generacion -->
    <!--Espacio para imagen 1-->
    <!--Verticales-->
    <line x1="-90" y1="134.5" x2="-90" y2="167.5" stroke="white" stroke-width="1" />
    <line x1="-70" y1="134.5" x2="-70" y2="167.5" stroke="white" stroke-width="1" />
    <!--horizontales-->
    <line x1="-90" y1="135" x2="-70" y2="135" stroke="white" stroke-width="1" />
    <line x1="-90" y1="167" x2="-70" y2="167" stroke="white" stroke-width="1" />
    <!--*********************************************************************************************-->
    <!--Espacio para imagen 2-->
    <!--Verticales-->
    <line x1="-90" y1="134.5" x2="-90" y2="167.5" stroke="white" stroke-width="1" />
    <line x1="-70" y1="134.5" x2="-70" y2="167.5" stroke="white" stroke-width="1" />
    <!--horizontales-->
    <line x1="-90" y1="135" x2="-70" y2="135" stroke="white" stroke-width="1" />
    <line x1="-90" y1="167" x2="-70" y2="167" stroke="white" stroke-width="1" />
    <!--*********************************************************************************************-->
    <!--Espacio para imagen 2-->
    <!--Verticales-->
    <line x1="-40" y1="134.5" x2="-40" y2="167.5" stroke="white" stroke-width="1" />
    <line x1="-20" y1="134.5" x2="-20" y2="167.5" stroke="white" stroke-width="1" />
    <!--horizontales-->
    <line x1="-40" y1="135" x2="-20" y2="135" stroke="white" stroke-width="1" />
    <line x1="-40" y1="167" x2="-20" y2="167" stroke="white" stroke-width="1" />
    <!--*********************************************************************************************-->
    <!--Espacio para imagen 3-->
    <!--Verticales-->
    <line x1="20" y1="134.5" x2="20" y2="167.5" stroke="white" stroke-width="1" />
    <line x1="40" y1="134.5" x2="40" y2="167.5" stroke="white" stroke-width="1" />
    <!--horizontales-->
    <line x1="20" y1="135" x2="40" y2="135" stroke="white" stroke-width="1" />
    <line x1="20" y1="167" x2="40" y2="167" stroke="white" stroke-width="1" />
    <!--*********************************************************************************************-->
    <!--Espacio para imagen 4-->
    <!--Verticales-->
    <line x1="70" y1="134.5" x2="70" y2="167.5" stroke="white" stroke-width="1" />
    <line x1="90" y1="134.5" x2="90" y2="167.5" stroke="white" stroke-width="1" />
    <!--horizontales-->
    <line x1="70" y1="135" x2="90" y2="135" stroke="white" stroke-width="1" />
    <line x1="70" y1="167" x2="90" y2="167" stroke="white" stroke-width="1" />
    <!--*********************************************************************************************-->
    <!--Espacio para imagen 5-->
    <!--Verticales-->
    <line x1="129" y1="134.5" x2="129" y2="167.5" stroke="white" stroke-width="1" />
    <line x1="149" y1="134.5" x2="149" y2="167.5" stroke="white" stroke-width="1" />
    <!--horizontales-->
    <line x1="129" y1="135" x2="149" y2="135" stroke="white" stroke-width="1" />
    <line x1="129" y1="167" x2="149" y2="167" stroke="white" stroke-width="1" />
    <!--Relacion entre generaciones-->
    <!--Notas: Espacio de imagenes alto:32 ancho:20-->
    <path d="M-69.5 150 H-39" stroke="white" stroke-width="1" stroke-dasharray="2"/>
    <line x1="-54.5" y1="150.5" x2="-54.5" y2="180" stroke="white" stroke-width="1" /><!--Alto 30-->
    <!--Relacion entre generaciones-->
    <!--Notas: Espacio de imagenes alto:32 ancho:20-->
    <path d="M40 150 H70" stroke="white" stroke-width="1" stroke-dasharray="2"/>
    <line x1="55" y1="150.5" x2="55" y2="180" stroke="white" stroke-width="1" /><!--Alto 30-->

    <!-- Tercera generacion -->
    <!--Espacio para imagen 1-->
    <!--Verticales-->
    <line x1="-90" y1="189.5" x2="-90" y2="222.5" stroke="white" stroke-width="1" />
    <line x1="-70" y1="189.5" x2="-70" y2="222.5" stroke="white" stroke-width="1" />
    <!--horizontales-->
    <line x1="-90" y1="190" x2="-70" y2="190" stroke="white" stroke-width="1" />
    <line x1="-90" y1="222" x2="-70" y2="222" stroke="white" stroke-width="1" />  
    <!--Espacio para imagen 2-->
    <!--Verticales-->
    <line x1="-40" y1="189.5" x2="-40" y2="222.5" stroke="white" stroke-width="1" />
    <line x1="-20" y1="189.5" x2="-20" y2="222.5" stroke="white" stroke-width="1" />
    <!--horizontales-->
    <line x1="-40" y1="190" x2="-20" y2="190" stroke="white" stroke-width="1" />
    <line x1="-40" y1="222" x2="-20" y2="222" stroke="white" stroke-width="1" />    
    <!-- Relacion -->
    <line x1="-80" y1="180" x2="-30" y2="180" stroke="white" stroke-width="1" />
    <line x1="-80" y1="180" x2="-80" y2="190" stroke="white" stroke-width="1" />
    <line x1="-30" y1="179.5" x2="-30" y2="190" stroke="white" stroke-width="1" />
    <!--*****************************************************************************************************-->
    <!--Espacio para imagen 3-->
    <!--Verticales-->
    <line x1="20" y1="189.5" x2="20" y2="222.5" stroke="white" stroke-width="1" />
    <line x1="40" y1="189.5" x2="40" y2="222.5" stroke="white" stroke-width="1" />
    <!--horizontales-->
    <line x1="20" y1="190" x2="40" y2="190" stroke="white" stroke-width="1" />
    <line x1="20" y1="222" x2="40" y2="222" stroke="white" stroke-width="1" />  
    <!--Espacio para imagen 4-->
    <!--Verticales-->
    <line x1="70" y1="189.5" x2="70" y2="222.5" stroke="white" stroke-width="1" />
    <line x1="90" y1="189.5" x2="90" y2="222.5" stroke="white" stroke-width="1" />
    <!--horizontales-->
    <line x1="70" y1="190" x2="90" y2="190" stroke="white" stroke-width="1" />
    <line x1="70" y1="222" x2="90" y2="222" stroke="white" stroke-width="1" />    
    <!-- Relacion -->
    <line x1="29.5" y1="180" x2="80" y2="180" stroke="white" stroke-width="1" />
    <line x1="30" y1="180" x2="30" y2="190" stroke="white" stroke-width="1" />
    <line x1="80" y1="179.5" x2="80" y2="190" stroke="white" stroke-width="1" />
  </svg>
  