<?xml version="1.0" encoding="UTF-8"?>
<svg id="Capa_2" xmlns="http://www.w3.org/2000/svg" viewBox="0 0 303.08 151.88">
  <defs>
    <style>
      .cls-1 {
        font-family: Montserrat-Bold, Montserrat;
        font-size: 15.78px;
        font-weight: 700;
      }

      .cls-1, .cls-2 {
        fill: #771d0e;
      }

      .cls-3 {
        fill: #d8711d;
      }

      .cls-4 {
        letter-spacing: -.01em;
      }

      .cls-5 {
        letter-spacing: -.02em;
      }

      .cls-6 {
        letter-spacing: 0em;
      }

      .cls-7 {
        letter-spacing: 0em;
      }
    </style>
  </defs>
  <g id="Capa_1-2" data-name="Capa_1">
    <g>
      <g>
        <path class="cls-3" d="M97.99,26.97h-12.58l-2.6,5.92h-3.48l10.72-23.68h3.35l10.76,23.68h-3.55l-2.6-5.92ZM96.81,24.26l-5.11-11.6-5.11,11.6h10.22Z"/>
        <path class="cls-3" d="M125.76,23.92c0,5.51-3.82,9.17-9.07,9.17-2.54,0-4.77-.98-6.26-2.91v9.27h-3.25V14.96h3.11v2.84c1.45-2,3.76-3.01,6.39-3.01,5.24,0,9.07,3.65,9.07,9.13ZM122.48,23.92c0-3.79-2.61-6.29-6.06-6.29s-6.02,2.5-6.02,6.29,2.6,6.33,6.02,6.33,6.06-2.5,6.06-6.33Z"/>
        <path class="cls-3" d="M139.89,14.79v3.15c-.27-.03-.51-.03-.74-.03-3.48,0-5.65,2.13-5.65,6.06v8.93h-3.25V14.96h3.11v3.01c1.15-2.1,3.38-3.18,6.53-3.18Z"/>
        <path class="cls-3" d="M159.85,25.01h-14.55c.41,3.15,2.94,5.24,6.5,5.24,2.1,0,3.86-.71,5.18-2.17l1.79,2.1c-1.62,1.89-4.09,2.91-7.07,2.91-5.78,0-9.64-3.82-9.64-9.17s3.82-9.13,9-9.13,8.86,3.72,8.86,9.24c0,.27-.03.68-.07.98ZM145.3,22.67h11.5c-.34-3.01-2.6-5.14-5.75-5.14s-5.41,2.1-5.75,5.14Z"/>
        <path class="cls-3" d="M181.43,22.57v10.32h-3.25v-9.95c0-3.52-1.76-5.24-4.84-5.24-3.45,0-5.68,2.06-5.68,5.95v9.24h-3.25V14.96h3.11v2.71c1.32-1.83,3.62-2.88,6.46-2.88,4.36,0,7.44,2.5,7.44,7.78Z"/>
        <path class="cls-3" d="M204.46,7.79v25.1h-3.11v-2.84c-1.46,2.03-3.76,3.04-6.39,3.04-5.24,0-9.07-3.69-9.07-9.17s3.82-9.13,9.07-9.13c2.54,0,4.77.95,6.26,2.88V7.79h3.25ZM201.25,23.92c0-3.82-2.61-6.29-6.02-6.29s-6.06,2.47-6.06,6.29,2.61,6.33,6.06,6.33,6.02-2.5,6.02-6.33Z"/>
        <path class="cls-3" d="M224.82,22.06v10.83h-3.08v-2.37c-1.08,1.62-3.08,2.57-5.89,2.57-4.06,0-6.63-2.17-6.63-5.28,0-2.88,1.86-5.24,7.21-5.24h5.14v-.64c0-2.74-1.59-4.33-4.8-4.33-2.13,0-4.3.74-5.68,1.93l-1.35-2.44c1.86-1.49,4.53-2.3,7.41-2.3,4.9,0,7.68,2.37,7.68,7.27ZM221.57,27.41v-2.5h-5.01c-3.21,0-4.13,1.25-4.13,2.77,0,1.79,1.49,2.91,3.96,2.91s4.36-1.12,5.18-3.18Z"/>
        <path class="cls-3" d="M260.61,22.57v10.32h-3.25v-9.95c0-3.52-1.69-5.24-4.63-5.24-3.25,0-5.38,2.06-5.38,5.95v9.24h-3.25v-9.95c0-3.52-1.69-5.24-4.63-5.24-3.25,0-5.38,2.06-5.38,5.95v9.24h-3.25V14.96h3.11v2.67c1.29-1.83,3.48-2.84,6.19-2.84s5.04,1.08,6.22,3.32c1.35-2.03,3.86-3.32,6.9-3.32,4.36,0,7.34,2.5,7.34,7.78Z"/>
        <path class="cls-3" d="M265.03,23.92c0-5.34,3.96-9.13,9.34-9.13s9.3,3.79,9.3,9.13-3.92,9.17-9.3,9.17-9.34-3.82-9.34-9.17ZM280.39,23.92c0-3.82-2.57-6.29-6.02-6.29s-6.06,2.47-6.06,6.29,2.61,6.33,6.06,6.33,6.02-2.5,6.02-6.33Z"/>
        <path class="cls-3" d="M285.9,30.99l1.35-2.57c1.52,1.08,3.96,1.86,6.29,1.86,3.01,0,4.26-.91,4.26-2.44,0-4.03-11.33-.54-11.33-7.68,0-3.21,2.88-5.38,7.48-5.38,2.33,0,4.97.61,6.53,1.62l-1.39,2.57c-1.62-1.05-3.42-1.42-5.18-1.42-2.84,0-4.23,1.05-4.23,2.47,0,4.23,11.37.78,11.37,7.75,0,3.25-2.98,5.31-7.75,5.31-2.98,0-5.92-.91-7.41-2.1Z"/>
      </g>
      <g>
        <path class="cls-2" d="M120.97,61.63v16.62h-8.42v-15.33c0-4.69-2.16-6.85-5.88-6.85-4.05,0-6.96,2.48-6.96,7.83v14.36h-8.42v-29.04h8.04v3.4c2.27-2.48,5.67-3.83,9.61-3.83,6.85,0,12.04,3.99,12.04,12.84Z"/>
        <path class="cls-2" d="M154.27,61.69v16.57h-7.88v-3.62c-1.57,2.64-4.59,4.05-8.85,4.05-6.8,0-10.85-3.78-10.85-8.8s3.62-8.69,12.47-8.69h6.69c0-3.62-2.16-5.72-6.69-5.72-3.08,0-6.26,1.03-8.37,2.7l-3.02-5.88c3.18-2.27,7.88-3.51,12.52-3.51,8.85,0,13.98,4.1,13.98,12.9ZM145.85,69.08v-2.97h-5.78c-3.94,0-5.18,1.46-5.18,3.4,0,2.11,1.78,3.51,4.75,3.51,2.81,0,5.24-1.3,6.21-3.94Z"/>
        <path class="cls-2" d="M191.56,61.63v16.62h-8.42v-15.33c0-4.69-2.16-6.85-5.88-6.85-4.05,0-6.96,2.48-6.96,7.83v14.36h-8.42v-40.05h8.42v14.03c2.27-2.27,5.51-3.45,9.23-3.45,6.85,0,12.04,3.99,12.04,12.84Z"/>
        <path class="cls-2" d="M228.42,49.22v29.04h-7.99v-3.45c-2.21,2.54-5.45,3.89-9.01,3.89-7.29,0-12.41-4.1-12.41-13.06v-16.41h8.42v15.17c0,4.86,2.16,7.02,5.88,7.02s6.69-2.48,6.69-7.83v-14.36h8.42Z"/>
        <path class="cls-2" d="M261.93,61.69v16.57h-7.88v-3.62c-1.57,2.64-4.59,4.05-8.85,4.05-6.8,0-10.85-3.78-10.85-8.8s3.62-8.69,12.47-8.69h6.69c0-3.62-2.16-5.72-6.69-5.72-3.08,0-6.26,1.03-8.37,2.7l-3.02-5.88c3.18-2.27,7.88-3.51,12.52-3.51,8.85,0,13.98,4.1,13.98,12.9ZM253.52,69.08v-2.97h-5.78c-3.94,0-5.18,1.46-5.18,3.4,0,2.11,1.78,3.51,4.75,3.51,2.81,0,5.24-1.3,6.21-3.94Z"/>
        <path class="cls-2" d="M288.27,76.85c-1.73,1.24-4.26,1.83-6.85,1.83-6.85,0-10.85-3.51-10.85-10.42v-11.93h-4.48v-6.48h4.48v-7.07h8.42v7.07h7.23v6.48h-7.23v11.82c0,2.48,1.35,3.83,3.62,3.83,1.24,0,2.48-.38,3.4-1.08l2.27,5.94Z"/>
        <path class="cls-2" d="M293.02,38.21h8.42v40.05h-8.42v-40.05Z"/>
      </g>
      <text class="cls-1" transform="translate(90.29 101.18)"><tspan x="0" y="0">mati</tspan><tspan class="cls-7" x="37.91" y="0">m</tspan><tspan x="54.56" y="0">om</tspan><tspan class="cls-7" x="81.46" y="0">a</tspan><tspan class="cls-6" x="91.29" y="0">c</tspan><tspan x="100.55" y="0">htica </tspan><tspan class="cls-7" x="146.61" y="0">m</tspan><tspan class="cls-4" x="163.26" y="0">e</tspan><tspan class="cls-5" x="172.98" y="0">x</tspan><tspan x="182.11" y="0">catl</tspan></text>
      <path class="cls-2" d="M57.03,43.66c.54-.54.54-1.41,0-1.94l-13.88-13.88h-.01s-7.69-7.67-7.69-7.67l-15.3,15.3,8.53,8.52,6.11-6.11.82-.85c2.06-2.06,5.38-2.06,7.42-.02l2.01,1.98c2.05,2.05,2.05,5.37,0,7.41l-17.05,17.05-10.23-10.23h-.01S0,35.45,0,35.45L35.45,0l17.58,17.58h.01s25.11,25.1,25.11,25.1l-48.62,48.62-10.14-10.14,37.63-37.51Z"/>
      <path class="cls-3" d="M43.4,108.22c-.54.54-.54,1.41,0,1.94l13.88,13.88h.01s7.69,7.67,7.69,7.67l15.3-15.3-8.53-8.52-6.11,6.11-.82.85c-2.06,2.06-5.38,2.06-7.42.02l-2.01-1.98c-2.05-2.05-2.05-5.37,0-7.41l17.05-17.05,10.23,10.23h.01s17.76,17.75,17.76,17.75l-35.45,35.45-17.58-17.58h-.01s-25.11-25.1-25.11-25.1l48.62-48.62,10.14,10.14-37.63,37.51Z"/>
    </g>
  </g>
</svg>