<?xml version="1.0" encoding="UTF-8"?>
<svg id="Capa_2" xmlns="http://www.w3.org/2000/svg" viewBox="0 0 206.14 158.45">
  <defs>
    <style>
      .cls-1 {
        fill: #ee9f48;
      }
    </style>
  </defs>
  <g id="Capa_1-2" data-name="Capa_1">
    <g>
      <rect class="cls-1" x=".53" y="133.45" width="204.77" height="25" rx="12.5" ry="12.5"/>
      <g>
        <path class="cls-1" d="M193.05,0H13.08C5.86,0,0,5.86,0,13.08s5.86,13.08,13.08,13.08h23.39c.11,37.26,30.35,67.43,67.64,67.43s67.52-30.17,67.64-67.43h21.3c7.23,0,13.08-5.86,13.08-13.08s-5.86-13.08-13.08-13.08ZM104.11,67.6c-22.89,0-41.52-18.57-41.64-41.43h83.27c-.11,22.87-18.74,41.43-41.64,41.43Z"/>
        <path class="cls-1" d="M104.11,5.19c-14.04,0-25.43,11.38-25.43,25.43s11.38,25.43,25.43,25.43,25.43-11.38,25.43-25.43-11.38-25.43-25.43-25.43ZM110.84,50.74c-4.41,0-7.98-3.57-7.98-7.98s3.57-7.98,7.98-7.98,7.98,3.57,7.98,7.98-3.57,7.98-7.98,7.98Z"/>
      </g>
    </g>
  </g>
</svg>