<?xml version="1.0" encoding="UTF-8"?>
<svg id="Capa_2" xmlns="http://www.w3.org/2000/svg" viewBox="0 0 206.1 190.93">
  <defs>
    <style>
      .cls-1 {
        fill: #771d0e;
      }
    </style>
  </defs>
  <g id="Capa_1-2" data-name="Capa_1">
    <g>
      <rect class="cls-1" x="0" y="165.93" width="206.1" height="25" rx="12.5" ry="12.5"/>
      <path class="cls-1" d="M185.81,93.13v-5.02c0-9.08-6.54-16.46-14.57-16.46-6.04,0-11.21,4.12-13.44,9.98v-9.89c0-1.06-.1-2.09-.29-3.08-.72-6.88-6.79-12.25-14.18-12.28-.02,0-.05,0-.07,0,0,0,0,0-.01,0h-.05c-6.45,0-11.89,4.07-13.69,9.66v-3.89c0-.61-.04-1.2-.11-1.79-.03-7.34-6.27-13.28-13.97-13.28h-.07c-6.93,0-12.66,4.82-13.76,11.14V11.76c0-9.24-10.65-15.98-20.34-8.64-2.58,1.95-4,5.08-4,8.31v80.48s0,10.13,0,10.13h0c-.02,5.99-7.26,8.97-11.49,4.74l-20.82-20.82c-9.24-9.24-24.23-9.24-33.48,0l58.13,57.97c4.39,4.38,10.34,6.86,16.54,6.89l14.24.07h46.22c21.77,0,39.41-17.64,39.41-39.41l-.2-18.34Z"/>
    </g>
  </g>
</svg>