<?xml version="1.0" encoding="UTF-8"?>
<svg id="Capa_2" xmlns="http://www.w3.org/2000/svg" viewBox="0 0 131.43 100.39">
  <defs>
    <style>
      .cls-1 {
        fill: #ee9f48;
      }

      .cls-2 {
        fill: #771d0e;
      }
    </style>
  </defs>
  <g id="Capa_1-2" data-name="Capa_1">
    <rect class="cls-1" width="131.43" height="100.39" rx="11.27" ry="11.27"/>
    <path class="cls-2" d="M120.12,84.96v3.96h-15.87v-3.15l8.1-7.65c.86-.82,1.44-1.53,1.74-2.12s.45-1.17.45-1.75c0-.84-.29-1.49-.86-1.94-.57-.45-1.41-.67-2.5-.67-.92,0-1.75.18-2.49.53s-1.36.88-1.86,1.58l-3.54-2.28c.82-1.22,1.95-2.17,3.39-2.87,1.44-.69,3.09-1.04,4.95-1.04,1.56,0,2.92.25,4.09.77,1.17.51,2.08,1.23,2.73,2.16.65.93.97,2.02.97,3.28,0,1.14-.24,2.21-.72,3.21-.48,1-1.41,2.14-2.79,3.42l-4.83,4.56h9.03Z"/>
    <g>
      <path class="cls-2" d="M111.94,28.01H18.3c-3.76,0-6.81,3.05-6.81,6.81s3.05,6.81,6.81,6.81h12.17c.06,19.39,15.79,35.09,35.19,35.09s35.13-15.7,35.19-35.09h11.08c3.76,0,6.81-3.05,6.81-6.81s-3.05-6.81-6.81-6.81ZM65.67,63.18c-11.91,0-21.61-9.66-21.66-21.56h43.33c-.06,11.9-9.75,21.56-21.66,21.56Z"/>
      <path class="cls-2" d="M65.67,30.71c-7.31,0-13.23,5.92-13.23,13.23s5.92,13.23,13.23,13.23,13.23-5.92,13.23-13.23-5.92-13.23-13.23-13.23ZM69.17,54.41c-2.29,0-4.15-1.86-4.15-4.15s1.86-4.15,4.15-4.15,4.15,1.86,4.15,4.15-1.86,4.15-4.15,4.15Z"/>
    </g>
  </g>
</svg>