<?xml version="1.0" encoding="UTF-8"?>
<svg id="Capa_2" xmlns="http://www.w3.org/2000/svg" viewBox="0 0 131.43 100.39">
  <defs>
    <style>
      .cls-1 {
        fill: #ee9f48;
      }

      .cls-2 {
        fill: #771d0e;
      }
    </style>
  </defs>
  <g id="Capa_1-2" data-name="Capa_1">
    <rect class="cls-1" width="131.43" height="100.39" rx="11.27" ry="11.27"/>
    <g>
      <path class="cls-2" d="M111.94,25.65H18.3c-3.76,0-6.81,3.05-6.81,6.81s3.05,6.81,6.81,6.81h12.17c.06,19.39,15.79,35.09,35.19,35.09s35.13-15.7,35.19-35.09h11.08c3.76,0,6.81-3.05,6.81-6.81s-3.05-6.81-6.81-6.81ZM65.67,60.82c-11.91,0-21.61-9.66-21.66-21.56h43.33c-.06,11.9-9.75,21.56-21.66,21.56Z"/>
      <path class="cls-2" d="M65.67,28.35c-7.31,0-13.23,5.92-13.23,13.23s5.92,13.23,13.23,13.23,13.23-5.92,13.23-13.23-5.92-13.23-13.23-13.23ZM69.17,52.05c-2.29,0-4.15-1.86-4.15-4.15s1.86-4.15,4.15-4.15,4.15,1.86,4.15,4.15-1.86,4.15-4.15,4.15Z"/>
    </g>
    <path class="cls-2" d="M118.44,78.52c.98,1.07,1.47,2.39,1.47,3.97,0,1.22-.32,2.34-.96,3.38s-1.62,1.86-2.92,2.47c-1.31.62-2.92.93-4.81.93-1.48,0-2.94-.2-4.37-.58-1.43-.39-2.65-.95-3.65-1.67l1.89-3.72c.8.6,1.72,1.07,2.77,1.4s2.12.5,3.23.5c1.22,0,2.18-.24,2.88-.71.7-.47,1.05-1.13,1.05-2,0-1.72-1.31-2.58-3.93-2.58h-2.22v-3.21l4.32-4.89h-8.94v-3.9h14.7v3.15l-4.74,5.4c1.84.3,3.25.99,4.23,2.06Z"/>
  </g>
</svg>