<?xml version="1.0" encoding="UTF-8"?>
<svg id="Capa_2" xmlns="http://www.w3.org/2000/svg" viewBox="0 0 131.43 100.39">
  <defs>
    <style>
      .cls-1 {
        fill: #ee9f48;
      }

      .cls-2 {
        fill: #771d0e;
      }
    </style>
  </defs>
  <g id="Capa_1-2" data-name="Capa_1">
    <g>
      <rect class="cls-1" width="131.43" height="100.39" rx="11.27" ry="11.27"/>
      <path class="cls-2" d="M118.44,78.52c.98,1.07,1.47,2.39,1.47,3.97,0,1.22-.32,2.34-.96,3.38s-1.62,1.86-2.92,2.47c-1.31.62-2.92.93-4.81.93-1.48,0-2.94-.2-4.37-.58-1.43-.39-2.65-.95-3.65-1.67l1.89-3.72c.8.6,1.72,1.07,2.77,1.4s2.12.5,3.23.5c1.22,0,2.18-.24,2.88-.71.7-.47,1.05-1.13,1.05-2,0-1.72-1.31-2.58-3.93-2.58h-2.22v-3.21l4.32-4.89h-8.94v-3.9h14.7v3.15l-4.74,5.4c1.84.3,3.25.99,4.23,2.06Z"/>
      <g>
        <rect class="cls-2" x="41.74" y="28.24" width="49.38" height="7.54" rx="3.77" ry="3.77"/>
        <path class="cls-2" d="M53.8,11.88h28.62c4.8,0,8.69,3.89,8.69,8.69v.56c0,2.02-1.64,3.65-3.65,3.65h-44.89c-.46,0-.83-.37-.83-.83h0c0-6.66,5.4-12.06,12.06-12.06Z"/>
        <g>
          <path class="cls-2" d="M75.85,64.35h-2.23c-.27,0-.49.23-.56.54-.58,2.98-3.23,5.43-6.42,5.43s-5.84-1.81-6.42-5.43c-.05-.32-.29-.54-.56-.54h-2.78c-.27,0-.51.23-.56.55-.55,3.67-4.41,5.96-7.61,5.04h0c-.49,0-.75.69-.43,1.13l14.74,17.24c1.8,2.51,5.02,2.51,6.82,0l14.57-17.54c.33-.45.03-1.14-.47-1.1-.13,0-.27-.05-.39.01-2.64,1.34-6.54-1.25-7.17-4.8-.06-.31-.29-.53-.55-.53Z"/>
          <polygon class="cls-2" points="89.26 64.35 89.25 64.35 89.25 64.36 89.26 64.35"/>
        </g>
        <g>
          <path class="cls-2" d="M59.87,59.49c0,4.33,2.91,7.85,6.49,7.85s6.49-3.52,6.49-7.85v-20.42h-12.99v20.42Z"/>
          <path class="cls-2" d="M43.54,39.54v20.05c0,4.33,2.91,7.85,6.49,7.85s6.49-3.52,6.49-7.85v-20.05c0-.16-.01-.31-.02-.47h-12.95c0,.16-.02.31-.02.47Z"/>
          <path class="cls-2" d="M76.21,59.32c0,4.33,2.91,7.85,6.49,7.85s6.49-3.52,6.49-7.85v-20.26h-12.99v20.26Z"/>
        </g>
      </g>
    </g>
  </g>
</svg>