<?xml version="1.0" encoding="UTF-8"?>
<svg id="Capa_2" xmlns="http://www.w3.org/2000/svg" viewBox="0 0 131.43 100.39">
  <defs>
    <style>
      .cls-1 {
        fill: #ee9f48;
      }

      .cls-2 {
        fill: #771d0e;
      }
    </style>
  </defs>
  <g id="Capa_1-2" data-name="Capa_1">
    <g>
      <rect class="cls-1" width="131.43" height="100.39" rx="11.27" ry="11.27"/>
      <path class="cls-2" d="M120.12,84.96v3.96h-15.87v-3.15l8.1-7.65c.86-.82,1.44-1.53,1.74-2.12s.45-1.17.45-1.75c0-.84-.29-1.49-.86-1.94-.57-.45-1.41-.67-2.5-.67-.92,0-1.75.18-2.49.53s-1.36.88-1.86,1.58l-3.54-2.28c.82-1.22,1.95-2.17,3.39-2.87,1.44-.69,3.09-1.04,4.95-1.04,1.56,0,2.92.25,4.09.77,1.17.51,2.08,1.23,2.73,2.16.65.93.97,2.02.97,3.28,0,1.14-.24,2.21-.72,3.21-.48,1-1.41,2.14-2.79,3.42l-4.83,4.56h9.03Z"/>
      <g>
        <rect class="cls-2" x="41.74" y="28.24" width="49.38" height="7.54" rx="3.77" ry="3.77"/>
        <path class="cls-2" d="M53.8,11.88h28.62c4.8,0,8.69,3.89,8.69,8.69v.56c0,2.02-1.64,3.65-3.65,3.65h-44.89c-.46,0-.83-.37-.83-.83h0c0-6.66,5.4-12.06,12.06-12.06Z"/>
        <g>
          <path class="cls-2" d="M75.85,64.35h-2.23c-.27,0-.49.23-.56.54-.58,2.98-3.23,5.43-6.42,5.43s-5.84-1.81-6.42-5.43c-.05-.32-.29-.54-.56-.54h-2.78c-.27,0-.51.23-.56.55-.55,3.67-4.41,5.96-7.61,5.04h0c-.49,0-.75.69-.43,1.13l14.74,17.24c1.8,2.51,5.02,2.51,6.82,0l14.57-17.54c.33-.45.03-1.14-.47-1.1-.13,0-.27-.05-.39.01-2.64,1.34-6.54-1.25-7.17-4.8-.06-.31-.29-.53-.55-.53Z"/>
          <polygon class="cls-2" points="89.26 64.35 89.25 64.35 89.25 64.36 89.26 64.35"/>
        </g>
        <g>
          <path class="cls-2" d="M59.87,59.49c0,4.33,2.91,7.85,6.49,7.85s6.49-3.52,6.49-7.85v-20.42h-12.99v20.42Z"/>
          <path class="cls-2" d="M43.54,39.54v20.05c0,4.33,2.91,7.85,6.49,7.85s6.49-3.52,6.49-7.85v-20.05c0-.16-.01-.31-.02-.47h-12.95c0,.16-.02.31-.02.47Z"/>
          <path class="cls-2" d="M76.21,59.32c0,4.33,2.91,7.85,6.49,7.85s6.49-3.52,6.49-7.85v-20.26h-12.99v20.26Z"/>
        </g>
      </g>
    </g>
  </g>
</svg>