<?xml version="1.0" encoding="UTF-8"?>
<svg id="Capa_2" xmlns="http://www.w3.org/2000/svg" viewBox="0 0 100 73.07">
  <defs>
    <style>
      .cls-1 {
        fill: #ee9f48;
      }
    </style>
  </defs>
  <g id="Capa_1-2" data-name="Capa_1">
    <path class="cls-1" d="M78.03,0h-29.13c-10.71,0-19.62,7.66-21.57,17.8-2.3-.95-4.81-1.48-7.44-1.48C8.92,16.32,0,25.39,0,36.53s8.92,20.22,19.89,20.22c2.63,0,5.14-.53,7.44-1.48,1.95,10.14,10.86,17.8,21.57,17.8h29.13c12.13,0,21.97-9.84,21.97-21.97v-29.13c0-12.13-9.84-21.97-21.97-21.97ZM19.89,43.48c-3.77,0-6.83-3.11-6.83-6.94s3.06-6.94,6.83-6.94,6.83,3.11,6.83,6.94-3.06,6.94-6.83,6.94ZM87.06,51.1c0,4.98-4.05,9.03-9.03,9.03h-29.13c-4.98,0-9.03-4.05-9.03-9.03v-29.13c0-4.98,4.05-9.03,9.03-9.03h29.13c4.98,0,9.03,4.05,9.03,9.03v29.13Z"/>
    <path class="cls-1" d="M79.42,41.47c0,8.75-6.06,14.34-13.87,14.34-3.73,0-6.73-1.19-8.75-3.62v3.21h-7.71V16.99h8.07v13.51c2.07-2.28,4.92-3.36,8.38-3.36,7.82,0,13.87,5.59,13.87,14.34ZM71.24,41.47c0-4.81-3.05-7.71-7.09-7.71s-7.09,2.9-7.09,7.71,3.05,7.71,7.09,7.71,7.09-2.9,7.09-7.71Z"/>
  </g>
</svg>