<?xml version="1.0" encoding="UTF-8"?>
<svg id="Capa_2" xmlns="http://www.w3.org/2000/svg" viewBox="0 0 100 73.07">
  <defs>
    <style>
      .cls-1 {
        fill: #ee9f48;
      }
    </style>
  </defs>
  <g id="Capa_1-2" data-name="Capa_1">
    <path class="cls-1" d="M78.03,0h-29.13c-10.71,0-19.62,7.66-21.57,17.8-2.3-.95-4.81-1.48-7.44-1.48C8.92,16.32,0,25.39,0,36.53s8.92,20.22,19.89,20.22c2.63,0,5.14-.53,7.44-1.48,1.95,10.14,10.86,17.8,21.57,17.8h29.13c12.13,0,21.97-9.84,21.97-21.97v-29.13c0-12.13-9.83-21.97-21.97-21.97ZM19.89,43.48c-3.77,0-6.83-3.11-6.83-6.94s3.06-6.94,6.83-6.94,6.83,3.11,6.83,6.94-3.06,6.94-6.83,6.94ZM87.06,51.1c0,4.98-4.05,9.03-9.03,9.03h-29.13c-4.98,0-9.03-4.05-9.03-9.03v-29.13c0-4.98,4.05-9.03,9.03-9.03h29.13c4.98,0,9.03,4.05,9.03,9.03v29.13Z"/>
    <path class="cls-1" d="M75.75,34.92v15.89h-7.56v-3.47c-1.5,2.54-4.4,3.88-8.49,3.88-6.52,0-10.4-3.62-10.4-8.44s3.47-8.33,11.96-8.33h6.42c0-3.47-2.07-5.49-6.42-5.49-2.95,0-6,.98-8.02,2.59l-2.9-5.64c3.05-2.17,7.56-3.36,12.01-3.36,8.49,0,13.41,3.93,13.41,12.37ZM67.68,42.01v-2.85h-5.54c-3.78,0-4.97,1.4-4.97,3.26,0,2.02,1.71,3.36,4.55,3.36,2.69,0,5.02-1.24,5.95-3.78Z"/>
  </g>
</svg>