<?xml version="1.0" encoding="UTF-8"?>
<svg id="Capa_2" xmlns="http://www.w3.org/2000/svg" viewBox="0 0 100 73.07">
  <defs>
    <style>
      .cls-1 {
        fill: #ee9f48;
      }
    </style>
  </defs>
  <g id="Capa_1-2" data-name="Capa_1">
    <path class="cls-1" d="M78.03,0h-29.13c-10.71,0-19.62,7.66-21.57,17.8-2.3-.95-4.81-1.48-7.44-1.48C8.92,16.32,0,25.39,0,36.53s8.92,20.22,19.89,20.22c2.63,0,5.14-.53,7.44-1.48,1.95,10.14,10.86,17.8,21.57,17.8h29.13c12.13,0,21.97-9.83,21.97-21.97v-29.13c0-12.13-9.83-21.97-21.97-21.97ZM19.89,43.48c-3.77,0-6.83-3.11-6.83-6.94s3.06-6.94,6.83-6.94,6.83,3.11,6.83,6.94-3.06,6.94-6.83,6.94ZM87.06,51.1c0,4.98-4.05,9.03-9.03,9.03h-29.13c-4.98,0-9.03-4.05-9.03-9.03v-29.13c0-4.98,4.05-9.03,9.03-9.03h29.13c4.98,0,9.03,4.05,9.03,9.03v29.13Z"/>
    <path class="cls-1" d="M49.72,36.89c0-8.38,6.47-14.34,15.53-14.34,5.85,0,10.46,2.54,12.47,7.09l-6.26,3.36c-1.5-2.64-3.73-3.83-6.26-3.83-4.09,0-7.3,2.85-7.3,7.71s3.21,7.71,7.3,7.71c2.54,0,4.76-1.14,6.26-3.83l6.26,3.42c-2.02,4.45-6.62,7.04-12.47,7.04-9.06,0-15.53-5.95-15.53-14.34Z"/>
  </g>
</svg>