<?xml version="1.0" encoding="UTF-8"?>
<svg id="Capa_2" xmlns="http://www.w3.org/2000/svg" viewBox="0 0 256 256">
  <defs>
    <style>
      .cls-1 {
        fill: #fff;
      }

      .cls-2 {
        fill: #56c6cf;
      }
    </style>
  </defs>
  <g id="Capa_1-2" data-name="Capa_1">
    <rect class="cls-2" width="256" height="256" rx="40.32" ry="40.32"/>
    <g>
      <circle class="cls-1" cx="68.3" cy="91.97" r="18.27"/>
      <circle class="cls-1" cx="187.7" cy="91.97" r="18.27"/>
    </g>
    <path class="cls-1" d="M32.05,75.69c-.25,0-.51-.02-.76-.07-2.17-.42-3.59-2.52-3.17-4.69,1.69-8.73,6.7-16.24,14.11-21.14,7.41-4.91,16.28-6.59,24.97-4.75,2.16.46,3.54,2.58,3.08,4.74s-2.59,3.54-4.74,3.08c-6.58-1.4-13.29-.12-18.89,3.59-5.6,3.71-9.39,9.39-10.67,15.99-.37,1.91-2.04,3.24-3.92,3.24Z"/>
    <path class="cls-1" d="M89.57,110.06c.23.09.46.22.68.36,1.83,1.26,2.25,4.01.93,6.15-5.3,8.62-13.15,14.71-22.12,17.14-8.97,2.43-17.91.91-25.19-4.3-1.81-1.29-2.18-4.06-.83-6.18s3.91-2.79,5.72-1.5c5.51,3.94,12.27,5.1,19.06,3.25,6.78-1.84,12.73-6.45,16.74-12.97,1.16-1.89,3.28-2.67,5.02-1.97Z"/>
    <path class="cls-1" d="M165.57,111.92c-.23.09-.46.22-.68.36-1.83,1.26-2.25,4.01-.93,6.15,5.3,8.62,13.15,14.71,22.12,17.14,8.97,2.43,17.91.91,25.19-4.3,1.81-1.29,2.18-4.06.83-6.18s-3.91-2.79-5.72-1.5c-5.51,3.94-12.27,5.1-19.06,3.25-6.78-1.84-12.73-6.45-16.74-12.97-1.16-1.89-3.28-2.67-5.02-1.97Z"/>
    <path class="cls-1" d="M218.99,73.91c-1.9,0-3.59-1.36-3.93-3.3-1.18-6.62-4.88-12.36-10.43-16.15-5.55-3.8-12.24-5.17-18.83-3.87-2.17.42-4.27-.99-4.7-3.15-.43-2.17.99-4.27,3.15-4.7,8.72-1.71,17.56.1,24.9,5.12,7.33,5.02,12.23,12.6,13.79,21.35.39,2.17-1.06,4.25-3.24,4.64-.24.04-.47.06-.71.06Z"/>
    <path class="cls-1" d="M170.83,209.32c-10.69,0-32.28-2.83-60.15-21.08-11.87-7.77-22.8-10.58-32.49-8.33-12.56,2.91-19,13.56-19.07,13.67-1.12,1.89-3.57,2.53-5.47,1.41-1.9-1.12-2.54-3.55-1.43-5.46.32-.55,8.11-13.63,24.03-17.38,11.94-2.81,25,.35,38.81,9.4,19.09,12.51,34.82,17.11,44.66,18.77,10.61,1.79,16.82.62,16.88.61,2.17-.43,4.27.98,4.7,3.14.43,2.16-.95,4.26-3.11,4.7-.33.07-2.9.56-7.36.56Z"/>
  </g>
</svg>