<?xml version="1.0" encoding="UTF-8"?>
<svg id="Capa_2" xmlns="http://www.w3.org/2000/svg" viewBox="0 0 83.4 83.4">
  <defs>
    <style>
      .cls-1 {
        fill: #fff;
      }

      .cls-2 {
        fill: #ee9f48;
      }
    </style>
  </defs>
  <g id="Capa_1-2" data-name="Capa_1">
    <g>
      <path class="cls-2" d="M41.7,83.4C18.71,83.4,0,64.7,0,41.7S18.71,0,41.7,0s41.7,18.71,41.7,41.7-18.71,41.7-41.7,41.7ZM41.7,6C22.02,6,6,22.02,6,41.7s16.02,35.7,35.7,35.7,35.7-16.02,35.7-35.7S61.39,6,41.7,6Z"/>
      <circle class="cls-2" cx="41.7" cy="41.7" r="29.39"/>
      <path class="cls-1" d="M56.48,41.16c1.7,2.05,2.55,4.53,2.55,7.42,0,2.46-.67,4.76-2.02,6.89-1.35,2.13-3.43,3.86-6.25,5.19-2.81,1.33-6.31,1.99-10.5,1.99-2.89,0-5.78-.31-8.65-.94-2.87-.62-5.39-1.54-7.54-2.76l4.69-10.2c1.68.98,3.49,1.72,5.42,2.23,1.94.51,3.8.76,5.6.76,1.6,0,2.89-.27,3.87-.82.98-.55,1.47-1.33,1.47-2.35,0-1.88-1.62-2.81-4.87-2.81h-5.45v-8.5l6.04-6.16h-14.66v-10.44h30.61v8.5l-7.62,7.74c3.17.78,5.6,2.2,7.3,4.25Z"/>
    </g>
  </g>
</svg>