<?xml version="1.0" encoding="UTF-8"?>
<svg id="Capa_2" xmlns="http://www.w3.org/2000/svg" viewBox="0 0 83.4 83.4">
  <defs>
    <style>
      .cls-1 {
        fill: #fff;
      }

      .cls-2 {
        fill: #ee9f48;
      }
    </style>
  </defs>
  <g id="Capa_1-2" data-name="Capa_1">
    <g>
      <path class="cls-2" d="M41.7,83.4C18.71,83.4,0,64.7,0,41.7S18.71,0,41.7,0s41.7,18.71,41.7,41.7-18.71,41.7-41.7,41.7ZM41.7,6C22.02,6,6,22.02,6,41.7s16.02,35.7,35.7,35.7,35.7-16.02,35.7-35.7S61.39,6,41.7,6Z"/>
      <circle class="cls-2" cx="41.7" cy="41.7" r="29.39"/>
      <path class="cls-1" d="M59.15,50.98v10.73H26.25v-8.5l14.84-13.72c1.29-1.21,2.15-2.25,2.58-3.11.43-.86.65-1.7.65-2.52,0-1.02-.34-1.81-1.03-2.38-.68-.57-1.67-.85-2.96-.85s-2.42.33-3.52,1c-1.09.67-1.93,1.6-2.52,2.81l-10.44-5.22c1.56-2.93,3.85-5.25,6.86-6.95s6.65-2.55,10.91-2.55c3.24,0,6.12.53,8.62,1.58s4.46,2.56,5.86,4.52c1.41,1.96,2.11,4.2,2.11,6.74,0,2.27-.48,4.39-1.44,6.36-.96,1.97-2.83,4.21-5.6,6.71l-5.86,5.34h13.84Z"/>
    </g>
  </g>
</svg>