<?xml version="1.0" encoding="UTF-8"?>
<svg id="Capa_2" xmlns="http://www.w3.org/2000/svg" viewBox="0 0 83.4 83.4">
  <defs>
    <style>
      .cls-1 {
        fill: #fff;
      }

      .cls-2 {
        fill: #ee9f48;
      }
    </style>
  </defs>
  <g id="Capa_1-2" data-name="Capa_1">
    <g>
      <path class="cls-2" d="M41.7,83.4C18.71,83.4,0,64.7,0,41.7S18.71,0,41.7,0s41.7,18.71,41.7,41.7-18.71,41.7-41.7,41.7ZM41.7,6C22.02,6,6,22.02,6,41.7s16.02,35.7,35.7,35.7,35.7-16.02,35.7-35.7S61.39,6,41.7,6Z"/>
      <circle class="cls-2" cx="41.7" cy="41.7" r="29.39"/>
      <path class="cls-1" d="M55.45,38.75c2.72,2.4,4.08,5.56,4.08,9.47,0,2.58-.67,4.96-2.02,7.12-1.35,2.17-3.43,3.93-6.25,5.28s-6.31,2.02-10.5,2.02c-2.89,0-5.78-.31-8.65-.94-2.87-.62-5.39-1.54-7.54-2.76l4.69-10.2c1.72.98,3.53,1.72,5.42,2.23,1.9.51,3.74.76,5.54.76,1.6,0,2.9-.28,3.9-.85,1-.57,1.5-1.36,1.5-2.38s-.45-1.71-1.35-2.2c-.9-.49-2.52-.73-4.87-.73h-11.9l2.05-24.92h27.27v10.44h-15.89l-.29,4.05h2.11c5.75,0,9.98,1.2,12.7,3.61Z"/>
    </g>
  </g>
</svg>