<?xml version="1.0" encoding="UTF-8"?>
<svg id="Capa_2" xmlns="http://www.w3.org/2000/svg" viewBox="0 0 83.4 83.4">
  <defs>
    <style>
      .cls-1 {
        fill: #fff;
      }

      .cls-2 {
        fill: #ee9f48;
      }
    </style>
  </defs>
  <g id="Capa_1-2" data-name="Capa_1">
    <g>
      <path class="cls-2" d="M41.7,83.4C18.71,83.4,0,64.7,0,41.7S18.71,0,41.7,0s41.7,18.71,41.7,41.7-18.71,41.7-41.7,41.7ZM41.7,6C22.02,6,6,22.02,6,41.7s16.02,35.7,35.7,35.7,35.7-16.02,35.7-35.7S61.39,6,41.7,6Z"/>
      <circle class="cls-2" cx="41.7" cy="41.7" r="29.39"/>
      <path class="cls-1" d="M63.07,54.67h-5.45v7.04h-13.43v-7.04h-21.29v-8.8l17.42-25.22h14.19l-15.48,23.28h5.57v-6.27h13.02v6.27h5.45v10.73Z"/>
    </g>
  </g>
</svg>