<?xml version="1.0" encoding="UTF-8"?>
<svg id="Capa_2" xmlns="http://www.w3.org/2000/svg" viewBox="0 0 135.19 135.19">
  <defs>
    <style>
      .cls-1 {
        fill: #f8ac50;
      }

      .cls-2 {
        fill: #771d0e;
      }
    </style>
  </defs>
  <g id="Capa_1-2" data-name="Capa_1">
    <g>
      <rect class="cls-2" x="0" y="0" width="135.19" height="135.19" rx="67.6" ry="67.6"/>
      <g>
        <rect class="cls-1" x="47.81" y="23.56" width="37.47" height="2.54"/>
        <path class="cls-1" d="M110.34,54.65l-23.41-24.56c-.43-.37-.97-.57-1.54-.57h-36.04c-.56,0-1.11.2-1.54.57l-22.97,24.19c-1.11.95-1.11,2.66,0,3.61l.68.58c1,.85,2.49.73,3.34-.27l.13-.16c.85-1,2.35-1.12,3.34-.27l.81.69c1,.85,2.49.73,3.34-.27l.07-.08c.85-1,2.35-1.12,3.34-.27l.72.61c1,.85,2.49.73,3.34-.27h0c.85-1,2.35-1.12,3.34-.27l.63.54c1,.85,2.49.73,3.34-.27.85-1,2.35-1.12,3.34-.27l.63.54c1,.85,2.49.73,3.34-.27h0c.85-1,2.35-1.12,3.34-.27l.63.54c1,.85,2.49.73,3.34-.27l.07-.08c.85-1,2.35-1.12,3.34-.27l.72.61c1,.85,2.49.73,3.34-.27l.13-.16c.85-1,2.35-1.12,3.34-.27l.81.69c1,.85,2.49.73,3.34-.27l.07-.08c.85-1,2.35-1.12,3.34-.27l.72.61c1,.85,2.49.73,3.34-.27h0c.85-1,2.35-1.12,3.34-.27l.63.54c1,.85,2.49.73,3.34-.27h0c.85-1,2.35-1.12,3.34-.27l.63.54c1,.85,2.49.73,3.34-.27.85-1,2.35-1.12,3.34-.27l.63.54c1,.85,2.49.73,3.34-.27l.18-.21c.85-1,.73-2.49-.27-3.34Z"/>
        <path class="cls-1" d="M103.12,62.72c-.85.79-2.35.89-3.34.21l-.63-.43c-1-.68-2.49-.58-3.34.21h0c-.85.79-2.35.89-3.34.21l-.63-.43c-1-.68-2.49-.58-3.34.21h0c-.85.79-2.35.89-3.34.21l-.72-.49c-1-.68-2.49-.58-3.34.21l-.07.06c-.85.79-2.35.89-3.34.21l-.81-.55c-1-.68-2.49-.58-3.34.21l-.13.12c-.85.79-2.35.89-3.34.21l-.72-.49c-1-.68-2.49-.58-3.34.21l-.07.06c-.85.79-2.35.89-3.34.21l-.63-.43c-1-.68-2.49-.58-3.34.21h0c-.85.79-2.35.89-3.34.21l-.63-.43c-1-.68-2.49-.58-3.34.21-.85.79-2.35.89-3.34.21l-.63-.43c-1-.68-2.49-.58-3.34.21h0c-.85.79-2.35.89-3.34.21l-.72-.49c-1-.68-2.49-.58-3.34.21l-.07.06c-.85.79-2.35.89-3.34.21l-.81-.55c-.58-.4-1.34-.52-2.03-.4v36.23h27.69v-29.01h18.05v29.01h30.21v-35.8c-.99-.55-2.36-.43-3.16.32ZM50.23,82.18h-12.98v-12.99h12.98v12.99ZM101.26,82.18h-17.91v-12.99h17.91v12.99Z"/>
      </g>
    </g>
  </g>
</svg>