<?xml version="1.0" encoding="UTF-8"?>
<svg id="Capa_2" xmlns="http://www.w3.org/2000/svg" viewBox="0 0 197.08 100">
  <defs>
    <style>
      .cls-1 {
        fill: #f8ac50;
      }

      .cls-2 {
        fill: #771d0e;
      }
    </style>
  </defs>
  <g id="Capa_1-2" data-name="Capa_1">
    <g>
      <path class="cls-2" d="M29.37,0s.03,23.98,0,23.95l-23.98.02v-12.02.13s.01-6.63.01-6.63h13.21v8.25s0,0,0,0h-6.1c-.95-.01-1.71.76-1.71,1.7v1.47c-.01.95.76,1.71,1.7,1.71h11.5v-6.63.13s.01-12.02.01-12.02H0v12.02-.13s0,17.41,0,17.41h29.37s.03,29.9.02,29.89H5.39v-12.02.13s.01-6.63.01-6.63h13.21v8.25s0,0,0,0h-6.1c-.95-.01-1.71.76-1.71,1.7v1.47c-.01.95.76,1.71,1.7,1.71h11.5v-6.63.13s.01-12.02.01-12.02H0v12.02-.13s0,17.41,0,17.41h29.37s.02,26.96.02,29.89H5.39v-12.02.13s.01-6.63.01-6.63h13.21v8.25s0,0,0,0h-6.1c-.95-.01-1.71.76-1.71,1.7v1.47c-.01.95.76,1.71,1.7,1.71h11.5v-6.63.13s.01-12.02.01-12.02H0v12.02-.13s0,17.41,0,17.41l197.08.09V0H29.37Z"/>
      <g>
        <path class="cls-1" d="M57.12,30.76h2.86v12.98h8.05v2.42h-10.91v-15.4Z"/>
        <path class="cls-1" d="M79.48,35.53c.92.83,1.38,2.08,1.38,3.75v6.89h-2.6v-1.43c-.34.51-.82.91-1.44,1.18-.62.27-1.38.41-2.25.41s-1.65-.15-2.31-.45-1.17-.72-1.53-1.25-.54-1.14-.54-1.82c0-1.06.39-1.9,1.18-2.54.79-.64,2.02-.96,3.71-.96h3.04v-.18c0-.82-.25-1.45-.74-1.89-.49-.44-1.22-.66-2.19-.66-.66,0-1.31.1-1.95.31-.64.21-1.18.49-1.62.86l-1.08-2c.62-.47,1.36-.83,2.22-1.08s1.78-.37,2.75-.37c1.73,0,3.05.41,3.97,1.24ZM76.97,43.84c.54-.31.91-.77,1.13-1.35v-1.36h-2.84c-1.58,0-2.38.52-2.38,1.56,0,.5.2.89.59,1.19.4.29.95.44,1.65.44s1.3-.16,1.84-.47Z"/>
        <path class="cls-1" d="M92.2,29.84h2.75v16.32h-2.75v-16.32Z"/>
        <path class="cls-1" d="M110.44,41.17h-9.22c.16.87.58,1.55,1.26,2.06.68.51,1.53.76,2.54.76,1.29,0,2.35-.43,3.19-1.28l1.47,1.69c-.53.63-1.2,1.11-2,1.43-.81.32-1.72.48-2.73.48-1.29,0-2.43-.26-3.41-.77-.98-.51-1.74-1.23-2.28-2.14s-.8-1.95-.8-3.11.26-2.17.78-3.09,1.24-1.63,2.17-2.15c.92-.51,1.96-.77,3.12-.77s2.17.25,3.07.76c.9.51,1.61,1.22,2.11,2.13.51.92.76,1.98.76,3.18,0,.19-.01.46-.04.81ZM102.31,37.26c-.61.52-.98,1.21-1.11,2.08h6.67c-.12-.85-.48-1.54-1.08-2.07-.6-.53-1.35-.79-2.24-.79s-1.62.26-2.23.78Z"/>
        <path class="cls-1" d="M124.24,35.58c.89.87,1.34,2.15,1.34,3.85v6.73h-2.75v-6.38c0-1.03-.24-1.8-.73-2.32-.48-.52-1.17-.78-2.07-.78-1.01,0-1.81.3-2.4.91-.59.61-.88,1.49-.88,2.63v5.94h-2.75v-11.75h2.62v1.52c.45-.54,1.03-.95,1.72-1.23s1.47-.42,2.33-.42c1.48,0,2.67.43,3.56,1.3Z"/>
        <path class="cls-1" d="M141.73,34.41v9.97c0,4.14-2.11,6.2-6.34,6.2-1.13,0-2.2-.14-3.21-.43s-1.85-.7-2.51-1.24l1.23-2.07c.51.43,1.16.77,1.95,1.02.78.26,1.58.38,2.39.38,1.29,0,2.24-.29,2.84-.88s.9-1.48.9-2.68v-.62c-.47.51-1.04.9-1.72,1.17-.67.26-1.42.4-2.22.4-1.12,0-2.12-.24-3.03-.71s-1.61-1.15-2.13-2.01-.78-1.86-.78-2.97.26-2.1.78-2.96c.52-.86,1.23-1.52,2.13-1.99s1.91-.7,3.03-.7c.85,0,1.62.14,2.32.42s1.28.7,1.75,1.28v-1.56h2.62ZM138.02,42.37c.67-.62,1-1.43,1-2.43s-.33-1.78-1-2.4-1.52-.92-2.56-.92-1.92.31-2.58.92c-.67.62-1,1.42-1,2.4s.33,1.81,1,2.43c.67.62,1.53.93,2.58.93s1.9-.31,2.56-.93Z"/>
        <path class="cls-1" d="M157.59,34.41v11.75h-2.62v-1.5c-.44.53-.99.94-1.65,1.22-.66.29-1.37.43-2.13.43-1.57,0-2.81-.44-3.71-1.31-.9-.87-1.35-2.17-1.35-3.88v-6.71h2.75v6.34c0,1.06.24,1.84.71,2.37s1.16.78,2.04.78c.98,0,1.76-.3,2.34-.91.58-.61.87-1.49.87-2.63v-5.94h2.75Z"/>
        <path class="cls-1" d="M170.54,35.53c.92.83,1.38,2.08,1.38,3.75v6.89h-2.6v-1.43c-.34.51-.82.91-1.44,1.18-.62.27-1.38.41-2.25.41s-1.65-.15-2.31-.45-1.17-.72-1.53-1.25-.54-1.14-.54-1.82c0-1.06.39-1.9,1.18-2.54.79-.64,2.02-.96,3.71-.96h3.04v-.18c0-.82-.25-1.45-.74-1.89-.49-.44-1.22-.66-2.19-.66-.66,0-1.31.1-1.95.31-.64.21-1.18.49-1.62.86l-1.08-2c.62-.47,1.36-.83,2.22-1.08s1.78-.37,2.75-.37c1.73,0,3.05.41,3.97,1.24ZM168.03,43.84c.54-.31.91-.77,1.13-1.35v-1.36h-2.84c-1.58,0-2.38.52-2.38,1.56,0,.5.2.89.59,1.19.4.29.95.44,1.65.44s1.3-.16,1.84-.47Z"/>
        <path class="cls-1" d="M82.32,54.76v15.4h-2.35l-8.49-10.43v10.43h-2.84v-15.4h2.35l8.49,10.43v-10.43h2.84Z"/>
        <path class="cls-1" d="M95.53,59.53c.92.83,1.38,2.08,1.38,3.75v6.89h-2.6v-1.43c-.34.51-.82.91-1.44,1.18-.62.27-1.38.41-2.25.41s-1.65-.15-2.31-.45-1.17-.72-1.53-1.25-.54-1.14-.54-1.82c0-1.06.39-1.9,1.18-2.54.79-.64,2.02-.96,3.71-.96h3.04v-.18c0-.82-.25-1.45-.74-1.89-.49-.44-1.22-.66-2.19-.66-.66,0-1.31.1-1.95.31-.64.21-1.18.49-1.62.86l-1.08-2c.62-.47,1.36-.83,2.22-1.08s1.78-.37,2.75-.37c1.73,0,3.05.41,3.97,1.24ZM93.02,67.84c.54-.31.91-.77,1.13-1.35v-1.36h-2.84c-1.58,0-2.38.52-2.38,1.56,0,.5.2.89.59,1.19.4.29.95.44,1.65.44s1.3-.16,1.84-.47Z"/>
        <path class="cls-1" d="M111.53,59.58c.89.87,1.34,2.15,1.34,3.85v6.73h-2.75v-6.38c0-1.03-.24-1.8-.73-2.32-.48-.52-1.17-.78-2.07-.78-1.01,0-1.81.3-2.4.91-.59.61-.88,1.49-.88,2.63v5.94h-2.75v-16.32h2.75v5.94c.46-.48,1.02-.85,1.68-1.11.67-.26,1.41-.38,2.23-.38,1.48,0,2.67.43,3.56,1.3Z"/>
        <path class="cls-1" d="M128.63,58.41v11.75h-2.62v-1.5c-.44.53-.99.94-1.65,1.22-.66.29-1.37.43-2.13.43-1.57,0-2.81-.44-3.71-1.31-.9-.87-1.35-2.17-1.35-3.88v-6.71h2.75v6.34c0,1.06.24,1.84.71,2.37s1.16.78,2.04.78c.98,0,1.76-.3,2.34-.91.58-.61.87-1.49.87-2.63v-5.94h2.75Z"/>
        <path class="cls-1" d="M141.57,59.53c.92.83,1.38,2.08,1.38,3.75v6.89h-2.6v-1.43c-.34.51-.82.91-1.44,1.18-.62.27-1.38.41-2.25.41s-1.65-.15-2.31-.45-1.17-.72-1.53-1.25-.54-1.14-.54-1.82c0-1.06.39-1.9,1.18-2.54.79-.64,2.02-.96,3.71-.96h3.04v-.18c0-.82-.25-1.45-.74-1.89-.49-.44-1.22-.66-2.19-.66-.66,0-1.31.1-1.95.31-.64.21-1.18.49-1.62.86l-1.08-2c.62-.47,1.36-.83,2.22-1.08s1.78-.37,2.75-.37c1.73,0,3.05.41,3.97,1.24ZM139.07,67.84c.54-.31.91-.77,1.13-1.35v-1.36h-2.84c-1.58,0-2.38.52-2.38,1.56,0,.5.2.89.59,1.19.4.29.95.44,1.65.44s1.3-.16,1.84-.47Z"/>
        <path class="cls-1" d="M154.41,69.52c-.32.26-.71.46-1.18.59-.46.13-.95.2-1.46.2-1.29,0-2.29-.34-2.99-1.01-.7-.67-1.06-1.66-1.06-2.95v-5.65h-1.94v-2.2h1.94v-2.68h2.75v2.68h3.15v2.2h-3.15v5.59c0,.57.14,1.01.42,1.31.28.3.68.45,1.21.45.62,0,1.13-.16,1.54-.48l.77,1.96Z"/>
        <path class="cls-1" d="M157.56,53.84h2.75v16.32h-2.75v-16.32Z"/>
      </g>
    </g>
  </g>
</svg>