<?xml version="1.0" encoding="UTF-8"?>
<svg id="Capa_2" xmlns="http://www.w3.org/2000/svg" viewBox="0 0 199.77 102.25">
  <defs>
    <style>
      .cls-1 {
        fill: #fff;
      }

      .cls-2 {
        fill: #e4151e;
      }
    </style>
  </defs>
  <g id="Capa_1-2" data-name="Capa_1">
    <g>
      <g>
        <rect class="cls-2" y="25.27" width="199.77" height="51.68" rx="13.07" ry="13.07"/>
        <path class="cls-2" d="M99.89,37.74c-10.4,0-18.87-8.46-18.87-18.87S89.48,0,99.89,0s18.87,8.46,18.87,18.87-8.46,18.87-18.87,18.87ZM99.89,12.39c-3.57,0-6.48,2.91-6.48,6.48s2.91,6.48,6.48,6.48,6.48-2.91,6.48-6.48-2.91-6.48-6.48-6.48Z"/>
        <path class="cls-2" d="M99.89,102.25c-10.4,0-18.87-8.46-18.87-18.87s8.46-18.87,18.87-18.87,18.87,8.46,18.87,18.87-8.46,18.87-18.87,18.87ZM99.89,76.9c-3.57,0-6.48,2.91-6.48,6.48s2.91,6.48,6.48,6.48,6.48-2.91,6.48-6.48-2.91-6.48-6.48-6.48Z"/>
      </g>
      <g>
        <path class="cls-1" d="M21.18,46.99h-4.7v-2.77h12.81v2.77h-4.7v11.93h-3.4v-11.93Z"/>
        <path class="cls-1" d="M31.72,43.34h3.28v15.58h-3.28v-15.58Z"/>
        <path class="cls-1" d="M47.47,48.7c.94.83,1.41,2.09,1.41,3.77v6.45h-3.07v-1.41c-.62,1.05-1.76,1.58-3.44,1.58-.87,0-1.62-.15-2.26-.44-.64-.29-1.12-.7-1.46-1.22-.34-.52-.5-1.11-.5-1.76,0-1.05.4-1.88,1.19-2.48.79-.6,2.01-.9,3.66-.9h2.6c0-.71-.22-1.26-.65-1.65-.43-.38-1.08-.58-1.95-.58-.6,0-1.19.09-1.77.28-.58.19-1.07.44-1.48.77l-1.18-2.29c.62-.43,1.35-.77,2.21-1.01.86-.24,1.75-.36,2.66-.36,1.75,0,3.09.42,4.03,1.25ZM44.68,56.49c.43-.26.74-.64.92-1.14v-1.15h-2.25c-1.34,0-2.02.44-2.02,1.32,0,.42.17.75.49,1,.33.25.78.37,1.35.37s1.06-.13,1.49-.39Z"/>
        <path class="cls-1" d="M70.52,48.7c.83.83,1.25,2.08,1.25,3.75v6.47h-3.28v-5.96c0-.9-.19-1.56-.56-2.01-.37-.44-.9-.66-1.59-.66-.77,0-1.38.25-1.83.75-.45.5-.67,1.24-.67,2.22v5.67h-3.28v-5.96c0-1.78-.71-2.67-2.14-2.67-.76,0-1.36.25-1.81.75-.45.5-.67,1.24-.67,2.22v5.67h-3.28v-11.3h3.13v1.3c.42-.48.93-.84,1.54-1.09s1.28-.38,2.01-.38c.8,0,1.52.16,2.16.47.64.31,1.16.77,1.55,1.38.46-.59,1.05-1.04,1.75-1.37.71-.32,1.48-.48,2.32-.48,1.41,0,2.54.42,3.37,1.25Z"/>
        <path class="cls-1" d="M84.14,48.7c.94.83,1.41,2.09,1.41,3.77v6.45h-3.07v-1.41c-.62,1.05-1.76,1.58-3.44,1.58-.87,0-1.62-.15-2.26-.44-.64-.29-1.12-.7-1.46-1.22-.34-.52-.5-1.11-.5-1.76,0-1.05.4-1.88,1.19-2.48.79-.6,2.01-.9,3.66-.9h2.6c0-.71-.22-1.26-.65-1.65-.43-.38-1.08-.58-1.95-.58-.6,0-1.19.09-1.77.28-.58.19-1.07.44-1.48.77l-1.18-2.29c.62-.43,1.35-.77,2.21-1.01.86-.24,1.75-.36,2.66-.36,1.75,0,3.09.42,4.03,1.25ZM81.35,56.49c.43-.26.74-.64.92-1.14v-1.15h-2.25c-1.34,0-2.02.44-2.02,1.32,0,.42.17.75.49,1,.33.25.78.37,1.35.37s1.06-.13,1.49-.39Z"/>
        <path class="cls-1" d="M91.69,58.34c-.96-.5-1.71-1.19-2.25-2.07-.54-.88-.81-1.88-.81-3s.27-2.12.81-3c.54-.88,1.29-1.57,2.25-2.07.96-.5,2.04-.75,3.24-.75s2.23.25,3.12.75c.89.5,1.54,1.21,1.94,2.13l-2.54,1.37c-.59-1.04-1.44-1.55-2.54-1.55-.85,0-1.56.28-2.12.84s-.84,1.32-.84,2.29.28,1.73.84,2.29c.56.56,1.27.84,2.12.84,1.12,0,1.97-.52,2.54-1.55l2.54,1.39c-.41.9-1.05,1.6-1.94,2.1-.89.5-1.93.76-3.12.76s-2.29-.25-3.24-.75Z"/>
        <path class="cls-1" d="M112.9,48.71c.86.84,1.29,2.09,1.29,3.74v6.47h-3.28v-5.96c0-.9-.2-1.56-.59-2.01-.39-.44-.96-.66-1.7-.66-.83,0-1.48.26-1.97.77-.49.51-.74,1.27-.74,2.28v5.59h-3.28v-15.58h3.28v5.46c.43-.43.96-.77,1.58-1,.62-.23,1.29-.35,2.02-.35,1.4,0,2.53.42,3.39,1.26Z"/>
        <path class="cls-1" d="M125.28,58.37c-.32.24-.72.42-1.19.54-.47.12-.96.18-1.48.18-1.34,0-2.38-.34-3.12-1.03-.74-.69-1.1-1.69-1.1-3.02v-4.64h-1.74v-2.52h1.74v-2.75h3.28v2.75h2.81v2.52h-2.81v4.6c0,.48.12.84.37,1.1.24.26.59.39,1.04.39.52,0,.96-.14,1.32-.42l.88,2.31Z"/>
        <path class="cls-1" d="M128.13,45.52c-.38-.35-.57-.78-.57-1.3s.19-.95.57-1.3.87-.53,1.47-.53,1.09.17,1.47.5c.38.34.57.76.57,1.26,0,.55-.19,1-.57,1.35-.38.36-.87.54-1.47.54s-1.09-.17-1.47-.53ZM127.96,47.62h3.28v11.3h-3.28v-11.3Z"/>
        <path class="cls-1" d="M135.13,43.34h3.28v15.58h-3.28v-15.58Z"/>
        <path class="cls-1" d="M142.46,45.52c-.38-.35-.57-.78-.57-1.3s.19-.95.57-1.3.87-.53,1.47-.53,1.09.17,1.47.5c.38.34.57.76.57,1.26,0,.55-.19,1-.57,1.35-.38.36-.87.54-1.47.54s-1.09-.17-1.47-.53ZM142.29,47.62h3.28v11.3h-3.28v-11.3Z"/>
        <path class="cls-1" d="M150.5,58.74c-.9-.23-1.61-.52-2.14-.87l1.09-2.35c.5.32,1.11.58,1.83.79s1.41.3,2.1.3c1.39,0,2.08-.34,2.08-1.03,0-.32-.19-.55-.57-.69-.38-.14-.96-.26-1.74-.36-.92-.14-1.69-.3-2.29-.48-.6-.18-1.12-.5-1.56-.97s-.66-1.12-.66-1.97c0-.71.21-1.35.62-1.9.41-.55,1.01-.98,1.81-1.29s1.73-.46,2.8-.46c.8,0,1.59.09,2.38.26s1.45.42,1.96.72l-1.09,2.33c-.99-.56-2.08-.84-3.25-.84-.7,0-1.22.1-1.58.29-.35.2-.52.45-.52.76,0,.35.19.6.57.74.38.14.98.27,1.81.4.92.15,1.68.32,2.27.49s1.1.49,1.53.96c.43.46.65,1.11.65,1.93,0,.7-.21,1.32-.63,1.87s-1.03.97-1.84,1.27c-.81.3-1.76.45-2.87.45-.94,0-1.86-.12-2.75-.35Z"/>
        <path class="cls-1" d="M168.73,58.37c-.32.24-.72.42-1.19.54-.47.12-.96.18-1.48.18-1.34,0-2.38-.34-3.12-1.03-.74-.69-1.1-1.69-1.1-3.02v-4.64h-1.74v-2.52h1.74v-2.75h3.28v2.75h2.81v2.52h-2.81v4.6c0,.48.12.84.37,1.1.24.26.59.39,1.04.39.52,0,.96-.14,1.32-.42l.88,2.31Z"/>
        <path class="cls-1" d="M171.41,43.34h3.28v15.58h-3.28v-15.58Z"/>
        <path class="cls-1" d="M178.74,45.52c-.38-.35-.57-.78-.57-1.3s.19-.95.57-1.3.87-.53,1.47-.53,1.09.17,1.47.5c.38.34.57.76.57,1.26,0,.55-.19,1-.57,1.35-.38.36-.87.54-1.47.54s-1.09-.17-1.47-.53ZM178.57,47.62h3.28v11.3h-3.28v-11.3Z"/>
      </g>
    </g>
  </g>
</svg>