<?xml version="1.0" encoding="UTF-8"?>
<svg id="Capa_2" xmlns="http://www.w3.org/2000/svg" viewBox="0 0 197.08 100">
  <defs>
    <style>
      .cls-1 {
        fill: #f8ac50;
      }

      .cls-2 {
        fill: #771d0e;
      }
    </style>
  </defs>
  <g id="Capa_1-2" data-name="Capa_1">
    <g>
      <path class="cls-2" d="M29.37,0s.03,23.98,0,23.95l-23.98.02v-12.02.13s.01-6.63.01-6.63h13.21v8.25s0,0,0,0h-6.1c-.95-.01-1.71.76-1.71,1.7v1.47c-.01.95.76,1.71,1.7,1.71h11.5v-6.63.13s.01-12.02.01-12.02H0v12.02-.13s0,17.41,0,17.41h29.37s.03,29.9.02,29.89H5.39v-12.02.13s.01-6.63.01-6.63h13.21v8.25s0,0,0,0h-6.1c-.95-.01-1.71.76-1.71,1.7v1.47c-.01.95.76,1.71,1.7,1.71h11.5v-6.63.13s.01-12.02.01-12.02H0v12.02-.13s0,17.41,0,17.41h29.37s.02,26.96.02,29.89H5.39v-12.02.13s.01-6.63.01-6.63h13.21v8.25s0,0,0,0h-6.1c-.95-.01-1.71.76-1.71,1.7v1.47c-.01.95.76,1.71,1.7,1.71h11.5v-6.63.13s.01-12.02.01-12.02H0v12.02-.13s0,17.41,0,17.41l197.08.09V0H29.37Z"/>
      <g>
        <path class="cls-1" d="M88.63,54.6h-7.7l-1.52,3.56h-2.95l6.93-15.4h2.82l6.95,15.4h-2.99l-1.54-3.56ZM87.69,52.35l-2.9-6.73-2.88,6.73h5.79Z"/>
        <path class="cls-1" d="M105.32,47.03c.9.5,1.61,1.2,2.12,2.11.51.91.77,1.96.77,3.15s-.26,2.24-.77,3.16-1.22,1.62-2.12,2.12c-.9.5-1.92.75-3.07.75-1.58,0-2.84-.53-3.76-1.58v5.7h-2.75v-16.02h2.62v1.54c.45-.56,1.02-.98,1.68-1.25.67-.28,1.4-.42,2.21-.42,1.14,0,2.17.25,3.07.75ZM104.44,54.95c.65-.67.98-1.56.98-2.66s-.33-1.99-.98-2.66c-.65-.67-1.49-1.01-2.5-1.01-.66,0-1.25.15-1.78.45-.53.3-.95.73-1.25,1.29-.31.56-.46,1.2-.46,1.94s.15,1.38.46,1.94c.31.56.73.99,1.25,1.29.53.3,1.12.45,1.78.45,1.01,0,1.84-.34,2.5-1.01Z"/>
        <path class="cls-1" d="M113.78,57.55c-.95-.51-1.7-1.23-2.23-2.14s-.8-1.95-.8-3.11.27-2.19.8-3.1,1.28-1.62,2.23-2.13c.95-.51,2.02-.77,3.21-.77s2.28.26,3.23.77c.95.51,1.7,1.23,2.23,2.13s.8,1.94.8,3.1-.27,2.2-.8,3.11-1.28,1.63-2.23,2.14c-.95.51-2.03.77-3.23.77s-2.26-.26-3.21-.77ZM119.5,54.95c.66-.67.99-1.56.99-2.66s-.33-1.99-.99-2.66c-.66-.67-1.5-1.01-2.51-1.01s-1.84.34-2.5,1.01c-.65.67-.98,1.56-.98,2.66s.33,1.99.98,2.66,1.49,1.01,2.5,1.01,1.85-.34,2.51-1.01Z"/>
        <path class="cls-1" d="M137.45,46.41l-5.5,12.69c-.51,1.28-1.14,2.17-1.87,2.69s-1.62.78-2.66.78c-.59,0-1.17-.1-1.74-.29s-1.04-.45-1.41-.79l1.1-2.02c.26.25.58.45.94.59s.72.22,1.09.22c.48,0,.88-.12,1.2-.37s.6-.67.87-1.25l.2-.46-5.13-11.79h2.86l3.7,8.69,3.72-8.69h2.64Z"/>
        <path class="cls-1" d="M141.78,57.55c-.95-.51-1.7-1.23-2.23-2.14s-.8-1.95-.8-3.11.27-2.19.8-3.1,1.28-1.62,2.23-2.13c.95-.51,2.02-.77,3.21-.77s2.28.26,3.23.77c.95.51,1.7,1.23,2.23,2.13s.8,1.94.8,3.1-.27,2.2-.8,3.11-1.28,1.63-2.23,2.14c-.95.51-2.03.77-3.23.77s-2.26-.26-3.21-.77ZM147.5,54.95c.66-.67.99-1.56.99-2.66s-.33-1.99-.99-2.66c-.66-.67-1.5-1.01-2.51-1.01s-1.84.34-2.5,1.01c-.65.67-.98,1.56-.98,2.66s.33,1.99.98,2.66,1.49,1.01,2.5,1.01,1.85-.34,2.51-1.01Z"/>
      </g>
    </g>
  </g>
</svg>