<?xml version="1.0" encoding="UTF-8"?>
<svg id="Capa_2" xmlns="http://www.w3.org/2000/svg" viewBox="0 0 199.77 102.25">
  <defs>
    <style>
      .cls-1 {
        fill: #e31e84;
      }

      .cls-2 {
        fill: #fff;
      }
    </style>
  </defs>
  <g id="Capa_1-2" data-name="Capa_1">
    <g>
      <g>
        <rect class="cls-1" y="25.27" width="199.77" height="51.68" rx="13.07" ry="13.07"/>
        <path class="cls-1" d="M99.89,37.74c-10.4,0-18.87-8.46-18.87-18.87S89.48,0,99.89,0s18.87,8.46,18.87,18.87-8.46,18.87-18.87,18.87ZM99.89,12.39c-3.57,0-6.48,2.91-6.48,6.48s2.91,6.48,6.48,6.48,6.48-2.91,6.48-6.48-2.91-6.48-6.48-6.48Z"/>
        <path class="cls-1" d="M99.89,102.25c-10.4,0-18.87-8.46-18.87-18.87s8.46-18.87,18.87-18.87,18.87,8.46,18.87,18.87-8.46,18.87-18.87,18.87ZM99.89,76.9c-3.57,0-6.48,2.91-6.48,6.48s2.91,6.48,6.48,6.48,6.48-2.91,6.48-6.48-2.91-6.48-6.48-6.48Z"/>
      </g>
      <g>
        <path class="cls-2" d="M42.97,46.99h-4.7v-2.77h12.81v2.77h-4.7v11.93h-3.4v-11.93Z"/>
        <path class="cls-2" d="M53.43,45.52c-.38-.35-.57-.78-.57-1.3s.19-.95.57-1.3.87-.53,1.47-.53,1.09.17,1.47.5c.38.34.57.76.57,1.26,0,.55-.19,1-.57,1.35-.38.36-.87.54-1.47.54s-1.09-.17-1.47-.53ZM53.26,47.62h3.28v11.3h-3.28v-11.3Z"/>
        <path class="cls-2" d="M69.01,48.7c.94.83,1.41,2.09,1.41,3.77v6.45h-3.07v-1.41c-.62,1.05-1.76,1.58-3.44,1.58-.87,0-1.62-.15-2.26-.44-.64-.29-1.12-.7-1.46-1.22-.34-.52-.5-1.11-.5-1.76,0-1.05.4-1.88,1.19-2.48.79-.6,2.01-.9,3.66-.9h2.6c0-.71-.22-1.26-.65-1.65-.43-.38-1.08-.58-1.95-.58-.6,0-1.19.09-1.77.28-.58.19-1.07.44-1.48.77l-1.18-2.29c.62-.43,1.35-.77,2.21-1.01.86-.24,1.75-.36,2.66-.36,1.75,0,3.09.42,4.03,1.25ZM66.21,56.49c.43-.26.74-.64.92-1.14v-1.15h-2.25c-1.34,0-2.02.44-2.02,1.32,0,.42.17.75.49,1,.33.25.78.37,1.35.37s1.06-.13,1.49-.39Z"/>
        <path class="cls-2" d="M84.47,48.71c.86.84,1.29,2.09,1.29,3.74v6.47h-3.28v-5.96c0-.9-.2-1.56-.59-2.01-.39-.44-.96-.66-1.7-.66-.83,0-1.48.26-1.97.77-.49.51-.74,1.27-.74,2.28v5.59h-3.28v-11.3h3.13v1.32c.43-.48.97-.84,1.62-1.1s1.35-.39,2.12-.39c1.4,0,2.53.42,3.39,1.26Z"/>
        <path class="cls-2" d="M101.35,47.62v9.41c0,2.07-.54,3.61-1.62,4.62-1.08,1.01-2.65,1.51-4.72,1.51-1.09,0-2.13-.13-3.11-.4-.98-.27-1.79-.65-2.44-1.15l1.3-2.35c.48.39,1.08.7,1.81.93.73.23,1.46.35,2.18.35,1.13,0,1.97-.26,2.51-.77.54-.51.81-1.28.81-2.32v-.48c-.85.94-2.04,1.41-3.57,1.41-1.04,0-1.98-.23-2.85-.68s-1.54-1.1-2.05-1.92c-.5-.83-.76-1.78-.76-2.86s.25-2.03.76-2.86c.5-.83,1.19-1.47,2.05-1.92s1.81-.68,2.85-.68c1.64,0,2.88.54,3.74,1.62v-1.45h3.11ZM97.28,54.92c.55-.51.83-1.18.83-2s-.28-1.49-.83-2.01c-.55-.51-1.26-.77-2.13-.77s-1.58.26-2.14.77c-.56.51-.84,1.18-.84,2.01s.28,1.49.84,2c.56.51,1.27.77,2.14.77s1.58-.25,2.13-.77Z"/>
        <path class="cls-2" d="M116.61,47.62v11.3h-3.11v-1.34c-.43.49-.95.86-1.55,1.12-.6.26-1.25.39-1.95.39-1.48,0-2.66-.43-3.53-1.28-.87-.85-1.3-2.12-1.3-3.8v-6.38h3.28v5.9c0,1.82.76,2.73,2.29,2.73.78,0,1.41-.25,1.89-.77.48-.51.71-1.27.71-2.28v-5.59h3.28Z"/>
        <path class="cls-2" d="M120.67,45.52c-.38-.35-.57-.78-.57-1.3s.19-.95.57-1.3.87-.53,1.47-.53,1.09.17,1.47.5c.38.34.57.76.57,1.26,0,.55-.19,1-.57,1.35-.38.36-.87.54-1.47.54s-1.09-.17-1.47-.53ZM120.5,47.62h3.28v11.3h-3.28v-11.3Z"/>
        <path class="cls-2" d="M128.71,58.74c-.9-.23-1.61-.52-2.14-.87l1.09-2.35c.5.32,1.11.58,1.83.79s1.41.3,2.1.3c1.39,0,2.08-.34,2.08-1.03,0-.32-.19-.55-.57-.69-.38-.14-.96-.26-1.74-.36-.92-.14-1.69-.3-2.29-.48-.6-.18-1.12-.5-1.56-.97s-.66-1.12-.66-1.97c0-.71.21-1.35.62-1.9.41-.55,1.01-.98,1.81-1.29s1.73-.46,2.8-.46c.8,0,1.59.09,2.38.26s1.45.42,1.96.72l-1.09,2.33c-.99-.56-2.08-.84-3.25-.84-.7,0-1.22.1-1.58.29-.35.2-.52.45-.52.76,0,.35.19.6.57.74.38.14.98.27,1.81.4.92.15,1.68.32,2.27.49s1.1.49,1.53.96c.43.46.65,1.11.65,1.93,0,.7-.21,1.32-.63,1.87s-1.03.97-1.84,1.27c-.81.3-1.76.45-2.87.45-.94,0-1.86-.12-2.75-.35Z"/>
        <path class="cls-2" d="M146.94,58.37c-.32.24-.72.42-1.19.54-.47.12-.96.18-1.48.18-1.34,0-2.38-.34-3.12-1.03-.74-.69-1.1-1.69-1.1-3.02v-4.64h-1.74v-2.52h1.74v-2.75h3.28v2.75h2.81v2.52h-2.81v4.6c0,.48.12.84.37,1.1.24.26.59.39,1.04.39.52,0,.96-.14,1.32-.42l.88,2.31Z"/>
        <path class="cls-2" d="M149.63,43.33h3.28v15.58h-3.28v-15.58Z"/>
        <path class="cls-2" d="M156.96,45.52c-.38-.35-.57-.78-.57-1.3s.19-.95.57-1.3.87-.53,1.47-.53,1.09.17,1.47.5c.38.34.57.76.57,1.26,0,.55-.19,1-.57,1.35-.38.36-.87.54-1.47.54s-1.09-.17-1.47-.53ZM156.79,47.62h3.28v11.3h-3.28v-11.3Z"/>
      </g>
    </g>
  </g>
</svg>