<?xml version="1.0" encoding="UTF-8"?>
<svg id="Capa_2" xmlns="http://www.w3.org/2000/svg" viewBox="0 0 197.2 100">
  <defs>
    <style>
      .cls-1 {
        fill: #f8ac50;
      }

      .cls-2 {
        fill: #771d0e;
      }
    </style>
  </defs>
  <g id="Capa_1-2" data-name="Capa_1">
    <g>
      <rect class="cls-1" x="30.34" width="166.87" height="100" rx="2.98" ry="2.98"/>
      <g>
        <path class="cls-1" d="M33.46,40.79H7.25s0,0,0,0v-10.69h0v-5.53h11.01v6.14h-5c-1.48-.01-2.68,1.18-2.68,2.65v1.44c-.01,1.48,1.18,2.67,2.65,2.67h12.27v-7.36h0v-12.79H0s0,0,0,0v12.65h0v18.07s0,0,0,0h34.99v-7.75l-1.31.46c-.09.03-.16.04-.23.04Z"/>
        <path class="cls-1" d="M33.46,59.21H7.25v10.69h0v5.53h11.01v-6.14h-5c-1.48.01-2.68-1.18-2.68-2.65v-1.44c-.01-1.48,1.18-2.67,2.65-2.67h12.27v7.36h0v12.79H0s0,0,0,0v-12.65h0v-18.07h34.99v7.75l-1.31-.46c-.09-.03-.16-.04-.23-.04Z"/>
      </g>
    </g>
    <g>
      <path class="cls-2" d="M50.83,55.08h-7.47l-1.43,3.45h-3.82l7.18-16.1h3.68l7.2,16.1h-3.91l-1.43-3.45ZM49.66,52.25l-2.55-6.16-2.55,6.16h5.11Z"/>
      <path class="cls-2" d="M60.82,57.9c-1.05-.54-1.87-1.3-2.46-2.27-.59-.97-.88-2.06-.88-3.29s.29-2.32.88-3.29c.59-.97,1.41-1.72,2.46-2.27,1.05-.54,2.24-.82,3.55-.82s2.44.27,3.42.82c.97.54,1.68,1.32,2.13,2.33l-2.78,1.5c-.64-1.13-1.57-1.7-2.78-1.7-.94,0-1.71.31-2.32.92-.61.61-.92,1.45-.92,2.51s.31,1.89.92,2.51,1.39.92,2.32.92c1.23,0,2.15-.57,2.78-1.7l2.78,1.52c-.44.98-1.15,1.75-2.13,2.3-.97.55-2.11.83-3.42.83s-2.5-.27-3.55-.82Z"/>
      <path class="cls-2" d="M81.07,57.94c-.35.26-.79.46-1.3.59-.51.13-1.05.2-1.62.2-1.47,0-2.61-.38-3.42-1.13-.81-.75-1.21-1.85-1.21-3.31v-5.08h-1.91v-2.76h1.91v-3.01h3.59v3.01h3.08v2.76h-3.08v5.04c0,.52.13.92.4,1.21.27.28.65.43,1.14.43.57,0,1.05-.15,1.45-.46l.97,2.53Z"/>
      <path class="cls-2" d="M84.2,43.86c-.41-.38-.62-.86-.62-1.43s.21-1.04.62-1.43c.41-.38.95-.57,1.61-.57s1.2.18,1.61.55c.41.37.62.83.62,1.38,0,.6-.21,1.09-.62,1.48-.41.39-.95.59-1.61.59s-1.2-.19-1.61-.58ZM84.02,46.16h3.59v12.37h-3.59v-12.37Z"/>
      <path class="cls-2" d="M104.14,46.16l-5.22,12.37h-3.7l-5.2-12.37h3.7l3.43,8.42,3.54-8.42h3.45Z"/>
      <path class="cls-2" d="M106.72,43.86c-.41-.38-.62-.86-.62-1.43s.21-1.04.62-1.43c.41-.38.95-.57,1.61-.57s1.2.18,1.61.55c.41.37.62.83.62,1.38,0,.6-.21,1.09-.62,1.48-.41.39-.95.59-1.61.59s-1.2-.19-1.61-.58ZM106.54,46.16h3.59v12.37h-3.59v-12.37Z"/>
      <path class="cls-2" d="M126.98,41.47v17.07h-3.43v-1.43c-.89,1.07-2.18,1.61-3.86,1.61-1.17,0-2.22-.26-3.16-.78-.94-.52-1.68-1.27-2.22-2.23s-.8-2.08-.8-3.36.27-2.39.8-3.36,1.28-1.71,2.22-2.23c.94-.52,2-.78,3.16-.78,1.58,0,2.81.5,3.7,1.49v-6h3.59ZM122.57,54.84c.6-.62.9-1.45.9-2.5s-.3-1.88-.9-2.5c-.6-.62-1.35-.93-2.25-.93s-1.68.31-2.28.93c-.6.62-.9,1.45-.9,2.5s.3,1.87.9,2.5c.6.62,1.36.93,2.28.93s1.66-.31,2.25-.93Z"/>
      <path class="cls-2" d="M140.62,47.34c1.03.91,1.54,2.29,1.54,4.13v7.06h-3.36v-1.54c-.67,1.15-1.93,1.72-3.77,1.72-.95,0-1.77-.16-2.47-.48-.7-.32-1.23-.77-1.6-1.33s-.55-1.21-.55-1.93c0-1.15.43-2.05,1.3-2.71.87-.66,2.2-.99,4.01-.99h2.85c0-.78-.24-1.38-.71-1.81s-1.19-.63-2.14-.63c-.66,0-1.31.1-1.94.31-.64.21-1.18.49-1.62.84l-1.29-2.51c.67-.47,1.48-.84,2.43-1.1.94-.26,1.91-.39,2.91-.39,1.92,0,3.39.46,4.42,1.37ZM137.56,55.88c.48-.28.81-.7,1.01-1.25v-1.26h-2.46c-1.47,0-2.21.48-2.21,1.45,0,.46.18.82.54,1.09.36.27.85.4,1.48.4s1.16-.14,1.63-.42Z"/>
      <path class="cls-2" d="M159.07,41.47v17.07h-3.43v-1.43c-.89,1.07-2.18,1.61-3.86,1.61-1.17,0-2.22-.26-3.16-.78-.94-.52-1.68-1.27-2.22-2.23s-.8-2.08-.8-3.36.27-2.39.8-3.36,1.28-1.71,2.22-2.23c.94-.52,2-.78,3.16-.78,1.58,0,2.81.5,3.7,1.49v-6h3.59ZM154.65,54.84c.6-.62.9-1.45.9-2.5s-.3-1.88-.9-2.5c-.6-.62-1.35-.93-2.25-.93s-1.68.31-2.28.93c-.6.62-.9,1.45-.9,2.5s.3,1.87.9,2.5c.6.62,1.36.93,2.28.93s1.66-.31,2.25-.93Z"/>
      <path class="cls-2" d="M175.35,53.36h-9.36c.17.77.57,1.37,1.2,1.82.63.45,1.41.67,2.35.67.64,0,1.22-.09,1.71-.29.5-.19.96-.49,1.39-.91l1.91,2.07c-1.17,1.33-2.87,2-5.11,2-1.4,0-2.63-.27-3.7-.82-1.07-.54-1.9-1.3-2.48-2.27-.58-.97-.87-2.06-.87-3.29s.29-2.3.86-3.28c.58-.97,1.36-1.73,2.37-2.28,1-.54,2.13-.82,3.37-.82s2.31.26,3.29.78c.98.52,1.75,1.27,2.31,2.24s.84,2.1.84,3.39c0,.05-.02.37-.07.97ZM166.96,49.38c-.55.46-.89,1.09-1.01,1.89h6.1c-.12-.78-.46-1.41-1.01-1.88s-1.23-.7-2.02-.7-1.5.23-2.05.69Z"/>
      <path class="cls-2" d="M179.88,58.34c-.98-.25-1.76-.57-2.35-.96l1.2-2.58c.55.35,1.22.64,2,.86s1.55.33,2.3.33c1.52,0,2.28-.38,2.28-1.13,0-.35-.21-.61-.62-.76s-1.05-.28-1.91-.39c-1.01-.15-1.85-.33-2.51-.53-.66-.2-1.23-.55-1.71-1.06-.48-.51-.72-1.23-.72-2.16,0-.78.23-1.48.68-2.08.45-.61,1.11-1.08,1.98-1.41s1.89-.51,3.07-.51c.87,0,1.74.1,2.61.29.87.19,1.58.46,2.15.79l-1.2,2.55c-1.09-.61-2.28-.92-3.56-.92-.77,0-1.34.11-1.73.32-.38.22-.58.49-.58.83,0,.38.21.65.62.81s1.07.3,1.98.44c1.01.17,1.84.35,2.48.54.64.19,1.2.54,1.68,1.05.47.51.71,1.21.71,2.12,0,.77-.23,1.45-.69,2.05-.46.6-1.13,1.06-2.01,1.39-.88.33-1.93.49-3.14.49-1.03,0-2.03-.13-3.01-.38Z"/>
    </g>
  </g>
</svg>