<?xml version="1.0" encoding="UTF-8"?>
<svg id="Capa_2" xmlns="http://www.w3.org/2000/svg" viewBox="0 0 122.32 122.32">
  <defs>
    <style>
      .cls-1 {
        fill: #630a11;
      }

      .cls-2 {
        fill: #fcad4e;
      }
    </style>
  </defs>
  <g id="Capa_1-2" data-name="Capa_1">
    <g>
      <rect class="cls-1" x="0" y="0" width="122.32" height="122.32" rx="61.16" ry="61.16"/>
      <g>
        <g>
          <path class="cls-2" d="M48.92,35.22l-27.54,13.22v31.21l27.54,13.22c1.77,1.02,3.98-.26,3.98-2.3v-53.05c0-2.04-2.21-3.32-3.98-2.3Z"/>
          <rect class="cls-2" x="13.52" y="48.41" width="4.97" height="31.34"/>
        </g>
        <g>
          <path class="cls-2" d="M67.59,69.48c-.49,0-.97-.21-1.3-.62-.57-.72-.46-1.77.26-2.34.76-.61,1.19-1.51,1.19-2.47s-.43-1.87-1.19-2.47c-.72-.57-.83-1.62-.26-2.34.57-.72,1.62-.83,2.34-.26,1.55,1.24,2.44,3.09,2.44,5.07s-.89,3.83-2.44,5.07c-.31.25-.67.36-1.04.36Z"/>
          <path class="cls-2" d="M75.8,75.93c-.49,0-.97-.21-1.3-.62-.57-.72-.46-1.77.26-2.34,2.74-2.19,4.3-5.44,4.3-8.93s-1.57-6.74-4.3-8.93c-.72-.57-.83-1.62-.26-2.34.57-.72,1.62-.83,2.34-.26,3.53,2.82,5.55,7.02,5.55,11.53s-2.02,8.71-5.55,11.53c-.31.25-.67.36-1.04.36Z"/>
          <path class="cls-2" d="M85.12,83.76c-.49,0-.97-.21-1.3-.62-.57-.72-.46-1.77.26-2.34,5.13-4.1,8.07-10.21,8.07-16.75s-2.94-12.65-8.07-16.75c-.72-.57-.83-1.62-.26-2.34.58-.72,1.62-.83,2.34-.26,5.93,4.74,9.32,11.79,9.32,19.35s-3.4,14.61-9.32,19.35c-.31.25-.67.36-1.04.36Z"/>
          <path class="cls-2" d="M96.66,89.71c-.45,0-.89-.18-1.22-.53-.63-.67-.59-1.73.09-2.35,6.32-5.87,9.94-14.17,9.94-22.78s-3.62-16.91-9.94-22.78c-.67-.63-.71-1.68-.09-2.35.63-.67,1.68-.71,2.35-.09,6.99,6.5,11.01,15.69,11.01,25.22s-4.01,18.73-11.01,25.22c-.32.3-.73.45-1.13.45Z"/>
        </g>
      </g>
    </g>
  </g>
</svg>